<svg width="195" height="57" viewBox="0 0 195 57" fill="none" xmlns="http://www.w3.org/2000/svg">
<path d="M0 28.1355C0 12.5967 12.5967 0 28.1355 0H166.406C181.945 0 194.542 12.5967 194.542 28.1355C194.542 43.6742 181.945 56.2709 166.406 56.2709H28.1354C12.5966 56.2709 0 43.6742 0 28.1355Z" fill="url(#paint0_linear_625_2560)"/>
<path d="M25.1502 22.4785V20.5893H36.4073V22.4785H31.869V35.1348H29.6815V22.4785H25.1502ZM37.5916 35.1348V24.2257H39.6442V25.9586H39.7578C39.9567 25.3715 40.3071 24.9099 40.8089 24.5737C41.3156 24.2328 41.8885 24.0623 42.5277 24.0623C42.6603 24.0623 42.8165 24.0671 42.9964 24.0765C43.1811 24.086 43.3255 24.0978 43.4297 24.112V26.1433C43.3445 26.1196 43.1929 26.0936 42.9751 26.0652C42.7573 26.032 42.5395 26.0154 42.3217 26.0154C41.8198 26.0154 41.3724 26.122 40.9794 26.335C40.5911 26.5434 40.2834 26.8346 40.0561 27.2086C39.8288 27.5779 39.7152 27.9993 39.7152 28.4728V35.1348H37.5916ZM46.9418 39.2257C46.6245 39.2257 46.3357 39.1996 46.0753 39.1475C45.8149 39.1002 45.6207 39.0481 45.4929 38.9913L46.0043 37.2512C46.3925 37.3554 46.7382 37.4004 47.0412 37.3862C47.3442 37.372 47.6117 37.2583 47.8438 37.0453C48.0805 36.8322 48.2888 36.4842 48.4688 36.0012L48.7315 35.2768L44.7401 24.2257H47.0128L49.7756 32.6916H49.8892L52.652 24.2257H54.9318L50.4361 36.5907C50.2277 37.1589 49.9626 37.6395 49.6406 38.0325C49.3187 38.4302 48.9351 38.7285 48.4901 38.9274C48.045 39.1262 47.5289 39.2257 46.9418 39.2257ZM64.5856 20.5893V35.1348H62.391V20.5893H64.5856ZM72.7035 24.2257V25.9302H66.7447V24.2257H72.7035ZM68.3427 21.612H70.4663V31.9316C70.4663 32.3436 70.5278 32.6537 70.6509 32.862C70.774 33.0656 70.9326 33.2053 71.1268 33.2811C71.3256 33.3521 71.5411 33.3876 71.7731 33.3876C71.9435 33.3876 72.0927 33.3758 72.2205 33.3521C72.3484 33.3284 72.4478 33.3095 72.5188 33.2953L72.9023 35.0495C72.7792 35.0969 72.604 35.1442 72.3768 35.1916C72.1495 35.2437 71.8654 35.2721 71.5245 35.2768C70.9658 35.2863 70.445 35.1868 69.962 34.9785C69.479 34.7702 69.0884 34.4482 68.7901 34.0126C68.4918 33.577 68.3427 33.0301 68.3427 32.372V21.612ZM80.516 35.1348V20.5893H85.7006C86.8275 20.5893 87.7627 20.7834 88.506 21.1717C89.2541 21.56 89.8129 22.0974 90.1822 22.7839C90.5515 23.4657 90.7362 24.2541 90.7362 25.149C90.7362 26.0391 90.5491 26.8227 90.1751 27.4998C89.8058 28.1722 89.247 28.6954 88.4989 29.0694C87.7556 29.4435 86.8204 29.6305 85.6935 29.6305H81.766V27.7413H85.4947C86.2049 27.7413 86.7826 27.6395 87.2276 27.4359C87.6774 27.2323 88.0065 26.9364 88.2148 26.5481C88.4232 26.1599 88.5273 25.6935 88.5273 25.149C88.5273 24.5997 88.4208 24.1239 88.2077 23.7214C87.9994 23.319 87.6703 23.0112 87.2205 22.7981C86.7754 22.5803 86.1907 22.4714 85.4663 22.4714H82.7106V35.1348H80.516ZM87.6964 28.5723L91.2901 35.1348H88.7901L85.2674 28.5723H87.6964ZM93.2362 35.1348V24.2257H95.3597V35.1348H93.2362ZM94.3086 22.5424C93.9393 22.5424 93.622 22.4193 93.3569 22.1731C93.0965 21.9222 92.9663 21.6239 92.9663 21.2782C92.9663 20.9279 93.0965 20.6296 93.3569 20.3833C93.622 20.1324 93.9393 20.0069 94.3086 20.0069C94.6779 20.0069 94.9928 20.1324 95.2532 20.3833C95.5183 20.6296 95.6509 20.9279 95.6509 21.2782C95.6509 21.6239 95.5183 21.9222 95.2532 22.1731C94.9928 22.4193 94.6779 22.5424 94.3086 22.5424ZM106.391 26.889L104.467 27.2299C104.386 26.9837 104.258 26.7493 104.083 26.5268C103.913 26.3043 103.681 26.122 103.387 25.9799C103.094 25.8379 102.727 25.7669 102.286 25.7669C101.685 25.7669 101.183 25.9018 100.781 26.1717C100.378 26.4368 100.177 26.7801 100.177 27.2015C100.177 27.5661 100.312 27.8597 100.582 28.0822C100.852 28.3047 101.287 28.487 101.888 28.6291L103.621 29.0268C104.625 29.2588 105.373 29.6163 105.866 30.0993C106.358 30.5822 106.604 31.2096 106.604 31.9814C106.604 32.6348 106.415 33.2172 106.036 33.7285C105.662 34.2351 105.139 34.6329 104.467 34.9217C103.799 35.2105 103.025 35.3549 102.144 35.3549C100.923 35.3549 99.9259 35.0945 99.1541 34.5737C98.3823 34.0481 97.9089 33.3024 97.7337 32.3365L99.7862 32.024C99.9141 32.559 100.177 32.9638 100.575 33.2385C100.972 33.5083 101.491 33.6433 102.13 33.6433C102.826 33.6433 103.382 33.4989 103.799 33.21C104.216 32.9165 104.424 32.559 104.424 32.1376C104.424 31.7967 104.296 31.5102 104.04 31.2782C103.79 31.0462 103.404 30.871 102.883 30.7527L101.036 30.3478C100.018 30.1158 99.2654 29.7465 98.7777 29.2399C98.2947 28.7333 98.0533 28.0917 98.0533 27.3152C98.0533 26.6712 98.2332 26.1078 98.593 25.6248C98.9529 25.1419 99.45 24.7654 100.085 24.4956C100.719 24.2209 101.446 24.0836 102.265 24.0836C103.444 24.0836 104.372 24.3393 105.049 24.8507C105.726 25.3573 106.174 26.0368 106.391 26.889ZM110.892 31.4345L110.878 28.8422H111.248L115.594 24.2257H118.137L113.179 29.4814H112.846L110.892 31.4345ZM108.939 35.1348V20.5893H111.063V35.1348H108.939ZM115.828 35.1348L111.922 29.9501L113.385 28.4657L118.435 35.1348H115.828ZM125.757 28.068V29.9075H119.309V28.068H125.757ZM128.758 35.1348V20.5893H137.778V22.4785H130.953V26.9103H137.132V28.7924H130.953V35.1348H128.758ZM140.17 35.1348V24.2257H142.222V25.9586H142.336C142.535 25.3715 142.885 24.9099 143.387 24.5737C143.894 24.2328 144.467 24.0623 145.106 24.0623C145.238 24.0623 145.395 24.0671 145.575 24.0765C145.759 24.086 145.904 24.0978 146.008 24.112V26.1433C145.923 26.1196 145.771 26.0936 145.553 26.0652C145.335 26.032 145.118 26.0154 144.9 26.0154C144.398 26.0154 143.951 26.122 143.558 26.335C143.169 26.5434 142.862 26.8346 142.634 27.2086C142.407 27.5779 142.293 27.9993 142.293 28.4728V35.1348H140.17ZM152.157 35.3549C151.082 35.3549 150.156 35.1253 149.38 34.666C148.608 34.202 148.011 33.551 147.59 32.7129C147.173 31.8701 146.965 30.8829 146.965 29.7512C146.965 28.6338 147.173 27.649 147.59 26.7967C148.011 25.9444 148.598 25.2792 149.351 24.801C150.109 24.3227 150.994 24.0836 152.007 24.0836C152.623 24.0836 153.22 24.1854 153.797 24.389C154.375 24.5926 154.893 24.9122 155.353 25.3478C155.812 25.7834 156.174 26.3493 156.439 27.0453C156.704 27.7366 156.837 28.577 156.837 29.5666V30.3194H148.165V28.7285H154.756C154.756 28.1698 154.642 27.675 154.415 27.2441C154.188 26.8085 153.868 26.4653 153.456 26.2143C153.049 25.9634 152.571 25.8379 152.022 25.8379C151.425 25.8379 150.904 25.9847 150.459 26.2782C150.019 26.5671 149.678 26.9458 149.436 27.4146C149.2 27.8786 149.081 28.3829 149.081 28.9274V30.1703C149.081 30.8994 149.209 31.5197 149.465 32.0311C149.725 32.5424 150.087 32.9331 150.551 33.2029C151.016 33.4681 151.558 33.6007 152.178 33.6007C152.58 33.6007 152.947 33.5439 153.279 33.4302C153.61 33.3118 153.897 33.1367 154.138 32.9047C154.38 32.6726 154.564 32.3862 154.692 32.0453L156.702 32.4075C156.541 32.9993 156.252 33.5178 155.836 33.9629C155.424 34.4032 154.905 34.7465 154.28 34.9927C153.66 35.2342 152.952 35.3549 152.157 35.3549ZM163.895 35.3549C162.82 35.3549 161.894 35.1253 161.118 34.666C160.346 34.202 159.75 33.551 159.328 32.7129C158.911 31.8701 158.703 30.8829 158.703 29.7512C158.703 28.6338 158.911 27.649 159.328 26.7967C159.75 25.9444 160.337 25.2792 161.089 24.801C161.847 24.3227 162.732 24.0836 163.746 24.0836C164.361 24.0836 164.958 24.1854 165.536 24.389C166.113 24.5926 166.632 24.9122 167.091 25.3478C167.55 25.7834 167.912 26.3493 168.178 27.0453C168.443 27.7366 168.575 28.577 168.575 29.5666V30.3194H159.903V28.7285H166.494C166.494 28.1698 166.381 27.675 166.153 27.2441C165.926 26.8085 165.607 26.4653 165.195 26.2143C164.787 25.9634 164.309 25.8379 163.76 25.8379C163.163 25.8379 162.643 25.9847 162.197 26.2782C161.757 26.5671 161.416 26.9458 161.175 27.4146C160.938 27.8786 160.82 28.3829 160.82 28.9274V30.1703C160.82 30.8994 160.947 31.5197 161.203 32.0311C161.464 32.5424 161.826 32.9331 162.29 33.2029C162.754 33.4681 163.296 33.6007 163.916 33.6007C164.319 33.6007 164.686 33.5439 165.017 33.4302C165.348 33.3118 165.635 33.1367 165.876 32.9047C166.118 32.6726 166.303 32.3862 166.43 32.0453L168.44 32.4075C168.279 32.9993 167.991 33.5178 167.574 33.9629C167.162 34.4032 166.643 34.7465 166.018 34.9927C165.398 35.2342 164.69 35.3549 163.895 35.3549Z" fill="white"/>
<defs>
<linearGradient id="paint0_linear_625_2560" x1="97.2709" y1="0" x2="97.2709" y2="56.2709" gradientUnits="userSpaceOnUse">
<stop stop-color="#032E15"/>
<stop offset="1" stop-color="#016630"/>
</linearGradient>
</defs>
</svg>
