<svg width="216" height="88" viewBox="0 0 216 88" fill="none" xmlns="http://www.w3.org/2000/svg">
<path d="M76.4712 0.610972C77.9674 0.610972 79.4068 0.861919 80.7894 1.36381C82.1814 1.86571 83.422 2.6659 84.511 3.76438C85.6095 4.86287 86.4759 6.3212 87.1104 8.13938C87.7544 9.94809 88.0811 12.1687 88.0905 14.8013C88.0905 17.2729 87.8112 19.4793 87.2525 21.4206C86.7032 23.3525 85.9125 24.9954 84.8803 26.3496C83.8481 27.7038 82.6028 28.736 81.1445 29.4462C79.6862 30.147 78.0574 30.4973 76.2581 30.4973C74.3169 30.4973 72.6028 30.1233 71.1161 29.3752C69.6294 28.6176 68.4314 27.5901 67.5224 26.2928C66.6227 24.986 66.0782 23.5182 65.8888 21.8894H71.9542C72.1909 22.95 72.6881 23.7739 73.4456 24.361C74.2032 24.9386 75.1407 25.2275 76.2581 25.2275C78.1521 25.2275 79.5915 24.4036 80.5763 22.7559C81.5612 21.0987 82.0583 18.8307 82.0678 15.9519H81.8689C81.4333 16.8042 80.8462 17.5381 80.1076 18.1536C79.3689 18.7596 78.5214 19.2284 77.565 19.5598C76.618 19.8913 75.6095 20.057 74.5394 20.057C72.8254 20.057 71.296 19.6545 69.9513 18.8496C68.6066 18.0447 67.546 16.9367 66.7695 15.5257C65.993 14.1148 65.6047 12.5049 65.6047 10.6962C65.5953 8.74544 66.0451 7.00775 66.9542 5.48313C67.8633 3.95851 69.1322 2.76533 70.761 1.90359C72.3992 1.03237 74.3027 0.601502 76.4712 0.610972ZM76.5138 5.44052C75.5574 5.44052 74.7051 5.66779 73.957 6.12234C73.2184 6.57688 72.6313 7.18768 72.1956 7.95472C71.7695 8.72177 71.5612 9.57877 71.5706 10.5257C71.5706 11.4822 71.779 12.3439 72.1956 13.111C72.6218 13.8685 73.1994 14.4746 73.9286 14.9292C74.6672 15.3742 75.51 15.5968 76.457 15.5968C77.1672 15.5968 77.8254 15.4642 78.4314 15.199C79.0375 14.9339 79.5631 14.5693 80.0081 14.1053C80.4627 13.6318 80.8178 13.0873 81.0735 12.4718C81.3292 11.8562 81.457 11.2028 81.457 10.5115C81.4475 9.59298 81.2297 8.75018 80.8036 7.98313C80.3775 7.21609 79.7903 6.60056 79.0422 6.13654C78.2941 5.67252 77.4513 5.44052 76.5138 5.44052ZM103.758 30.7388C101.315 30.7293 99.2127 30.128 97.4513 28.9348C95.6994 27.7417 94.35 26.0134 93.403 23.7502C92.4655 21.4869 92.0015 18.7644 92.011 15.5826C92.011 12.4102 92.4797 9.70662 93.4172 7.47177C94.3642 5.23692 95.7136 3.53711 97.4655 2.37234C99.2269 1.19809 101.324 0.610972 103.758 0.610972C106.192 0.610972 108.285 1.19809 110.037 2.37234C111.798 3.54658 113.152 5.25112 114.099 7.48597C115.046 9.71135 115.515 12.4102 115.505 15.5826C115.505 18.7739 115.032 21.5011 114.085 23.7644C113.147 26.0276 111.803 27.7559 110.051 28.949C108.299 30.1422 106.201 30.7388 103.758 30.7388ZM103.758 25.6394C105.425 25.6394 106.755 24.8013 107.75 23.1252C108.744 21.449 109.236 18.9348 109.227 15.5826C109.227 13.3761 109 11.539 108.545 10.0712C108.1 8.6034 107.466 7.50018 106.642 6.76154C105.827 6.0229 104.866 5.65359 103.758 5.65359C102.101 5.65359 100.775 6.48219 99.7809 8.13938C98.7866 9.79658 98.2847 12.2776 98.2752 15.5826C98.2752 17.8174 98.4977 19.6829 98.9428 21.1792C99.3974 22.6659 100.037 23.7833 100.86 24.5314C101.684 25.2701 102.65 25.6394 103.758 25.6394ZM135.814 24.6451V23.111C135.814 21.9462 136.06 20.8761 136.553 19.9007C137.055 18.9159 137.779 18.1299 138.726 17.5428C139.683 16.9462 140.847 16.6479 142.221 16.6479C143.613 16.6479 144.782 16.9415 145.729 17.5286C146.685 18.1157 147.405 18.9017 147.888 19.8865C148.381 20.8619 148.627 21.9367 148.627 23.111V24.6451C148.627 25.8098 148.381 26.8846 147.888 27.8695C147.396 28.8449 146.671 29.6261 145.715 30.2132C144.758 30.8098 143.594 31.1081 142.221 31.1081C140.828 31.1081 139.659 30.8098 138.712 30.2132C137.765 29.6261 137.045 28.8449 136.553 27.8695C136.06 26.8846 135.814 25.8098 135.814 24.6451ZM139.948 23.111V24.6451C139.948 25.3174 140.109 25.9519 140.431 26.5485C140.762 27.1451 141.359 27.4434 142.221 27.4434C143.082 27.4434 143.669 27.1498 143.982 26.5627C144.304 25.9756 144.465 25.3364 144.465 24.6451V23.111C144.465 22.4197 144.313 21.7757 144.01 21.1792C143.707 20.5826 143.111 20.2843 142.221 20.2843C141.368 20.2843 140.776 20.5826 140.445 21.1792C140.113 21.7757 139.948 22.4197 139.948 23.111ZM120.885 7.99734V6.46324C120.885 5.289 121.136 4.21419 121.638 3.23881C122.14 2.25396 122.864 1.46798 123.811 0.880859C124.768 0.293738 125.923 0.000176907 127.277 0.000176907C128.679 0.000176907 129.853 0.293738 130.8 0.880859C131.747 1.46798 132.467 2.25396 132.959 3.23881C133.452 4.21419 133.698 5.289 133.698 6.46324V7.99734C133.698 9.17158 133.447 10.2464 132.945 11.2218C132.453 12.1971 131.728 12.9784 130.772 13.5655C129.825 14.1432 128.66 14.432 127.277 14.432C125.895 14.432 124.725 14.1384 123.769 13.5513C122.822 12.9547 122.102 12.1735 121.61 11.2076C121.127 10.2322 120.885 9.16211 120.885 7.99734ZM125.047 6.46324V7.99734C125.047 8.68862 125.208 9.32783 125.53 9.91495C125.862 10.5021 126.444 10.7956 127.277 10.7956C128.149 10.7956 128.74 10.5021 129.053 9.91495C129.375 9.32783 129.536 8.68862 129.536 7.99734V6.46324C129.536 5.77196 129.384 5.12802 129.081 4.53143C128.778 3.93484 128.177 3.63654 127.277 3.63654C126.435 3.63654 125.852 3.93957 125.53 4.54563C125.208 5.15169 125.047 5.7909 125.047 6.46324ZM122.76 30.0996L142.76 1.0087H146.482L126.482 30.0996H122.76Z" fill="white"/>
<path d="M5.70737 64.3145V52.6781H6.76987V63.3599H12.3153V64.3145H5.70737ZM17.8892 64.4963C17.1354 64.4963 16.4687 64.305 15.8892 63.9224C15.3134 63.5398 14.8627 63.0114 14.5369 62.3372C14.2112 61.6592 14.0483 60.877 14.0483 59.9906C14.0483 59.0966 14.2112 58.3107 14.5369 57.6326C14.8627 56.9508 15.3134 56.4205 15.8892 56.0417C16.4687 55.6591 17.1354 55.4679 17.8892 55.4679C18.643 55.4679 19.3077 55.6591 19.8835 56.0417C20.4593 56.4243 20.91 56.9546 21.2358 57.6326C21.5653 58.3107 21.7301 59.0966 21.7301 59.9906C21.7301 60.877 21.5672 61.6592 21.2415 62.3372C20.9157 63.0114 20.463 63.5398 19.8835 63.9224C19.3077 64.305 18.643 64.4963 17.8892 64.4963ZM17.8892 63.5701C18.4952 63.5701 19.0085 63.4073 19.429 63.0815C19.8494 62.7557 20.1676 62.322 20.3835 61.7804C20.6032 61.2387 20.713 60.6421 20.713 59.9906C20.713 59.3391 20.6032 58.7406 20.3835 58.1951C20.1676 57.6497 19.8494 57.2122 19.429 56.8826C19.0085 56.5531 18.4952 56.3883 17.8892 56.3883C17.2869 56.3883 16.7737 56.5531 16.3494 56.8826C15.929 57.2122 15.6089 57.6497 15.3892 58.1951C15.1733 58.7406 15.0653 59.3391 15.0653 59.9906C15.0653 60.6421 15.1733 61.2387 15.3892 61.7804C15.6089 62.322 15.929 62.7557 16.3494 63.0815C16.7699 63.4073 17.2831 63.5701 17.8892 63.5701ZM23.9503 64.3145V55.5872H24.9332V56.9281H25.0071C25.1813 56.4887 25.4844 56.1345 25.9162 55.8656C26.3518 55.5929 26.8442 55.4565 27.3934 55.4565C27.4768 55.4565 27.5696 55.4584 27.6719 55.4622C27.7741 55.466 27.8594 55.4698 27.9275 55.4735V56.502C27.8821 56.4944 27.8025 56.483 27.6889 56.4679C27.5753 56.4527 27.4522 56.4451 27.3196 56.4451C26.865 56.4451 26.4597 56.5417 26.1037 56.7349C25.7514 56.9243 25.473 57.1876 25.2684 57.5247C25.0639 57.8618 24.9616 58.2463 24.9616 58.6781V64.3145H23.9503ZM32.9162 64.4963C32.1018 64.4963 31.3972 64.3069 30.8025 63.9281C30.2078 63.5455 29.7476 63.0171 29.4219 62.3429C29.0999 61.6648 28.9389 60.8845 28.9389 60.002C28.9389 59.1232 29.0999 58.3429 29.4219 57.661C29.7476 56.9754 30.1965 56.4395 30.7684 56.0531C31.3442 55.6629 32.009 55.4679 32.7628 55.4679C33.2362 55.4679 33.6927 55.555 34.1321 55.7292C34.5715 55.8997 34.9654 56.1629 35.3139 56.519C35.6662 56.8713 35.9446 57.3163 36.1491 57.8542C36.3537 58.3883 36.4559 59.0209 36.4559 59.752V60.252H29.6378V59.3599H35.4219C35.4219 58.7993 35.3082 58.2955 35.0809 57.8485C34.8575 57.3978 34.545 57.0417 34.1434 56.7804C33.7457 56.519 33.2855 56.3883 32.7628 56.3883C32.2097 56.3883 31.723 56.536 31.3025 56.8315C30.8821 57.127 30.5525 57.5171 30.3139 58.002C30.0791 58.4868 29.9597 59.0171 29.9559 59.5929V60.127C29.9559 60.8201 30.0753 61.4262 30.3139 61.9451C30.5563 62.4603 30.8991 62.8599 31.3423 63.144C31.7855 63.4281 32.3101 63.5701 32.9162 63.5701C33.3291 63.5701 33.6908 63.5057 34.0014 63.377C34.3158 63.2482 34.5791 63.0758 34.7912 62.8599C35.0071 62.6402 35.17 62.3997 35.2798 62.1383L36.24 62.4508C36.1075 62.8182 35.8897 63.1573 35.5866 63.4679C35.2874 63.7785 34.9124 64.0285 34.4616 64.2179C34.0147 64.4035 33.4995 64.4963 32.9162 64.4963ZM38.6846 64.3145V55.5872H39.6676V56.9281H39.7585C39.9327 56.4773 40.2225 56.1232 40.6278 55.8656C41.0369 55.6042 41.5274 55.4735 42.0994 55.4735C42.7017 55.4735 43.196 55.6156 43.5824 55.8997C43.9725 56.18 44.2642 56.5663 44.4574 57.0588H44.5312C44.7282 56.5739 45.0483 56.1895 45.4915 55.9054C45.9384 55.6175 46.4801 55.4735 47.1165 55.4735C47.9271 55.4735 48.5672 55.7292 49.0369 56.2406C49.5066 56.7482 49.7415 57.4906 49.7415 58.4679V64.3145H48.7301V58.4679C48.7301 57.7785 48.554 57.2614 48.2017 56.9167C47.8494 56.572 47.3854 56.3997 46.8096 56.3997C46.143 56.3997 45.6297 56.6042 45.2699 57.0133C44.91 57.4224 44.7301 57.9413 44.7301 58.5701V64.3145H43.696V58.377C43.696 57.786 43.5312 57.3088 43.2017 56.9451C42.8721 56.5815 42.4081 56.3997 41.8096 56.3997C41.4081 56.3997 41.0464 56.4982 40.7244 56.6951C40.4062 56.8921 40.1543 57.1667 39.9687 57.519C39.7869 57.8675 39.696 58.269 39.696 58.7235V64.3145H38.6846ZM56.9304 64.3145V55.5872H57.9474V64.3145H56.9304ZM57.4474 54.0872C57.2391 54.0872 57.0611 54.0171 56.9133 53.877C56.7656 53.733 56.6917 53.5607 56.6917 53.3599C56.6917 53.1591 56.7656 52.9887 56.9133 52.8485C57.0611 52.7046 57.2391 52.6326 57.4474 52.6326C57.6558 52.6326 57.8338 52.7046 57.9815 52.8485C58.1292 52.9887 58.2031 53.1591 58.2031 53.3599C58.2031 53.5607 58.1292 53.733 57.9815 53.877C57.8338 54.0171 57.6558 54.0872 57.4474 54.0872ZM60.6221 67.5872V55.5872H61.6051V57.252H61.7244C61.8456 56.9906 62.0123 56.7235 62.2244 56.4508C62.4365 56.1743 62.7168 55.9413 63.0653 55.752C63.4176 55.5626 63.8608 55.4679 64.3949 55.4679C65.1146 55.4679 65.7434 55.6573 66.2812 56.036C66.8229 56.411 67.2434 56.9376 67.5426 57.6156C67.8456 58.2898 67.9971 59.0758 67.9971 59.9735C67.9971 60.8751 67.8456 61.6648 67.5426 62.3429C67.2434 63.0209 66.8229 63.5493 66.2812 63.9281C65.7434 64.3069 65.1184 64.4963 64.4062 64.4963C63.8797 64.4963 63.4384 64.4016 63.0824 64.2122C62.7301 64.0228 62.4441 63.7898 62.2244 63.5133C62.0085 63.233 61.8418 62.9603 61.7244 62.6951H61.6335V67.5872H60.6221ZM61.6221 59.9565C61.6221 60.661 61.7263 61.286 61.9346 61.8315C62.1468 62.3732 62.4498 62.7993 62.8437 63.1099C63.2415 63.4167 63.7225 63.5701 64.2869 63.5701C64.8665 63.5701 65.3551 63.411 65.7528 63.0929C66.1543 62.7709 66.4593 62.3372 66.6676 61.7917C66.8797 61.2463 66.9858 60.6345 66.9858 59.9565C66.9858 59.286 66.8816 58.6819 66.6733 58.144C66.4687 57.6061 66.1657 57.18 65.7642 56.8656C65.3627 56.5474 64.8702 56.3883 64.2869 56.3883C63.7187 56.3883 63.2358 56.5417 62.838 56.8485C62.4403 57.1516 62.1373 57.572 61.929 58.1099C61.7244 58.644 61.6221 59.2595 61.6221 59.9565ZM76.0795 57.502L75.1534 57.7633C75.0625 57.502 74.9337 57.2652 74.767 57.0531C74.6004 56.841 74.3826 56.6724 74.1136 56.5474C73.8485 56.4224 73.5189 56.3599 73.125 56.3599C72.5341 56.3599 72.0492 56.5001 71.6704 56.7804C71.2916 57.0607 71.1023 57.4224 71.1023 57.8656C71.1023 58.2406 71.231 58.5455 71.4886 58.7804C71.75 59.0114 72.1515 59.1951 72.6932 59.3315L74.0113 59.6554C74.7424 59.8334 75.2898 60.1156 75.6534 60.502C76.0208 60.8883 76.2045 61.3732 76.2045 61.9565C76.2045 62.4489 76.0682 62.8864 75.7954 63.269C75.5227 63.6516 75.142 63.9527 74.6534 64.1724C74.1685 64.3883 73.606 64.4963 72.9659 64.4963C72.1136 64.4963 71.411 64.305 70.8579 63.9224C70.3049 63.536 69.9507 62.9792 69.7954 62.252L70.767 62.0133C70.892 62.5323 71.1363 62.9243 71.5 63.1895C71.8674 63.4546 72.3504 63.5872 72.9488 63.5872C73.6193 63.5872 74.1553 63.4376 74.5568 63.1383C74.9583 62.8353 75.1591 62.4565 75.1591 62.002C75.1591 61.6497 75.0416 61.3542 74.8068 61.1156C74.5719 60.8732 74.2159 60.6951 73.7386 60.5815L72.3125 60.2406C71.5549 60.0588 70.9943 59.7709 70.6307 59.377C70.267 58.983 70.0852 58.4944 70.0852 57.911C70.0852 57.43 70.2159 57.0076 70.4773 56.644C70.7386 56.2766 71.0985 55.9887 71.5568 55.7804C72.0151 55.572 72.5379 55.4679 73.125 55.4679C73.9242 55.4679 74.5625 55.6497 75.0398 56.0133C75.5208 56.3732 75.8674 56.8694 76.0795 57.502ZM83.9645 60.9792V55.5872H84.9758V64.3145H83.9645V62.8656H83.8849C83.6804 63.3126 83.3565 63.6857 82.9133 63.9849C82.4701 64.2804 81.9285 64.4281 81.2883 64.4281C80.7315 64.4281 80.2372 64.3069 79.8054 64.0645C79.3736 63.8182 79.0345 63.4584 78.7883 62.9849C78.5421 62.5114 78.419 61.93 78.419 61.2406V55.5872H79.4304V61.1781C79.4304 61.8599 79.6311 62.4092 80.0326 62.8258C80.4342 63.2387 80.9493 63.4451 81.5781 63.4451C81.972 63.4451 82.3508 63.3504 82.7145 63.161C83.0781 62.9717 83.3773 62.6951 83.6122 62.3315C83.847 61.9641 83.9645 61.5133 83.9645 60.9792ZM87.6534 64.3145V55.5872H88.6363V56.9281H88.7273C88.9015 56.4773 89.1913 56.1232 89.5966 55.8656C90.0057 55.6042 90.4962 55.4735 91.0682 55.4735C91.6704 55.4735 92.1648 55.6156 92.5511 55.8997C92.9413 56.18 93.2329 56.5663 93.4261 57.0588H93.5C93.6969 56.5739 94.017 56.1895 94.4602 55.9054C94.9072 55.6175 95.4488 55.4735 96.0852 55.4735C96.8958 55.4735 97.536 55.7292 98.0057 56.2406C98.4754 56.7482 98.7102 57.4906 98.7102 58.4679V64.3145H97.6988V58.4679C97.6988 57.7785 97.5227 57.2614 97.1704 56.9167C96.8182 56.572 96.3541 56.3997 95.7784 56.3997C95.1117 56.3997 94.5985 56.6042 94.2386 57.0133C93.8788 57.4224 93.6988 57.9413 93.6988 58.5701V64.3145H92.6648V58.377C92.6648 57.786 92.5 57.3088 92.1704 56.9451C91.8409 56.5815 91.3769 56.3997 90.7784 56.3997C90.3769 56.3997 90.0151 56.4982 89.6932 56.6951C89.375 56.8921 89.1231 57.1667 88.9375 57.519C88.7557 57.8675 88.6648 58.269 88.6648 58.7235V64.3145H87.6534ZM109.03 64.4963C108.314 64.4963 107.687 64.3069 107.149 63.9281C106.611 63.5493 106.191 63.0209 105.888 62.3429C105.589 61.6648 105.439 60.8751 105.439 59.9735C105.439 59.0758 105.589 58.2898 105.888 57.6156C106.191 56.9376 106.613 56.411 107.155 56.036C107.696 55.6573 108.327 55.4679 109.047 55.4679C109.577 55.4679 110.018 55.5626 110.371 55.752C110.723 55.9376 111.005 56.1686 111.217 56.4451C111.429 56.7216 111.594 56.9906 111.712 57.252H111.803V52.6781H112.82V64.3145H111.831V62.6951H111.712C111.594 62.9603 111.428 63.233 111.212 63.5133C110.996 63.7898 110.71 64.0228 110.354 64.2122C110.001 64.4016 109.56 64.4963 109.03 64.4963ZM109.149 63.5701C109.714 63.5701 110.195 63.4167 110.592 63.1099C110.99 62.7993 111.293 62.3732 111.501 61.8315C111.714 61.286 111.82 60.661 111.82 59.9565C111.82 59.2595 111.715 58.644 111.507 58.1099C111.299 57.572 110.996 57.1516 110.598 56.8485C110.2 56.5417 109.717 56.3883 109.149 56.3883C108.566 56.3883 108.073 56.5474 107.672 56.8656C107.274 57.18 106.971 57.6061 106.763 58.144C106.558 58.6819 106.456 59.286 106.456 59.9565C106.456 60.6345 106.56 61.2463 106.768 61.7917C106.977 62.3372 107.28 62.7709 107.678 63.0929C108.079 63.411 108.57 63.5701 109.149 63.5701ZM119.092 64.4963C118.339 64.4963 117.672 64.305 117.092 63.9224C116.517 63.5398 116.066 63.0114 115.74 62.3372C115.414 61.6592 115.251 60.877 115.251 59.9906C115.251 59.0966 115.414 58.3107 115.74 57.6326C116.066 56.9508 116.517 56.4205 117.092 56.0417C117.672 55.6591 118.339 55.4679 119.092 55.4679C119.846 55.4679 120.511 55.6591 121.087 56.0417C121.662 56.4243 122.113 56.9546 122.439 57.6326C122.768 58.3107 122.933 59.0966 122.933 59.9906C122.933 60.877 122.77 61.6592 122.445 62.3372C122.119 63.0114 121.666 63.5398 121.087 63.9224C120.511 64.305 119.846 64.4963 119.092 64.4963ZM119.092 63.5701C119.698 63.5701 120.212 63.4073 120.632 63.0815C121.053 62.7557 121.371 62.322 121.587 61.7804C121.806 61.2387 121.916 60.6421 121.916 59.9906C121.916 59.3391 121.806 58.7406 121.587 58.1951C121.371 57.6497 121.053 57.2122 120.632 56.8826C120.212 56.5531 119.698 56.3883 119.092 56.3883C118.49 56.3883 117.977 56.5531 117.553 56.8826C117.132 57.2122 116.812 57.6497 116.592 58.1951C116.376 58.7406 116.268 59.3391 116.268 59.9906C116.268 60.6421 116.376 61.2387 116.592 61.7804C116.812 62.322 117.132 62.7557 117.553 63.0815C117.973 63.4073 118.486 63.5701 119.092 63.5701ZM126.165 52.6781V64.3145H125.153V52.6781H126.165ZM132.233 64.4963C131.479 64.4963 130.812 64.305 130.233 63.9224C129.657 63.5398 129.206 63.0114 128.881 62.3372C128.555 61.6592 128.392 60.877 128.392 59.9906C128.392 59.0966 128.555 58.3107 128.881 57.6326C129.206 56.9508 129.657 56.4205 130.233 56.0417C130.812 55.6591 131.479 55.4679 132.233 55.4679C132.987 55.4679 133.651 55.6591 134.227 56.0417C134.803 56.4243 135.254 56.9546 135.58 57.6326C135.909 58.3107 136.074 59.0966 136.074 59.9906C136.074 60.877 135.911 61.6592 135.585 62.3372C135.259 63.0114 134.807 63.5398 134.227 63.9224C133.651 64.305 132.987 64.4963 132.233 64.4963ZM132.233 63.5701C132.839 63.5701 133.352 63.4073 133.773 63.0815C134.193 62.7557 134.511 62.322 134.727 61.7804C134.947 61.2387 135.057 60.6421 135.057 59.9906C135.057 59.3391 134.947 58.7406 134.727 58.1951C134.511 57.6497 134.193 57.2122 133.773 56.8826C133.352 56.5531 132.839 56.3883 132.233 56.3883C131.631 56.3883 131.117 56.5531 130.693 56.8826C130.273 57.2122 129.953 57.6497 129.733 58.1951C129.517 58.7406 129.409 59.3391 129.409 59.9906C129.409 60.6421 129.517 61.2387 129.733 61.7804C129.953 62.322 130.273 62.7557 130.693 63.0815C131.114 63.4073 131.627 63.5701 132.233 63.5701ZM138.294 64.3145V55.5872H139.277V56.9281H139.351C139.525 56.4887 139.828 56.1345 140.26 55.8656C140.696 55.5929 141.188 55.4565 141.737 55.4565C141.821 55.4565 141.913 55.4584 142.016 55.4622C142.118 55.466 142.203 55.4698 142.271 55.4735V56.502C142.226 56.4944 142.146 56.483 142.033 56.4679C141.919 56.4527 141.796 56.4451 141.663 56.4451C141.209 56.4451 140.803 56.5417 140.447 56.7349C140.095 56.9243 139.817 57.1876 139.612 57.5247C139.408 57.8618 139.305 58.2463 139.305 58.6781V64.3145H138.294ZM154.361 57.502L153.435 57.7633C153.344 57.502 153.215 57.2652 153.048 57.0531C152.882 56.841 152.664 56.6724 152.395 56.5474C152.13 56.4224 151.8 56.3599 151.406 56.3599C150.815 56.3599 150.33 56.5001 149.952 56.7804C149.573 57.0607 149.384 57.4224 149.384 57.8656C149.384 58.2406 149.512 58.5455 149.77 58.7804C150.031 59.0114 150.433 59.1951 150.974 59.3315L152.293 59.6554C153.024 59.8334 153.571 60.1156 153.935 60.502C154.302 60.8883 154.486 61.3732 154.486 61.9565C154.486 62.4489 154.349 62.8864 154.077 63.269C153.804 63.6516 153.423 63.9527 152.935 64.1724C152.45 64.3883 151.887 64.4963 151.247 64.4963C150.395 64.4963 149.692 64.305 149.139 63.9224C148.586 63.536 148.232 62.9792 148.077 62.252L149.048 62.0133C149.173 62.5323 149.418 62.9243 149.781 63.1895C150.149 63.4546 150.632 63.5872 151.23 63.5872C151.901 63.5872 152.437 63.4376 152.838 63.1383C153.24 62.8353 153.44 62.4565 153.44 62.002C153.44 61.6497 153.323 61.3542 153.088 61.1156C152.853 60.8732 152.497 60.6951 152.02 60.5815L150.594 60.2406C149.836 60.0588 149.276 59.7709 148.912 59.377C148.548 58.983 148.366 58.4944 148.366 57.911C148.366 57.43 148.497 57.0076 148.759 56.644C149.02 56.2766 149.38 55.9887 149.838 55.7804C150.296 55.572 150.819 55.4679 151.406 55.4679C152.205 55.4679 152.844 55.6497 153.321 56.0133C153.802 56.3732 154.149 56.8694 154.361 57.502ZM156.712 64.3145V55.5872H157.729V64.3145H156.712ZM157.229 54.0872C157.02 54.0872 156.842 54.0171 156.695 53.877C156.547 53.733 156.473 53.5607 156.473 53.3599C156.473 53.1591 156.547 52.9887 156.695 52.8485C156.842 52.7046 157.02 52.6326 157.229 52.6326C157.437 52.6326 157.615 52.7046 157.763 52.8485C157.91 52.9887 157.984 53.1591 157.984 53.3599C157.984 53.5607 157.91 53.733 157.763 53.877C157.615 54.0171 157.437 54.0872 157.229 54.0872ZM163.841 55.5872V56.4679H159.676V55.5872H163.841ZM160.977 53.4963H161.994V62.036C161.994 62.3997 162.057 62.6857 162.182 62.894C162.307 63.0985 162.47 63.2444 162.67 63.3315C162.871 63.4148 163.085 63.4565 163.312 63.4565C163.445 63.4565 163.559 63.4489 163.653 63.4338C163.748 63.4148 163.831 63.3959 163.903 63.377L164.119 64.2917C164.021 64.3296 163.9 64.3637 163.756 64.394C163.612 64.4281 163.434 64.4451 163.222 64.4451C162.85 64.4451 162.492 64.3637 162.148 64.2008C161.807 64.0379 161.526 63.7955 161.307 63.4735C161.087 63.1516 160.977 62.752 160.977 62.2747V53.4963ZM173.075 64.5133C172.549 64.5133 172.068 64.411 171.632 64.2065C171.196 63.9982 170.85 63.6989 170.592 63.3088C170.335 62.9148 170.206 62.4376 170.206 61.877C170.206 61.4451 170.287 61.0815 170.45 60.786C170.613 60.4906 170.844 60.2482 171.143 60.0588C171.443 59.8694 171.797 59.7198 172.206 59.6099C172.615 59.5001 173.066 59.4148 173.558 59.3542C174.047 59.2936 174.46 59.2406 174.797 59.1951C175.138 59.1497 175.397 59.0777 175.575 58.9792C175.753 58.8807 175.842 58.7217 175.842 58.502V58.2974C175.842 57.7027 175.664 57.2349 175.308 56.894C174.956 56.5493 174.448 56.377 173.785 56.377C173.157 56.377 172.643 56.5152 172.246 56.7917C171.852 57.0682 171.575 57.394 171.416 57.769L170.456 57.4224C170.653 56.9451 170.926 56.5645 171.274 56.2804C171.623 55.9925 172.013 55.786 172.445 55.661C172.876 55.5323 173.314 55.4679 173.757 55.4679C174.09 55.4679 174.437 55.5114 174.797 55.5985C175.16 55.6857 175.498 55.8372 175.808 56.0531C176.119 56.2652 176.371 56.5626 176.564 56.9451C176.757 57.3239 176.854 57.805 176.854 58.3883V64.3145H175.842V62.9338H175.78C175.659 63.1913 175.479 63.4413 175.24 63.6838C175.001 63.9262 174.702 64.1251 174.342 64.2804C173.982 64.4357 173.56 64.5133 173.075 64.5133ZM173.212 63.5872C173.75 63.5872 174.215 63.4679 174.609 63.2292C175.003 62.9906 175.306 62.6743 175.518 62.2804C175.734 61.8826 175.842 61.4451 175.842 60.9679V59.7065C175.767 59.7785 175.64 59.8429 175.462 59.8997C175.287 59.9565 175.085 60.0076 174.854 60.0531C174.626 60.0948 174.399 60.1307 174.172 60.161C173.945 60.1913 173.74 60.2179 173.558 60.2406C173.066 60.3012 172.645 60.3959 172.297 60.5247C171.948 60.6535 171.681 60.8315 171.496 61.0588C171.31 61.2823 171.217 61.5701 171.217 61.9224C171.217 62.4527 171.407 62.8637 171.785 63.1554C172.164 63.4432 172.64 63.5872 173.212 63.5872ZM179.544 64.3145V55.5872H180.527V56.9281H180.618C180.792 56.4773 181.082 56.1232 181.487 55.8656C181.896 55.6042 182.387 55.4735 182.959 55.4735C183.561 55.4735 184.055 55.6156 184.442 55.8997C184.832 56.18 185.124 56.5663 185.317 57.0588H185.391C185.588 56.5739 185.908 56.1895 186.351 55.9054C186.798 55.6175 187.339 55.4735 187.976 55.4735C188.786 55.4735 189.427 55.7292 189.896 56.2406C190.366 56.7482 190.601 57.4906 190.601 58.4679V64.3145H189.589V58.4679C189.589 57.7785 189.413 57.2614 189.061 56.9167C188.709 56.572 188.245 56.3997 187.669 56.3997C187.002 56.3997 186.489 56.6042 186.129 57.0133C185.769 57.4224 185.589 57.9413 185.589 58.5701V64.3145H184.555V58.377C184.555 57.786 184.391 57.3088 184.061 56.9451C183.732 56.5815 183.267 56.3997 182.669 56.3997C182.267 56.3997 181.906 56.4982 181.584 56.6951C181.266 56.8921 181.014 57.1667 180.828 57.519C180.646 57.8675 180.555 58.269 180.555 58.7235V64.3145H179.544ZM196.807 64.4963C195.992 64.4963 195.288 64.3069 194.693 63.9281C194.098 63.5455 193.638 63.0171 193.312 62.3429C192.991 61.6648 192.83 60.8845 192.83 60.002C192.83 59.1232 192.991 58.3429 193.312 57.661C193.638 56.9754 194.087 56.4395 194.659 56.0531C195.235 55.6629 195.9 55.4679 196.653 55.4679C197.127 55.4679 197.583 55.555 198.023 55.7292C198.462 55.8997 198.856 56.1629 199.205 56.519C199.557 56.8713 199.835 57.3163 200.04 57.8542C200.244 58.3883 200.347 59.0209 200.347 59.752V60.252H193.528V59.3599H199.312C199.312 58.7993 199.199 58.2955 198.972 57.8485C198.748 57.3978 198.436 57.0417 198.034 56.7804C197.636 56.519 197.176 56.3883 196.653 56.3883C196.1 56.3883 195.614 56.536 195.193 56.8315C194.773 57.127 194.443 57.5171 194.205 58.002C193.97 58.4868 193.85 59.0171 193.847 59.5929V60.127C193.847 60.8201 193.966 61.4262 194.205 61.9451C194.447 62.4603 194.79 62.8599 195.233 63.144C195.676 63.4281 196.201 63.5701 196.807 63.5701C197.22 63.5701 197.581 63.5057 197.892 63.377C198.206 63.2482 198.47 63.0758 198.682 62.8599C198.898 62.6402 199.061 62.3997 199.17 62.1383L200.131 62.4508C199.998 62.8182 199.78 63.1573 199.477 63.4679C199.178 63.7785 198.803 64.0285 198.352 64.2179C197.905 64.4035 197.39 64.4963 196.807 64.4963ZM206.013 55.5872V56.4679H201.848V55.5872H206.013ZM203.149 53.4963H204.166V62.036C204.166 62.3997 204.229 62.6857 204.354 62.894C204.479 63.0985 204.642 63.2444 204.842 63.3315C205.043 63.4148 205.257 63.4565 205.484 63.4565C205.617 63.4565 205.731 63.4489 205.825 63.4338C205.92 63.4148 206.003 63.3959 206.075 63.377L206.291 64.2917C206.193 64.3296 206.071 64.3637 205.928 64.394C205.784 64.4281 205.606 64.4451 205.393 64.4451C205.022 64.4451 204.664 64.3637 204.32 64.2008C203.979 64.0379 203.698 63.7955 203.479 63.4735C203.259 63.1516 203.149 62.752 203.149 62.2747V53.4963ZM209.991 62.7235L209.889 63.3315C209.825 63.7406 209.734 64.1913 209.616 64.6838C209.499 65.1762 209.378 65.644 209.253 66.0872C209.128 66.5304 209.02 66.8864 208.929 67.1554H208.151C208.2 66.8978 208.262 66.5701 208.338 66.1724C208.418 65.7747 208.499 65.3334 208.582 64.8485C208.666 64.3675 208.741 63.8713 208.81 63.3599L208.889 62.7235H209.991ZM14.2578 83.4963C13.4775 83.4963 12.7976 83.3012 12.218 82.911C11.6423 82.5209 11.1953 81.9868 10.8771 81.3088C10.5589 80.6307 10.3998 79.858 10.3998 78.9906C10.3998 78.1156 10.5608 77.3372 10.8828 76.6554C11.2085 75.9735 11.6593 75.4395 12.2351 75.0531C12.8108 74.6629 13.4794 74.4679 14.2407 74.4679C14.8241 74.4679 15.3525 74.5815 15.826 74.8088C16.2995 75.0323 16.6896 75.3485 16.9964 75.7576C17.307 76.1629 17.5021 76.6364 17.5817 77.1781H16.5589C16.4529 76.6857 16.1972 76.2652 15.7919 75.9167C15.3904 75.5645 14.879 75.3883 14.2578 75.3883C13.701 75.3883 13.2085 75.5398 12.7805 75.8429C12.3525 76.1421 12.0173 76.5607 11.7748 77.0985C11.5362 77.6326 11.4169 78.252 11.4169 78.9565C11.4169 79.6648 11.5343 80.2917 11.7692 80.8372C12.004 81.3788 12.3335 81.8031 12.7578 82.1099C13.1858 82.4167 13.6858 82.5701 14.2578 82.5701C14.6442 82.5701 14.9964 82.4982 15.3146 82.3542C15.6366 82.2065 15.9055 81.9982 16.1214 81.7292C16.3411 81.4603 16.4889 81.1402 16.5646 80.769H17.5873C17.5116 81.2955 17.3241 81.7652 17.0248 82.1781C16.7294 82.5872 16.3449 82.9092 15.8714 83.144C15.4017 83.3788 14.8639 83.4963 14.2578 83.4963ZM23.147 83.4963C22.3932 83.4963 21.7265 83.305 21.147 82.9224C20.5712 82.5398 20.1205 82.0114 19.7947 81.3372C19.469 80.6592 19.3061 79.877 19.3061 78.9906C19.3061 78.0966 19.469 77.3107 19.7947 76.6326C20.1205 75.9508 20.5712 75.4205 21.147 75.0417C21.7265 74.6591 22.3932 74.4679 23.147 74.4679C23.9008 74.4679 24.5656 74.6591 25.1413 75.0417C25.7171 75.4243 26.1678 75.9546 26.4936 76.6326C26.8231 77.3107 26.9879 78.0966 26.9879 78.9906C26.9879 79.877 26.825 80.6592 26.4993 81.3372C26.1735 82.0114 25.7209 82.5398 25.1413 82.9224C24.5656 83.305 23.9008 83.4963 23.147 83.4963ZM23.147 82.5701C23.7531 82.5701 24.2663 82.4073 24.6868 82.0815C25.1072 81.7557 25.4254 81.322 25.6413 80.7804C25.861 80.2387 25.9709 79.6421 25.9709 78.9906C25.9709 78.3391 25.861 77.7406 25.6413 77.1951C25.4254 76.6497 25.1072 76.2122 24.6868 75.8826C24.2663 75.5531 23.7531 75.3883 23.147 75.3883C22.5447 75.3883 22.0315 75.5531 21.6072 75.8826C21.1868 76.2122 20.8667 76.6497 20.647 77.1951C20.4311 77.7406 20.3231 78.3391 20.3231 78.9906C20.3231 79.6421 20.4311 80.2387 20.647 80.7804C20.8667 81.322 21.1868 81.7557 21.6072 82.0815C22.0277 82.4073 22.5409 82.5701 23.147 82.5701ZM30.2194 77.8599V83.3145H29.2081V74.5872H30.191V75.9565H30.2819C30.4865 75.5095 30.8047 75.1516 31.2365 74.8826C31.6721 74.6099 32.21 74.4735 32.8501 74.4735C33.4372 74.4735 33.9524 74.5967 34.3956 74.8429C34.8425 75.0853 35.1891 75.4432 35.4353 75.9167C35.6853 76.3902 35.8103 76.9716 35.8103 77.661V83.3145H34.799V77.7235C34.799 77.0076 34.5982 76.4413 34.1967 76.0247C33.799 75.608 33.2649 75.3997 32.5944 75.3997C32.1361 75.3997 31.7289 75.4982 31.3728 75.6951C31.0168 75.8921 30.7346 76.1762 30.5263 76.5474C30.3217 76.9148 30.2194 77.3523 30.2194 77.8599ZM44.3373 76.502L43.4112 76.7633C43.3203 76.502 43.1915 76.2652 43.0248 76.0531C42.8582 75.841 42.6404 75.6724 42.3714 75.5474C42.1063 75.4224 41.7767 75.3599 41.3828 75.3599C40.7919 75.3599 40.307 75.5001 39.9282 75.7804C39.5495 76.0607 39.3601 76.4224 39.3601 76.8656C39.3601 77.2406 39.4889 77.5455 39.7464 77.7804C40.0078 78.0114 40.4093 78.1951 40.951 78.3315L42.2692 78.6554C43.0002 78.8334 43.5476 79.1156 43.9112 79.502C44.2786 79.8883 44.4623 80.3732 44.4623 80.9565C44.4623 81.4489 44.326 81.8864 44.0532 82.269C43.7805 82.6516 43.3998 82.9527 42.9112 83.1724C42.4264 83.3883 41.8639 83.4963 41.2237 83.4963C40.3714 83.4963 39.6688 83.305 39.1157 82.9224C38.5627 82.536 38.2085 81.9792 38.0532 81.252L39.0248 81.0133C39.1498 81.5323 39.3942 81.9243 39.7578 82.1895C40.1252 82.4546 40.6082 82.5872 41.2067 82.5872C41.8771 82.5872 42.4131 82.4376 42.8146 82.1383C43.2161 81.8353 43.4169 81.4565 43.4169 81.002C43.4169 80.6497 43.2995 80.3542 43.0646 80.1156C42.8298 79.8732 42.4737 79.6951 41.9964 79.5815L40.5703 79.2406C39.8127 79.0588 39.2521 78.7709 38.8885 78.377C38.5248 77.983 38.343 77.4944 38.343 76.911C38.343 76.43 38.4737 76.0076 38.7351 75.644C38.9964 75.2766 39.3563 74.9887 39.8146 74.7804C40.2729 74.572 40.7957 74.4679 41.3828 74.4679C42.182 74.4679 42.8203 74.6497 43.2976 75.0133C43.7786 75.3732 44.1252 75.8694 44.3373 76.502ZM50.2052 83.4963C49.3908 83.4963 48.6863 83.3069 48.0916 82.9281C47.4969 82.5455 47.0367 82.0171 46.7109 81.3429C46.3889 80.6648 46.228 79.8845 46.228 79.002C46.228 78.1232 46.3889 77.3429 46.7109 76.661C47.0367 75.9754 47.4855 75.4395 48.0575 75.0531C48.6333 74.6629 49.298 74.4679 50.0518 74.4679C50.5253 74.4679 50.9818 74.555 51.4211 74.7292C51.8605 74.8997 52.2545 75.1629 52.603 75.519C52.9552 75.8713 53.2336 76.3163 53.4382 76.8542C53.6427 77.3883 53.745 78.0209 53.745 78.752V79.252H46.9268V78.3599H52.7109C52.7109 77.7993 52.5973 77.2955 52.37 76.8485C52.1465 76.3978 51.834 76.0417 51.4325 75.7804C51.0348 75.519 50.5746 75.3883 50.0518 75.3883C49.4988 75.3883 49.0121 75.536 48.5916 75.8315C48.1711 76.127 47.8416 76.5171 47.603 77.002C47.3681 77.4868 47.2488 78.0171 47.245 78.5929V79.127C47.245 79.8201 47.3643 80.4262 47.603 80.9451C47.8454 81.4603 48.1882 81.8599 48.6314 82.144C49.0746 82.4281 49.5992 82.5701 50.2052 82.5701C50.6181 82.5701 50.9799 82.5057 51.2905 82.377C51.6049 82.2482 51.8681 82.0758 52.0802 81.8599C52.2961 81.6402 52.459 81.3997 52.5689 81.1383L53.5291 81.4508C53.3965 81.8182 53.1787 82.1573 52.8757 82.4679C52.5764 82.7785 52.2014 83.0285 51.7507 83.2179C51.3037 83.4035 50.7886 83.4963 50.2052 83.4963ZM59.3828 83.4963C58.6025 83.4963 57.9226 83.3012 57.343 82.911C56.7673 82.5209 56.3203 81.9868 56.0021 81.3088C55.6839 80.6307 55.5248 79.858 55.5248 78.9906C55.5248 78.1156 55.6858 77.3372 56.0078 76.6554C56.3335 75.9735 56.7843 75.4395 57.3601 75.0531C57.9358 74.6629 58.6044 74.4679 59.3657 74.4679C59.9491 74.4679 60.4775 74.5815 60.951 74.8088C61.4245 75.0323 61.8146 75.3485 62.1214 75.7576C62.432 76.1629 62.6271 76.6364 62.7067 77.1781H61.6839C61.5779 76.6857 61.3222 76.2652 60.9169 75.9167C60.5154 75.5645 60.004 75.3883 59.3828 75.3883C58.826 75.3883 58.3335 75.5398 57.9055 75.8429C57.4775 76.1421 57.1423 76.5607 56.8998 77.0985C56.6612 77.6326 56.5419 78.252 56.5419 78.9565C56.5419 79.6648 56.6593 80.2917 56.8942 80.8372C57.129 81.3788 57.4585 81.8031 57.8828 82.1099C58.3108 82.4167 58.8108 82.5701 59.3828 82.5701C59.7692 82.5701 60.1214 82.4982 60.4396 82.3542C60.7616 82.2065 61.0305 81.9982 61.2464 81.7292C61.4661 81.4603 61.6139 81.1402 61.6896 80.769H62.7123C62.6366 81.2955 62.4491 81.7652 62.1498 82.1781C61.8544 82.5872 61.4699 82.9092 60.9964 83.144C60.5267 83.3788 59.9889 83.4963 59.3828 83.4963ZM68.3175 74.5872V75.4679H64.1527V74.5872H68.3175ZM65.4538 72.4963H66.4709V81.036C66.4709 81.3997 66.5334 81.6857 66.6584 81.894C66.7834 82.0985 66.9462 82.2444 67.147 82.3315C67.3478 82.4148 67.5618 82.4565 67.789 82.4565C67.9216 82.4565 68.0353 82.4489 68.13 82.4338C68.2246 82.4148 68.308 82.3959 68.38 82.377L68.5959 83.2917C68.4974 83.3296 68.3762 83.3637 68.2322 83.394C68.0883 83.4281 67.9103 83.4451 67.6981 83.4451C67.3269 83.4451 66.969 83.3637 66.6243 83.2008C66.2834 83.0379 66.0031 82.7955 65.7834 82.4735C65.5637 82.1516 65.4538 81.752 65.4538 81.2747V72.4963ZM74.049 83.4963C73.2346 83.4963 72.53 83.3069 71.9353 82.9281C71.3407 82.5455 70.8804 82.0171 70.5547 81.3429C70.2327 80.6648 70.0717 79.8845 70.0717 79.002C70.0717 78.1232 70.2327 77.3429 70.5547 76.661C70.8804 75.9754 71.3293 75.4395 71.9013 75.0531C72.477 74.6629 73.1418 74.4679 73.8956 74.4679C74.3691 74.4679 74.8255 74.555 75.2649 74.7292C75.7043 74.8997 76.0982 75.1629 76.4467 75.519C76.799 75.8713 77.0774 76.3163 77.2819 76.8542C77.4865 77.3883 77.5888 78.0209 77.5888 78.752V79.252H70.7706V78.3599H76.5547C76.5547 77.7993 76.441 77.2955 76.2138 76.8485C75.9903 76.3978 75.6778 76.0417 75.2763 75.7804C74.8785 75.519 74.4183 75.3883 73.8956 75.3883C73.3425 75.3883 72.8558 75.536 72.4353 75.8315C72.0149 76.127 71.6853 76.5171 71.4467 77.002C71.2119 77.4868 71.0925 78.0171 71.0888 78.5929V79.127C71.0888 79.8201 71.2081 80.4262 71.4467 80.9451C71.6891 81.4603 72.0319 81.8599 72.4751 82.144C72.9183 82.4281 73.4429 82.5701 74.049 82.5701C74.4619 82.5701 74.8236 82.5057 75.1342 82.377C75.4486 82.2482 75.7119 82.0758 75.924 81.8599C76.1399 81.6402 76.3028 81.3997 76.4126 81.1383L77.3728 81.4508C77.2403 81.8182 77.0225 82.1573 76.7194 82.4679C76.4202 82.7785 76.0452 83.0285 75.5944 83.2179C75.1475 83.4035 74.6323 83.4963 74.049 83.4963ZM83.255 74.5872V75.4679H79.0902V74.5872H83.255ZM80.3913 72.4963H81.4084V81.036C81.4084 81.3997 81.4709 81.6857 81.5959 81.894C81.7209 82.0985 81.8837 82.2444 82.0845 82.3315C82.2853 82.4148 82.4993 82.4565 82.7265 82.4565C82.8591 82.4565 82.9728 82.4489 83.0675 82.4338C83.1621 82.4148 83.2455 82.3959 83.3175 82.377L83.5334 83.2917C83.4349 83.3296 83.3137 83.3637 83.1697 83.394C83.0258 83.4281 82.8478 83.4451 82.6356 83.4451C82.2644 83.4451 81.9065 83.3637 81.5618 83.2008C81.2209 83.0379 80.9406 82.7955 80.7209 82.4735C80.5012 82.1516 80.3913 81.752 80.3913 81.2747V72.4963ZM91.0973 79.9792V74.5872H92.1086V83.3145H91.0973V81.8656H91.0177C90.8132 82.3126 90.4893 82.6857 90.0461 82.9849C89.603 83.2804 89.0613 83.4281 88.4211 83.4281C87.8643 83.4281 87.37 83.3069 86.9382 83.0645C86.5064 82.8182 86.1674 82.4584 85.9211 81.9849C85.6749 81.5114 85.5518 80.93 85.5518 80.2406V74.5872H86.5632V80.1781C86.5632 80.8599 86.7639 81.4092 87.1655 81.8258C87.567 82.2387 88.0821 82.4451 88.7109 82.4451C89.1049 82.4451 89.4836 82.3504 89.8473 82.161C90.2109 81.9717 90.5102 81.6951 90.745 81.3315C90.9799 80.9641 91.0973 80.5133 91.0973 79.9792ZM94.7862 83.3145V74.5872H95.7692V75.9281H95.843C96.0173 75.4887 96.3203 75.1345 96.7521 74.8656C97.1877 74.5929 97.6801 74.4565 98.2294 74.4565C98.3127 74.4565 98.4055 74.4584 98.5078 74.4622C98.6101 74.466 98.6953 74.4698 98.7635 74.4735V75.502C98.718 75.4944 98.6385 75.483 98.5248 75.4679C98.4112 75.4527 98.2881 75.4451 98.1555 75.4451C97.701 75.4451 97.2957 75.5417 96.9396 75.7349C96.5873 75.9243 96.3089 76.1876 96.1044 76.5247C95.8998 76.8618 95.7976 77.2463 95.7976 77.6781V83.3145H94.7862ZM107.427 83.5133C106.9 83.5133 106.419 83.411 105.984 83.2065C105.548 82.9982 105.201 82.6989 104.944 82.3088C104.686 81.9148 104.558 81.4376 104.558 80.877C104.558 80.4451 104.639 80.0815 104.802 79.786C104.965 79.4906 105.196 79.2482 105.495 79.0588C105.794 78.8694 106.148 78.7198 106.558 78.6099C106.967 78.5001 107.417 78.4148 107.91 78.3542C108.398 78.2936 108.811 78.2406 109.148 78.1951C109.489 78.1497 109.749 78.0777 109.927 77.9792C110.105 77.8807 110.194 77.7217 110.194 77.502V77.2974C110.194 76.7027 110.016 76.2349 109.66 75.894C109.308 75.5493 108.8 75.377 108.137 75.377C107.508 75.377 106.995 75.5152 106.597 75.7917C106.203 76.0682 105.927 76.394 105.768 76.769L104.808 76.4224C105.004 75.9451 105.277 75.5645 105.626 75.2804C105.974 74.9925 106.364 74.786 106.796 74.661C107.228 74.5323 107.665 74.4679 108.109 74.4679C108.442 74.4679 108.789 74.5114 109.148 74.5985C109.512 74.6857 109.849 74.8372 110.16 75.0531C110.47 75.2652 110.722 75.5626 110.915 75.9451C111.109 76.3239 111.205 76.805 111.205 77.3883V83.3145H110.194V81.9338H110.131C110.01 82.1913 109.83 82.4413 109.592 82.6838C109.353 82.9262 109.054 83.1251 108.694 83.2804C108.334 83.4357 107.912 83.5133 107.427 83.5133ZM107.563 82.5872C108.101 82.5872 108.567 82.4679 108.961 82.2292C109.355 81.9906 109.658 81.6743 109.87 81.2804C110.086 80.8826 110.194 80.4451 110.194 79.9679V78.7065C110.118 78.7785 109.991 78.8429 109.813 78.8997C109.639 78.9565 109.436 79.0076 109.205 79.0531C108.978 79.0948 108.751 79.1307 108.523 79.161C108.296 79.1913 108.092 79.2179 107.91 79.2406C107.417 79.3012 106.997 79.3959 106.648 79.5247C106.3 79.6535 106.033 79.8315 105.847 80.0588C105.662 80.2823 105.569 80.5701 105.569 80.9224C105.569 81.4527 105.758 81.8637 106.137 82.1554C106.516 82.4432 106.991 82.5872 107.563 82.5872ZM117.038 83.4963C116.322 83.4963 115.695 83.3069 115.157 82.9281C114.619 82.5493 114.199 82.0209 113.896 81.3429C113.596 80.6648 113.447 79.8751 113.447 78.9735C113.447 78.0758 113.596 77.2898 113.896 76.6156C114.199 75.9376 114.621 75.411 115.163 75.036C115.704 74.6573 116.335 74.4679 117.055 74.4679C117.585 74.4679 118.026 74.5626 118.379 74.752C118.731 74.9376 119.013 75.1686 119.225 75.4451C119.437 75.7216 119.602 75.9906 119.719 76.252H119.81V71.6781H120.827V83.3145H119.839V81.6951H119.719C119.602 81.9603 119.435 82.233 119.219 82.5133C119.004 82.7898 118.718 83.0228 118.361 83.2122C118.009 83.4016 117.568 83.4963 117.038 83.4963ZM117.157 82.5701C117.721 82.5701 118.202 82.4167 118.6 82.1099C118.998 81.7993 119.301 81.3732 119.509 80.8315C119.721 80.286 119.827 79.661 119.827 78.9565C119.827 78.2595 119.723 77.644 119.515 77.1099C119.307 76.572 119.004 76.1516 118.606 75.8485C118.208 75.5417 117.725 75.3883 117.157 75.3883C116.574 75.3883 116.081 75.5474 115.68 75.8656C115.282 76.18 114.979 76.6061 114.771 77.144C114.566 77.6819 114.464 78.286 114.464 78.9565C114.464 79.6345 114.568 80.2463 114.776 80.7917C114.985 81.3372 115.288 81.7709 115.685 82.0929C116.087 82.411 116.577 82.5701 117.157 82.5701ZM123.719 83.3145V74.5872H124.736V83.3145H123.719ZM124.236 73.0872C124.028 73.0872 123.85 73.0171 123.702 72.877C123.555 72.733 123.481 72.5607 123.481 72.3599C123.481 72.1591 123.555 71.9887 123.702 71.8485C123.85 71.7046 124.028 71.6326 124.236 71.6326C124.445 71.6326 124.623 71.7046 124.771 71.8485C124.918 71.9887 124.992 72.1591 124.992 72.3599C124.992 72.5607 124.918 72.733 124.771 72.877C124.623 73.0171 124.445 73.0872 124.236 73.0872ZM127.411 86.5872V74.5872H128.394V76.252H128.513C128.635 75.9906 128.801 75.7235 129.013 75.4508C129.226 75.1743 129.506 74.9413 129.854 74.752C130.207 74.5626 130.65 74.4679 131.184 74.4679C131.904 74.4679 132.532 74.6573 133.07 75.036C133.612 75.411 134.032 75.9376 134.332 76.6156C134.635 77.2898 134.786 78.0758 134.786 78.9735C134.786 79.8751 134.635 80.6648 134.332 81.3429C134.032 82.0209 133.612 82.5493 133.07 82.9281C132.532 83.3069 131.907 83.4963 131.195 83.4963C130.669 83.4963 130.227 83.4016 129.871 83.2122C129.519 83.0228 129.233 82.7898 129.013 82.5133C128.798 82.233 128.631 81.9603 128.513 81.6951H128.423V86.5872H127.411ZM128.411 78.9565C128.411 79.661 128.515 80.286 128.724 80.8315C128.936 81.3732 129.239 81.7993 129.633 82.1099C130.031 82.4167 130.512 82.5701 131.076 82.5701C131.656 82.5701 132.144 82.411 132.542 82.0929C132.943 81.7709 133.248 81.3372 133.457 80.7917C133.669 80.2463 133.775 79.6345 133.775 78.9565C133.775 78.286 133.671 77.6819 133.462 77.144C133.258 76.6061 132.955 76.18 132.553 75.8656C132.152 75.5474 131.659 75.3883 131.076 75.3883C130.508 75.3883 130.025 75.5417 129.627 75.8485C129.229 76.1516 128.926 76.572 128.718 77.1099C128.513 77.644 128.411 78.2595 128.411 78.9565ZM137.016 83.3145V74.5872H138.033V83.3145H137.016ZM137.533 73.0872C137.325 73.0872 137.147 73.0171 136.999 72.877C136.852 72.733 136.778 72.5607 136.778 72.3599C136.778 72.1591 136.852 71.9887 136.999 71.8485C137.147 71.7046 137.325 71.6326 137.533 71.6326C137.742 71.6326 137.92 71.7046 138.067 71.8485C138.215 71.9887 138.289 72.1591 138.289 72.3599C138.289 72.5607 138.215 72.733 138.067 72.877C137.92 73.0171 137.742 73.0872 137.533 73.0872ZM146.572 76.502L145.646 76.7633C145.555 76.502 145.426 76.2652 145.259 76.0531C145.093 75.841 144.875 75.6724 144.606 75.5474C144.341 75.4224 144.011 75.3599 143.617 75.3599C143.026 75.3599 142.541 75.5001 142.163 75.7804C141.784 76.0607 141.594 76.4224 141.594 76.8656C141.594 77.2406 141.723 77.5455 141.981 77.7804C142.242 78.0114 142.644 78.1951 143.185 78.3315L144.504 78.6554C145.235 78.8334 145.782 79.1156 146.146 79.502C146.513 79.8883 146.697 80.3732 146.697 80.9565C146.697 81.4489 146.56 81.8864 146.288 82.269C146.015 82.6516 145.634 82.9527 145.146 83.1724C144.661 83.3883 144.098 83.4963 143.458 83.4963C142.606 83.4963 141.903 83.305 141.35 82.9224C140.797 82.536 140.443 81.9792 140.288 81.252L141.259 81.0133C141.384 81.5323 141.629 81.9243 141.992 82.1895C142.36 82.4546 142.843 82.5872 143.441 82.5872C144.111 82.5872 144.647 82.4376 145.049 82.1383C145.451 81.8353 145.651 81.4565 145.651 81.002C145.651 80.6497 145.534 80.3542 145.299 80.1156C145.064 79.8732 144.708 79.6951 144.231 79.5815L142.805 79.2406C142.047 79.0588 141.486 78.7709 141.123 78.377C140.759 77.983 140.577 77.4944 140.577 76.911C140.577 76.43 140.708 76.0076 140.969 75.644C141.231 75.2766 141.591 74.9887 142.049 74.7804C142.507 74.572 143.03 74.4679 143.617 74.4679C144.416 74.4679 145.055 74.6497 145.532 75.0133C146.013 75.3732 146.36 75.8694 146.572 76.502ZM152.32 83.4963C151.54 83.4963 150.86 83.3012 150.281 82.911C149.705 82.5209 149.258 81.9868 148.94 81.3088C148.621 80.6307 148.462 79.858 148.462 78.9906C148.462 78.1156 148.623 77.3372 148.945 76.6554C149.271 75.9735 149.722 75.4395 150.298 75.0531C150.873 74.6629 151.542 74.4679 152.303 74.4679C152.887 74.4679 153.415 74.5815 153.888 74.8088C154.362 75.0323 154.752 75.3485 155.059 75.7576C155.37 76.1629 155.565 76.6364 155.644 77.1781H154.621C154.515 76.6857 154.26 76.2652 153.854 75.9167C153.453 75.5645 152.942 75.3883 152.32 75.3883C151.763 75.3883 151.271 75.5398 150.843 75.8429C150.415 76.1421 150.08 76.5607 149.837 77.0985C149.599 77.6326 149.479 78.252 149.479 78.9565C149.479 79.6648 149.597 80.2917 149.832 80.8372C150.067 81.3788 150.396 81.8031 150.82 82.1099C151.248 82.4167 151.748 82.5701 152.32 82.5701C152.707 82.5701 153.059 82.4982 153.377 82.3542C153.699 82.2065 153.968 81.9982 154.184 81.7292C154.404 81.4603 154.551 81.1402 154.627 80.769H155.65C155.574 81.2955 155.387 81.7652 155.087 82.1781C154.792 82.5872 154.407 82.9092 153.934 83.144C153.464 83.3788 152.926 83.4963 152.32 83.4963ZM157.829 83.3145V74.5872H158.846V83.3145H157.829ZM158.346 73.0872C158.138 73.0872 157.959 73.0171 157.812 72.877C157.664 72.733 157.59 72.5607 157.59 72.3599C157.59 72.1591 157.664 71.9887 157.812 71.8485C157.959 71.7046 158.138 71.6326 158.346 71.6326C158.554 71.6326 158.732 71.7046 158.88 71.8485C159.028 71.9887 159.102 72.1591 159.102 72.3599C159.102 72.5607 159.028 72.733 158.88 72.877C158.732 73.0171 158.554 73.0872 158.346 73.0872ZM162.532 77.8599V83.3145H161.521V74.5872H162.504V75.9565H162.594C162.799 75.5095 163.117 75.1516 163.549 74.8826C163.985 74.6099 164.522 74.4735 165.163 74.4735C165.75 74.4735 166.265 74.5967 166.708 74.8429C167.155 75.0853 167.502 75.4432 167.748 75.9167C167.998 76.3902 168.123 76.9716 168.123 77.661V83.3145H167.111V77.7235C167.111 77.0076 166.911 76.4413 166.509 76.0247C166.111 75.608 165.577 75.3997 164.907 75.3997C164.449 75.3997 164.041 75.4982 163.685 75.6951C163.329 75.8921 163.047 76.1762 162.839 76.5474C162.634 76.9148 162.532 77.3523 162.532 77.8599ZM174.116 86.769C173.521 86.769 173 86.6913 172.553 86.536C172.106 86.3845 171.729 86.1762 171.423 85.911C171.116 85.6459 170.877 85.3485 170.707 85.019L171.536 84.4735C171.661 84.6932 171.828 84.9092 172.036 85.1213C172.248 85.3334 172.523 85.5095 172.86 85.6497C173.201 85.7898 173.62 85.8599 174.116 85.8599C174.888 85.8599 175.512 85.6667 175.985 85.2804C176.462 84.894 176.701 84.2936 176.701 83.4792V81.5133H176.61C176.493 81.7785 176.324 82.0436 176.104 82.3088C175.885 82.5701 175.597 82.7879 175.241 82.9622C174.888 83.1364 174.451 83.2235 173.928 83.2235C173.231 83.2235 172.612 83.0512 172.07 82.7065C171.532 82.3618 171.108 81.8694 170.798 81.2292C170.491 80.5853 170.337 79.8182 170.337 78.9281C170.337 78.0455 170.487 77.269 170.786 76.5985C171.089 75.9281 171.512 75.4054 172.053 75.0304C172.595 74.6554 173.226 74.4679 173.945 74.4679C174.479 74.4679 174.923 74.5626 175.275 74.752C175.627 74.9376 175.909 75.1686 176.121 75.4451C176.337 75.7216 176.506 75.9906 176.627 76.252H176.729V74.5872H177.718V83.5417C177.718 84.2804 177.561 84.8883 177.246 85.3656C176.932 85.8429 176.504 86.1951 175.962 86.4224C175.421 86.6535 174.805 86.769 174.116 86.769ZM174.048 82.2974C174.608 82.2974 175.087 82.1629 175.485 81.894C175.883 81.6213 176.188 81.2311 176.4 80.7235C176.612 80.216 176.718 79.6118 176.718 78.911C176.718 78.2292 176.614 77.6251 176.406 77.0985C176.197 76.5682 175.894 76.1516 175.496 75.8485C175.102 75.5417 174.62 75.3883 174.048 75.3883C173.464 75.3883 172.972 75.5455 172.57 75.8599C172.169 76.1743 171.866 76.5985 171.661 77.1326C171.457 77.6629 171.354 78.2557 171.354 78.911C171.354 79.5777 171.459 80.1667 171.667 80.6781C171.875 81.1857 172.18 81.5834 172.582 81.8713C172.983 82.1554 173.472 82.2974 174.048 82.2974ZM188.424 83.4963C187.61 83.4963 186.905 83.3069 186.31 82.9281C185.716 82.5455 185.255 82.0171 184.93 81.3429C184.608 80.6648 184.447 79.8845 184.447 79.002C184.447 78.1232 184.608 77.3429 184.93 76.661C185.255 75.9754 185.704 75.4395 186.276 75.0531C186.852 74.6629 187.517 74.4679 188.271 74.4679C188.744 74.4679 189.201 74.555 189.64 74.7292C190.079 74.8997 190.473 75.1629 190.822 75.519C191.174 75.8713 191.452 76.3163 191.657 76.8542C191.861 77.3883 191.964 78.0209 191.964 78.752V79.252H185.146V78.3599H190.93C190.93 77.7993 190.816 77.2955 190.589 76.8485C190.365 76.3978 190.053 76.0417 189.651 75.7804C189.254 75.519 188.793 75.3883 188.271 75.3883C187.718 75.3883 187.231 75.536 186.81 75.8315C186.39 76.127 186.06 76.5171 185.822 77.002C185.587 77.4868 185.468 78.0171 185.464 78.5929V79.127C185.464 79.8201 185.583 80.4262 185.822 80.9451C186.064 81.4603 186.407 81.8599 186.85 82.144C187.293 82.4281 187.818 82.5701 188.424 82.5701C188.837 82.5701 189.199 82.5057 189.509 82.377C189.824 82.2482 190.087 82.0758 190.299 81.8599C190.515 81.6402 190.678 81.3997 190.788 81.1383L191.748 81.4508C191.615 81.8182 191.397 82.1573 191.094 82.4679C190.795 82.7785 190.42 83.0285 189.969 83.2179C189.522 83.4035 189.007 83.4963 188.424 83.4963ZM195.204 71.6781V83.3145H194.192V71.6781H195.204ZM197.891 83.3145V74.5872H198.908V83.3145H197.891ZM198.408 73.0872C198.2 73.0872 198.022 73.0171 197.874 72.877C197.727 72.733 197.653 72.5607 197.653 72.3599C197.653 72.1591 197.727 71.9887 197.874 71.8485C198.022 71.7046 198.2 71.6326 198.408 71.6326C198.617 71.6326 198.795 71.7046 198.942 71.8485C199.09 71.9887 199.164 72.1591 199.164 72.3599C199.164 72.5607 199.09 72.733 198.942 72.877C198.795 73.0171 198.617 73.0872 198.408 73.0872ZM205.021 74.5872V75.4679H200.856V74.5872H205.021ZM202.157 72.4963H203.174V81.036C203.174 81.3997 203.236 81.6857 203.361 81.894C203.486 82.0985 203.649 82.2444 203.85 82.3315C204.051 82.4148 204.265 82.4565 204.492 82.4565C204.625 82.4565 204.738 82.4489 204.833 82.4338C204.928 82.4148 205.011 82.3959 205.083 82.377L205.299 83.2917C205.201 83.3296 205.079 83.3637 204.935 83.394C204.791 83.4281 204.613 83.4451 204.401 83.4451C204.03 83.4451 203.672 83.3637 203.327 83.2008C202.986 83.0379 202.706 82.7955 202.486 82.4735C202.267 82.1516 202.157 81.752 202.157 81.2747V72.4963Z" fill="white"/>
</svg>
