<svg width="899" height="20" viewBox="0 0 899 20" fill="none" xmlns="http://www.w3.org/2000/svg">
<path d="M1.01136 15V3.36364H5.60227C6.48485 3.36364 7.23674 3.5322 7.85795 3.86932C8.47917 4.20265 8.95265 4.66667 9.27841 5.26136C9.60795 5.85227 9.77273 6.53409 9.77273 7.30682C9.77273 8.07955 9.60606 8.76136 9.27273 9.35227C8.93939 9.94318 8.45644 10.4034 7.82386 10.733C7.19508 11.0625 6.43371 11.2273 5.53977 11.2273H2.61364V9.25568H5.14205C5.61553 9.25568 6.00568 9.17424 6.3125 9.01136C6.62311 8.8447 6.85417 8.61553 7.00568 8.32386C7.16098 8.02841 7.23864 7.68939 7.23864 7.30682C7.23864 6.92045 7.16098 6.58333 7.00568 6.29545C6.85417 6.00379 6.62311 5.77841 6.3125 5.61932C6.00189 5.45644 5.60795 5.375 5.13068 5.375H3.47159V15H1.01136ZM15.1278 15.1705C14.2453 15.1705 13.482 14.983 12.8381 14.608C12.1979 14.2292 11.7036 13.7027 11.3551 13.0284C11.0066 12.3504 10.8324 11.5644 10.8324 10.6705C10.8324 9.76894 11.0066 8.98106 11.3551 8.30682C11.7036 7.62879 12.1979 7.10227 12.8381 6.72727C13.482 6.34848 14.2453 6.15909 15.1278 6.15909C16.0104 6.15909 16.7718 6.34848 17.4119 6.72727C18.0559 7.10227 18.5521 7.62879 18.9006 8.30682C19.2491 8.98106 19.4233 9.76894 19.4233 10.6705C19.4233 11.5644 19.2491 12.3504 18.9006 13.0284C18.5521 13.7027 18.0559 14.2292 17.4119 14.608C16.7718 14.983 16.0104 15.1705 15.1278 15.1705ZM15.1392 13.2955C15.5407 13.2955 15.8759 13.1818 16.1449 12.9545C16.4138 12.7235 16.6165 12.4091 16.7528 12.0114C16.893 11.6136 16.9631 11.161 16.9631 10.6534C16.9631 10.1458 16.893 9.69318 16.7528 9.29545C16.6165 8.89773 16.4138 8.58333 16.1449 8.35227C15.8759 8.12121 15.5407 8.00568 15.1392 8.00568C14.7339 8.00568 14.393 8.12121 14.1165 8.35227C13.8438 8.58333 13.6373 8.89773 13.4972 9.29545C13.3608 9.69318 13.2926 10.1458 13.2926 10.6534C13.2926 11.161 13.3608 11.6136 13.4972 12.0114C13.6373 12.4091 13.8438 12.7235 14.1165 12.9545C14.393 13.1818 14.7339 13.2955 15.1392 13.2955ZM25.6392 6.27273V8.09091H20.3835V6.27273H25.6392ZM21.5767 4.18182H23.9972V12.3182C23.9972 12.5417 24.0313 12.7159 24.0994 12.8409C24.1676 12.9621 24.2623 13.0473 24.3835 13.0966C24.5085 13.1458 24.6525 13.1705 24.8153 13.1705C24.929 13.1705 25.0426 13.161 25.1562 13.142C25.2699 13.1193 25.357 13.1023 25.4176 13.0909L25.7983 14.892C25.6771 14.9299 25.5066 14.9735 25.2869 15.0227C25.0672 15.0758 24.8002 15.108 24.4858 15.1193C23.9025 15.142 23.3911 15.0644 22.9517 14.8864C22.5161 14.7083 22.1771 14.4318 21.9347 14.0568C21.6922 13.6818 21.5729 13.2083 21.5767 12.6364V4.18182ZM31.0994 15.1705C30.2017 15.1705 29.429 14.9886 28.7812 14.625C28.1373 14.2576 27.6411 13.7386 27.2926 13.0682C26.9441 12.3939 26.7699 11.5966 26.7699 10.6761C26.7699 9.77841 26.9441 8.99053 27.2926 8.3125C27.6411 7.63447 28.1316 7.10606 28.7642 6.72727C29.4006 6.34848 30.1468 6.15909 31.0028 6.15909C31.5786 6.15909 32.1146 6.25189 32.6108 6.4375C33.1108 6.61932 33.5464 6.89394 33.9176 7.26136C34.2926 7.62879 34.5843 8.09091 34.7926 8.64773C35.0009 9.20076 35.1051 9.84848 35.1051 10.5909V11.2557H27.7358V9.75568H32.8267C32.8267 9.4072 32.7509 9.09848 32.5994 8.82955C32.4479 8.56061 32.2377 8.35038 31.9688 8.19886C31.7036 8.04356 31.3949 7.96591 31.0426 7.96591C30.6752 7.96591 30.3494 8.05114 30.0653 8.22159C29.785 8.38826 29.5653 8.61364 29.4062 8.89773C29.2472 9.17803 29.1657 9.49053 29.1619 9.83523V11.2614C29.1619 11.6932 29.2415 12.0663 29.4006 12.3807C29.5634 12.6951 29.7926 12.9375 30.0881 13.108C30.3835 13.2784 30.7339 13.3636 31.1392 13.3636C31.4081 13.3636 31.6544 13.3258 31.8778 13.25C32.1013 13.1742 32.2926 13.0606 32.4517 12.9091C32.6108 12.7576 32.732 12.572 32.8153 12.3523L35.054 12.5C34.9403 13.0379 34.7074 13.5076 34.3551 13.9091C34.0066 14.3068 33.5559 14.6174 33.0028 14.8409C32.4536 15.0606 31.8191 15.1705 31.0994 15.1705ZM39.1051 9.95455V15H36.6847V6.27273H38.9915V7.8125H39.0938C39.2869 7.30492 39.6108 6.90341 40.0653 6.60795C40.5199 6.30871 41.071 6.15909 41.7188 6.15909C42.3248 6.15909 42.8532 6.29167 43.304 6.55682C43.7547 6.82197 44.1051 7.20076 44.3551 7.69318C44.6051 8.18182 44.7301 8.76515 44.7301 9.44318V15H42.3097V9.875C42.3134 9.34091 42.1771 8.92424 41.9006 8.625C41.6241 8.32197 41.2434 8.17045 40.7585 8.17045C40.4328 8.17045 40.1449 8.24053 39.8949 8.38068C39.6487 8.52083 39.4555 8.72538 39.3153 8.99432C39.179 9.25947 39.1089 9.57955 39.1051 9.95455ZM50.581 15.1705C49.687 15.1705 48.9181 14.9811 48.2741 14.6023C47.634 14.2197 47.1416 13.6894 46.7969 13.0114C46.456 12.3333 46.2855 11.553 46.2855 10.6705C46.2855 9.77652 46.4579 8.99242 46.8026 8.31818C47.151 7.64015 47.6454 7.11174 48.2855 6.73295C48.9257 6.35038 49.687 6.15909 50.5696 6.15909C51.331 6.15909 51.9976 6.29735 52.5696 6.57386C53.1416 6.85038 53.5942 7.23864 53.9276 7.73864C54.2609 8.23864 54.4446 8.82576 54.4787 9.5H52.1946C52.1302 9.06439 51.9598 8.71401 51.6832 8.44886C51.4105 8.17992 51.0526 8.04545 50.6094 8.04545C50.2344 8.04545 49.9067 8.14773 49.6264 8.35227C49.3499 8.55303 49.134 8.84659 48.9787 9.23295C48.8234 9.61932 48.7457 10.0871 48.7457 10.6364C48.7457 11.1932 48.8215 11.6667 48.973 12.0568C49.1283 12.447 49.3461 12.7443 49.6264 12.9489C49.9067 13.1534 50.2344 13.2557 50.6094 13.2557C50.8859 13.2557 51.134 13.1989 51.3537 13.0852C51.5772 12.9716 51.7609 12.8068 51.9048 12.5909C52.0526 12.3712 52.1491 12.108 52.1946 11.8011H54.4787C54.4408 12.4678 54.259 13.0549 53.9332 13.5625C53.6113 14.0663 53.1662 14.4602 52.598 14.7443C52.0298 15.0284 51.3575 15.1705 50.581 15.1705ZM57.5227 18.2727C57.2159 18.2727 56.928 18.2481 56.6591 18.1989C56.3939 18.1534 56.1742 18.0947 56 18.0227L56.5455 16.2159C56.8295 16.303 57.0852 16.3504 57.3125 16.358C57.5436 16.3655 57.7424 16.3125 57.9091 16.1989C58.0795 16.0852 58.2178 15.892 58.3239 15.6193L58.4659 15.25L55.3352 6.27273H57.8807L59.6875 12.6818H59.7784L61.6023 6.27273H64.1648L60.7727 15.9432C60.6098 16.4129 60.3883 16.822 60.108 17.1705C59.8314 17.5227 59.4811 17.7936 59.0568 17.983C58.6326 18.1761 58.1212 18.2727 57.5227 18.2727ZM79.419 7.4375H76.9304C76.8849 7.11553 76.7921 6.82955 76.652 6.57955C76.5118 6.32576 76.3319 6.10985 76.1122 5.93182C75.8925 5.75379 75.6387 5.61742 75.3509 5.52273C75.0668 5.42803 74.758 5.38068 74.4247 5.38068C73.8224 5.38068 73.2978 5.5303 72.8509 5.82955C72.4039 6.125 72.0573 6.55682 71.8111 7.125C71.5649 7.68939 71.4418 8.375 71.4418 9.18182C71.4418 10.0114 71.5649 10.7083 71.8111 11.2727C72.0611 11.8371 72.4096 12.2633 72.8565 12.5511C73.3035 12.839 73.8205 12.983 74.4077 12.983C74.7372 12.983 75.0421 12.9394 75.3224 12.8523C75.6065 12.7652 75.8584 12.6383 76.0781 12.4716C76.2978 12.3011 76.4796 12.0947 76.6236 11.8523C76.7713 11.6098 76.8736 11.3333 76.9304 11.0227L79.419 11.0341C79.3546 11.5682 79.1937 12.0833 78.9361 12.5795C78.6823 13.072 78.3395 13.5133 77.9077 13.9034C77.4796 14.2898 76.9683 14.5966 76.3736 14.8239C75.7827 15.0473 75.1141 15.1591 74.3679 15.1591C73.33 15.1591 72.402 14.9242 71.5838 14.4545C70.7694 13.9848 70.1255 13.3049 69.652 12.4148C69.1823 11.5246 68.9474 10.447 68.9474 9.18182C68.9474 7.91288 69.1861 6.83333 69.6634 5.94318C70.1406 5.05303 70.7884 4.375 71.6065 3.90909C72.4247 3.43939 73.3452 3.20455 74.3679 3.20455C75.0421 3.20455 75.6671 3.29924 76.2429 3.48864C76.8224 3.67803 77.3357 3.95455 77.7827 4.31818C78.2296 4.67803 78.5933 5.11932 78.8736 5.64205C79.1577 6.16477 79.3395 6.76326 79.419 7.4375ZM85.081 15.1705C84.1984 15.1705 83.4351 14.983 82.7912 14.608C82.151 14.2292 81.6567 13.7027 81.3082 13.0284C80.9598 12.3504 80.7855 11.5644 80.7855 10.6705C80.7855 9.76894 80.9598 8.98106 81.3082 8.30682C81.6567 7.62879 82.151 7.10227 82.7912 6.72727C83.4351 6.34848 84.1984 6.15909 85.081 6.15909C85.9635 6.15909 86.7249 6.34848 87.3651 6.72727C88.009 7.10227 88.5052 7.62879 88.8537 8.30682C89.2022 8.98106 89.3764 9.76894 89.3764 10.6705C89.3764 11.5644 89.2022 12.3504 88.8537 13.0284C88.5052 13.7027 88.009 14.2292 87.3651 14.608C86.7249 14.983 85.9635 15.1705 85.081 15.1705ZM85.0923 13.2955C85.4938 13.2955 85.8291 13.1818 86.098 12.9545C86.367 12.7235 86.5696 12.4091 86.706 12.0114C86.8461 11.6136 86.9162 11.161 86.9162 10.6534C86.9162 10.1458 86.8461 9.69318 86.706 9.29545C86.5696 8.89773 86.367 8.58333 86.098 8.35227C85.8291 8.12121 85.4938 8.00568 85.0923 8.00568C84.687 8.00568 84.3461 8.12121 84.0696 8.35227C83.7969 8.58333 83.5904 8.89773 83.4503 9.29545C83.3139 9.69318 83.2457 10.1458 83.2457 10.6534C83.2457 11.161 83.3139 11.6136 83.4503 12.0114C83.5904 12.4091 83.7969 12.7235 84.0696 12.9545C84.3461 13.1818 84.687 13.2955 85.0923 13.2955ZM93.3707 9.95455V15H90.9503V6.27273H93.2571V7.8125H93.3594C93.5526 7.30492 93.8764 6.90341 94.331 6.60795C94.7855 6.30871 95.3366 6.15909 95.9844 6.15909C96.5904 6.15909 97.1188 6.29167 97.5696 6.55682C98.0204 6.82197 98.3707 7.20076 98.6207 7.69318C98.8707 8.18182 98.9957 8.76515 98.9957 9.44318V15H96.5753V9.875C96.5791 9.34091 96.4427 8.92424 96.1662 8.625C95.8897 8.32197 95.509 8.17045 95.0241 8.17045C94.6984 8.17045 94.4105 8.24053 94.1605 8.38068C93.9143 8.52083 93.7211 8.72538 93.581 8.99432C93.4446 9.25947 93.3745 9.57955 93.3707 9.95455ZM104.847 15.1705C103.953 15.1705 103.184 14.9811 102.54 14.6023C101.9 14.2197 101.407 13.6894 101.062 13.0114C100.722 12.3333 100.551 11.553 100.551 10.6705C100.551 9.77652 100.723 8.99242 101.068 8.31818C101.417 7.64015 101.911 7.11174 102.551 6.73295C103.191 6.35038 103.953 6.15909 104.835 6.15909C105.597 6.15909 106.263 6.29735 106.835 6.57386C107.407 6.85038 107.86 7.23864 108.193 7.73864C108.527 8.23864 108.71 8.82576 108.744 9.5H106.46C106.396 9.06439 106.225 8.71401 105.949 8.44886C105.676 8.17992 105.318 8.04545 104.875 8.04545C104.5 8.04545 104.172 8.14773 103.892 8.35227C103.616 8.55303 103.4 8.84659 103.244 9.23295C103.089 9.61932 103.011 10.0871 103.011 10.6364C103.011 11.1932 103.087 11.6667 103.239 12.0568C103.394 12.447 103.612 12.7443 103.892 12.9489C104.172 13.1534 104.5 13.2557 104.875 13.2557C105.152 13.2557 105.4 13.1989 105.619 13.0852C105.843 12.9716 106.027 12.8068 106.17 12.5909C106.318 12.3712 106.415 12.108 106.46 11.8011H108.744C108.706 12.4678 108.525 13.0549 108.199 13.5625C107.877 14.0663 107.432 14.4602 106.864 14.7443C106.295 15.0284 105.623 15.1705 104.847 15.1705ZM114.271 15.1705C113.374 15.1705 112.601 14.9886 111.953 14.625C111.309 14.2576 110.813 13.7386 110.464 13.0682C110.116 12.3939 109.942 11.5966 109.942 10.6761C109.942 9.77841 110.116 8.99053 110.464 8.3125C110.813 7.63447 111.304 7.10606 111.936 6.72727C112.572 6.34848 113.319 6.15909 114.175 6.15909C114.75 6.15909 115.286 6.25189 115.783 6.4375C116.283 6.61932 116.718 6.89394 117.089 7.26136C117.464 7.62879 117.756 8.09091 117.964 8.64773C118.173 9.20076 118.277 9.84848 118.277 10.5909V11.2557H110.908V9.75568H115.999C115.999 9.4072 115.923 9.09848 115.771 8.82955C115.62 8.56061 115.41 8.35038 115.141 8.19886C114.875 8.04356 114.567 7.96591 114.214 7.96591C113.847 7.96591 113.521 8.05114 113.237 8.22159C112.957 8.38826 112.737 8.61364 112.578 8.89773C112.419 9.17803 112.338 9.49053 112.334 9.83523V11.2614C112.334 11.6932 112.413 12.0663 112.572 12.3807C112.735 12.6951 112.964 12.9375 113.26 13.108C113.555 13.2784 113.906 13.3636 114.311 13.3636C114.58 13.3636 114.826 13.3258 115.05 13.25C115.273 13.1742 115.464 13.0606 115.624 12.9091C115.783 12.7576 115.904 12.572 115.987 12.3523L118.226 12.5C118.112 13.0379 117.879 13.5076 117.527 13.9091C117.179 14.3068 116.728 14.6174 116.175 14.8409C115.625 15.0606 114.991 15.1705 114.271 15.1705ZM122.277 9.95455V15H119.857V6.27273H122.163V7.8125H122.266C122.459 7.30492 122.783 6.90341 123.237 6.60795C123.692 6.30871 124.243 6.15909 124.891 6.15909C125.497 6.15909 126.025 6.29167 126.476 6.55682C126.927 6.82197 127.277 7.20076 127.527 7.69318C127.777 8.18182 127.902 8.76515 127.902 9.44318V15H125.482V9.875C125.485 9.34091 125.349 8.92424 125.072 8.625C124.796 8.32197 124.415 8.17045 123.93 8.17045C123.605 8.17045 123.317 8.24053 123.067 8.38068C122.821 8.52083 122.627 8.72538 122.487 8.99432C122.351 9.25947 122.281 9.57955 122.277 9.95455ZM134.452 6.27273V8.09091H129.196V6.27273H134.452ZM130.389 4.18182H132.81V12.3182C132.81 12.5417 132.844 12.7159 132.912 12.8409C132.98 12.9621 133.075 13.0473 133.196 13.0966C133.321 13.1458 133.465 13.1705 133.628 13.1705C133.741 13.1705 133.855 13.161 133.969 13.142C134.082 13.1193 134.17 13.1023 134.23 13.0909L134.611 14.892C134.49 14.9299 134.319 14.9735 134.099 15.0227C133.88 15.0758 133.613 15.108 133.298 15.1193C132.715 15.142 132.204 15.0644 131.764 14.8864C131.329 14.7083 130.99 14.4318 130.747 14.0568C130.505 13.6818 130.385 13.2083 130.389 12.6364V4.18182ZM136.028 15V6.27273H138.375V7.79545H138.466C138.625 7.25379 138.892 6.8447 139.267 6.56818C139.642 6.28788 140.074 6.14773 140.562 6.14773C140.684 6.14773 140.814 6.1553 140.955 6.17045C141.095 6.18561 141.218 6.20644 141.324 6.23295V8.38068C141.21 8.34659 141.053 8.31629 140.852 8.28977C140.652 8.26326 140.468 8.25 140.301 8.25C139.945 8.25 139.627 8.32765 139.347 8.48295C139.07 8.63447 138.85 8.84659 138.688 9.11932C138.528 9.39205 138.449 9.70644 138.449 10.0625V15H136.028ZM144.814 15.1648C144.257 15.1648 143.761 15.0682 143.325 14.875C142.89 14.678 142.545 14.3883 142.291 14.0057C142.041 13.6193 141.916 13.1383 141.916 12.5625C141.916 12.0777 142.005 11.6705 142.183 11.3409C142.361 11.0114 142.604 10.7462 142.911 10.5455C143.217 10.3447 143.566 10.1932 143.956 10.0909C144.35 9.98864 144.763 9.91667 145.195 9.875C145.702 9.82197 146.111 9.77273 146.422 9.72727C146.732 9.67803 146.958 9.60606 147.098 9.51136C147.238 9.41667 147.308 9.27652 147.308 9.09091V9.05682C147.308 8.69697 147.195 8.41856 146.967 8.22159C146.744 8.02462 146.426 7.92614 146.013 7.92614C145.577 7.92614 145.231 8.02273 144.973 8.21591C144.715 8.4053 144.545 8.64394 144.462 8.93182L142.223 8.75C142.337 8.2197 142.56 7.76136 142.893 7.375C143.227 6.98485 143.657 6.68561 144.183 6.47727C144.714 6.26515 145.327 6.15909 146.024 6.15909C146.509 6.15909 146.973 6.21591 147.416 6.32955C147.863 6.44318 148.259 6.61932 148.604 6.85795C148.952 7.09659 149.227 7.40341 149.428 7.77841C149.628 8.14962 149.729 8.5947 149.729 9.11364V15H147.433V13.7898H147.365C147.225 14.0625 147.037 14.303 146.803 14.5114C146.568 14.7159 146.286 14.8769 145.956 14.9943C145.626 15.108 145.246 15.1648 144.814 15.1648ZM145.507 13.4943C145.863 13.4943 146.178 13.4242 146.45 13.2841C146.723 13.1402 146.937 12.947 147.092 12.7045C147.248 12.4621 147.325 12.1875 147.325 11.8807V10.9545C147.25 11.0038 147.145 11.0492 147.013 11.0909C146.884 11.1288 146.738 11.1648 146.575 11.1989C146.412 11.2292 146.25 11.2576 146.087 11.2841C145.924 11.3068 145.776 11.3277 145.643 11.3466C145.359 11.3883 145.111 11.4545 144.899 11.5455C144.687 11.6364 144.522 11.7595 144.405 11.9148C144.287 12.0663 144.229 12.2557 144.229 12.483C144.229 12.8125 144.348 13.0644 144.587 13.2386C144.829 13.4091 145.136 13.4943 145.507 13.4943ZM156.249 6.27273V8.09091H150.993V6.27273H156.249ZM152.186 4.18182H154.607V12.3182C154.607 12.5417 154.641 12.7159 154.709 12.8409C154.777 12.9621 154.872 13.0473 154.993 13.0966C155.118 13.1458 155.262 13.1705 155.425 13.1705C155.538 13.1705 155.652 13.161 155.766 13.142C155.879 13.1193 155.966 13.1023 156.027 13.0909L156.408 14.892C156.286 14.9299 156.116 14.9735 155.896 15.0227C155.677 15.0758 155.41 15.108 155.095 15.1193C154.512 15.142 154 15.0644 153.561 14.8864C153.125 14.7083 152.786 14.4318 152.544 14.0568C152.302 13.6818 152.182 13.2083 152.186 12.6364V4.18182ZM157.825 15V6.27273H160.246V15H157.825ZM159.041 5.14773C158.681 5.14773 158.373 5.02841 158.115 4.78977C157.861 4.54735 157.734 4.25758 157.734 3.92045C157.734 3.58712 157.861 3.30114 158.115 3.0625C158.373 2.82008 158.681 2.69886 159.041 2.69886C159.401 2.69886 159.708 2.82008 159.962 3.0625C160.219 3.30114 160.348 3.58712 160.348 3.92045C160.348 4.25758 160.219 4.54735 159.962 4.78977C159.708 5.02841 159.401 5.14773 159.041 5.14773ZM166.128 15.1705C165.245 15.1705 164.482 14.983 163.838 14.608C163.198 14.2292 162.704 13.7027 162.355 13.0284C162.007 12.3504 161.832 11.5644 161.832 10.6705C161.832 9.76894 162.007 8.98106 162.355 8.30682C162.704 7.62879 163.198 7.10227 163.838 6.72727C164.482 6.34848 165.245 6.15909 166.128 6.15909C167.01 6.15909 167.772 6.34848 168.412 6.72727C169.056 7.10227 169.552 7.62879 169.901 8.30682C170.249 8.98106 170.423 9.76894 170.423 10.6705C170.423 11.5644 170.249 12.3504 169.901 13.0284C169.552 13.7027 169.056 14.2292 168.412 14.608C167.772 14.983 167.01 15.1705 166.128 15.1705ZM166.139 13.2955C166.541 13.2955 166.876 13.1818 167.145 12.9545C167.414 12.7235 167.616 12.4091 167.753 12.0114C167.893 11.6136 167.963 11.161 167.963 10.6534C167.963 10.1458 167.893 9.69318 167.753 9.29545C167.616 8.89773 167.414 8.58333 167.145 8.35227C166.876 8.12121 166.541 8.00568 166.139 8.00568C165.734 8.00568 165.393 8.12121 165.116 8.35227C164.844 8.58333 164.637 8.89773 164.497 9.29545C164.361 9.69318 164.293 10.1458 164.293 10.6534C164.293 11.161 164.361 11.6136 164.497 12.0114C164.637 12.4091 164.844 12.7235 165.116 12.9545C165.393 13.1818 165.734 13.2955 166.139 13.2955ZM174.418 9.95455V15H171.997V6.27273H174.304V7.8125H174.406C174.599 7.30492 174.923 6.90341 175.378 6.60795C175.832 6.30871 176.384 6.15909 177.031 6.15909C177.637 6.15909 178.166 6.29167 178.616 6.55682C179.067 6.82197 179.418 7.20076 179.668 7.69318C179.918 8.18182 180.043 8.76515 180.043 9.44318V15H177.622V9.875C177.626 9.34091 177.49 8.92424 177.213 8.625C176.937 8.32197 176.556 8.17045 176.071 8.17045C175.745 8.17045 175.457 8.24053 175.207 8.38068C174.961 8.52083 174.768 8.72538 174.628 8.99432C174.491 9.25947 174.421 9.57955 174.418 9.95455Z" fill="#666666"/>
<path d="M377.351 3.36364V15H376.289V4.47727H376.221L373.493 6.28977V5.1875L376.243 3.36364H377.351ZM384.499 15.1591C383.681 15.1591 382.982 14.9242 382.402 14.4545C381.827 13.9811 381.383 13.2973 381.073 12.4034C380.766 11.5095 380.613 10.4356 380.613 9.18182C380.613 7.93182 380.766 6.86174 381.073 5.97159C381.383 5.07765 381.828 4.39394 382.408 3.92045C382.991 3.44318 383.688 3.20455 384.499 3.20455C385.31 3.20455 386.005 3.44318 386.584 3.92045C387.167 4.39394 387.613 5.07765 387.919 5.97159C388.23 6.86174 388.385 7.93182 388.385 9.18182C388.385 10.4356 388.23 11.5095 387.919 12.4034C387.613 13.2973 387.169 13.9811 386.59 14.4545C386.014 14.9242 385.317 15.1591 384.499 15.1591ZM384.499 14.2045C385.397 14.2045 386.097 13.767 386.601 12.892C387.105 12.0133 387.357 10.7765 387.357 9.18182C387.357 8.12121 387.241 7.21591 387.01 6.46591C386.783 5.71212 386.455 5.13636 386.027 4.73864C385.603 4.34091 385.094 4.14205 384.499 4.14205C383.609 4.14205 382.91 4.58523 382.402 5.47159C381.895 6.35417 381.641 7.59091 381.641 9.18182C381.641 10.2424 381.755 11.1477 381.982 11.8977C382.213 12.6477 382.541 13.2197 382.965 13.6136C383.393 14.0076 383.904 14.2045 384.499 14.2045ZM391.363 6.27273L393.613 9.99432L395.863 6.27273H397.039L394.232 10.6364L397.039 15H395.863L393.613 11.3977L391.363 15H390.192L392.965 10.6364L390.192 6.27273H391.363Z" fill="#666666"/>
<path d="M573.429 3.36364V15H572.367V4.47727H572.299L569.571 6.28977V5.1875L572.321 3.36364H573.429ZM577.628 6.27273L579.878 9.99432L582.128 6.27273H583.304L580.498 10.6364L583.304 15H582.128L579.878 11.3977L577.628 15H576.458L579.23 10.6364L576.458 6.27273H577.628Z" fill="#666666"/>
<path d="M728.804 3.36364V15H727.742V4.47727H727.674L724.946 6.28977V5.1875L727.696 3.36364H728.804ZM733.003 6.27273L735.253 9.99432L737.503 6.27273H738.679L735.873 10.6364L738.679 15H737.503L735.253 11.3977L733.003 15H731.833L734.605 10.6364L731.833 6.27273H733.003Z" fill="#666666"/>
<path d="M877.453 3.36364V15H876.39V4.47727H876.322L873.595 6.28977V5.1875L876.345 3.36364H877.453ZM884.6 15.1591C883.782 15.1591 883.083 14.9242 882.504 14.4545C881.928 13.9811 881.485 13.2973 881.174 12.4034C880.868 11.5095 880.714 10.4356 880.714 9.18182C880.714 7.93182 880.868 6.86174 881.174 5.97159C881.485 5.07765 881.93 4.39394 882.51 3.92045C883.093 3.44318 883.79 3.20455 884.6 3.20455C885.411 3.20455 886.106 3.44318 886.686 3.92045C887.269 4.39394 887.714 5.07765 888.021 5.97159C888.332 6.86174 888.487 7.93182 888.487 9.18182C888.487 10.4356 888.332 11.5095 888.021 12.4034C887.714 13.2973 887.271 13.9811 886.691 14.4545C886.116 14.9242 885.419 15.1591 884.6 15.1591ZM884.6 14.2045C885.498 14.2045 886.199 13.767 886.703 12.892C887.207 12.0133 887.458 10.7765 887.458 9.18182C887.458 8.12121 887.343 7.21591 887.112 6.46591C886.885 5.71212 886.557 5.13636 886.129 4.73864C885.705 4.34091 885.195 4.14205 884.6 4.14205C883.71 4.14205 883.011 4.58523 882.504 5.47159C881.996 6.35417 881.743 7.59091 881.743 9.18182C881.743 10.2424 881.856 11.1477 882.083 11.8977C882.315 12.6477 882.642 13.2197 883.066 13.6136C883.494 14.0076 884.006 14.2045 884.6 14.2045ZM891.464 6.27273L893.714 9.99432L895.964 6.27273H897.14L894.333 10.6364L897.14 15H895.964L893.714 11.3977L891.464 15H890.294L893.066 10.6364L890.294 6.27273H891.464Z" fill="#666666"/>
</svg>
