<svg width="899" height="28" viewBox="0 0 899 28" fill="none" xmlns="http://www.w3.org/2000/svg">
<path d="M7.32386 11.0051C7.27841 10.5468 7.08333 10.1908 6.73864 9.93697C6.39394 9.68318 5.92614 9.55628 5.33523 9.55628C4.93371 9.55628 4.5947 9.6131 4.31818 9.72674C4.04167 9.83659 3.82955 9.99 3.68182 10.187C3.53788 10.3839 3.46591 10.6074 3.46591 10.8574C3.45833 11.0658 3.50189 11.2476 3.59659 11.4029C3.69508 11.5582 3.82955 11.6926 4 11.8063C4.17045 11.9161 4.36742 12.0127 4.59091 12.0961C4.81439 12.1756 5.05303 12.2438 5.30682 12.3006L6.35227 12.5506C6.85985 12.6642 7.32576 12.8158 7.75 13.0051C8.17424 13.1945 8.54167 13.4275 8.85227 13.704C9.16288 13.9805 9.40341 14.3063 9.57386 14.6813C9.74811 15.0563 9.83712 15.4862 9.84091 15.9711C9.83712 16.6832 9.6553 17.3006 9.29545 17.8233C8.93939 18.3423 8.42424 18.7457 7.75 19.0336C7.07955 19.3176 6.27083 19.4597 5.32386 19.4597C4.38447 19.4597 3.56629 19.3158 2.86932 19.0279C2.17614 18.74 1.63447 18.3139 1.24432 17.7495C0.857955 17.1813 0.655303 16.4786 0.636364 15.6415H3.01705C3.04356 16.0317 3.1553 16.3574 3.35227 16.6188C3.55303 16.8764 3.82008 17.0714 4.15341 17.204C4.49053 17.3328 4.87121 17.3972 5.29545 17.3972C5.71212 17.3972 6.07386 17.3366 6.38068 17.2154C6.69129 17.0942 6.93182 16.9256 7.10227 16.7097C7.27273 16.4938 7.35795 16.2457 7.35795 15.9654C7.35795 15.704 7.2803 15.4843 7.125 15.3063C6.97348 15.1283 6.75 14.9767 6.45455 14.8517C6.16288 14.7267 5.80492 14.6131 5.38068 14.5108L4.11364 14.1926C3.13258 13.954 2.35795 13.5809 1.78977 13.0733C1.22159 12.5658 0.939394 11.882 0.943182 11.0222C0.939394 10.3176 1.12689 9.70212 1.50568 9.1756C1.88826 8.64909 2.41288 8.2381 3.07955 7.94265C3.74621 7.64719 4.50379 7.49947 5.35227 7.49947C6.21591 7.49947 6.9697 7.64719 7.61364 7.94265C8.26136 8.2381 8.76515 8.64909 9.125 9.1756C9.48485 9.70212 9.67045 10.312 9.68182 11.0051H7.32386ZM11.4503 19.2949V10.5676H13.8707V19.2949H11.4503ZM12.6662 9.44265C12.3063 9.44265 11.9976 9.32333 11.7401 9.08469C11.4863 8.84227 11.3594 8.5525 11.3594 8.21538C11.3594 7.88204 11.4863 7.59606 11.7401 7.35742C11.9976 7.115 12.3063 6.99378 12.6662 6.99378C13.026 6.99378 13.3329 7.115 13.5866 7.35742C13.8442 7.59606 13.973 7.88204 13.973 8.21538C13.973 8.5525 13.8442 8.84227 13.5866 9.08469C13.3329 9.32333 13.026 9.44265 12.6662 9.44265ZM18.2301 7.65856V19.2949H15.8097V7.65856H18.2301ZM22.5895 7.65856V19.2949H20.169V7.65856H22.5895ZM27.017 19.4597C26.4602 19.4597 25.964 19.3631 25.5284 19.1699C25.0928 18.973 24.7481 18.6832 24.4943 18.3006C24.2443 17.9142 24.1193 17.4332 24.1193 16.8574C24.1193 16.3726 24.2083 15.9654 24.3864 15.6358C24.5644 15.3063 24.8068 15.0411 25.1136 14.8404C25.4205 14.6396 25.7689 14.4881 26.1591 14.3858C26.553 14.2836 26.9659 14.2116 27.3977 14.1699C27.9053 14.1169 28.3144 14.0676 28.625 14.0222C28.9356 13.973 29.161 13.901 29.3011 13.8063C29.4413 13.7116 29.5114 13.5714 29.5114 13.3858V13.3517C29.5114 12.9919 29.3977 12.7135 29.1705 12.5165C28.947 12.3195 28.6288 12.2211 28.2159 12.2211C27.7803 12.2211 27.4337 12.3176 27.1761 12.5108C26.9186 12.7002 26.7481 12.9389 26.6648 13.2267L24.4261 13.0449C24.5398 12.5146 24.7633 12.0563 25.0966 11.6699C25.4299 11.2798 25.8598 10.9805 26.3864 10.7722C26.9167 10.5601 27.5303 10.454 28.2273 10.454C28.7121 10.454 29.1761 10.5108 29.6193 10.6245C30.0663 10.7381 30.4621 10.9142 30.8068 11.1529C31.1553 11.3915 31.4299 11.6983 31.6307 12.0733C31.8314 12.4445 31.9318 12.8896 31.9318 13.4086V19.2949H29.6364V18.0847H29.5682C29.428 18.3574 29.2405 18.598 29.0057 18.8063C28.7708 19.0108 28.4886 19.1718 28.1591 19.2892C27.8295 19.4029 27.4489 19.4597 27.017 19.4597ZM27.7102 17.7892C28.0663 17.7892 28.3807 17.7192 28.6534 17.579C28.9261 17.4351 29.1402 17.2419 29.2955 16.9995C29.4508 16.757 29.5284 16.4824 29.5284 16.1756V15.2495C29.4527 15.2987 29.3485 15.3442 29.2159 15.3858C29.0871 15.4237 28.9413 15.4597 28.7784 15.4938C28.6155 15.5241 28.4527 15.5525 28.2898 15.579C28.1269 15.6017 27.9792 15.6226 27.8466 15.6415C27.5625 15.6832 27.3144 15.7495 27.1023 15.8404C26.8902 15.9313 26.7254 16.0544 26.608 16.2097C26.4905 16.3612 26.4318 16.5506 26.4318 16.7779C26.4318 17.1074 26.5511 17.3593 26.7898 17.5336C27.0322 17.704 27.339 17.7892 27.7102 17.7892ZM37.7415 22.7495C36.9574 22.7495 36.285 22.6415 35.7244 22.4256C35.1676 22.2135 34.7244 21.9237 34.3949 21.5563C34.0653 21.1889 33.8513 20.776 33.7528 20.3176L35.9915 20.0165C36.0597 20.1908 36.1676 20.3536 36.3153 20.5051C36.4631 20.6567 36.6581 20.7779 36.9006 20.8688C37.1468 20.9635 37.446 21.0108 37.7983 21.0108C38.3248 21.0108 38.7585 20.882 39.0994 20.6245C39.4441 20.3707 39.6165 19.9445 39.6165 19.3461V17.7495H39.5142C39.4081 17.9919 39.2491 18.2211 39.0369 18.437C38.8248 18.6529 38.5521 18.829 38.2188 18.9654C37.8854 19.1017 37.4877 19.1699 37.0256 19.1699C36.3703 19.1699 35.7737 19.0184 35.2358 18.7154C34.7017 18.4086 34.2756 17.9408 33.9574 17.312C33.643 16.6794 33.4858 15.8801 33.4858 14.9142C33.4858 13.9256 33.6468 13.0998 33.9688 12.437C34.2907 11.7741 34.7188 11.2779 35.2528 10.9483C35.7907 10.6188 36.3797 10.454 37.0199 10.454C37.5085 10.454 37.9176 10.5373 38.2472 10.704C38.5767 10.8669 38.8419 11.0714 39.0426 11.3176C39.2472 11.5601 39.4044 11.7987 39.5142 12.0336H39.6051V10.5676H42.0085V19.3801C42.0085 20.1226 41.8267 20.7438 41.4631 21.2438C41.0994 21.7438 40.5956 22.1188 39.9517 22.3688C39.3116 22.6226 38.5748 22.7495 37.7415 22.7495ZM37.7926 17.3517C38.1828 17.3517 38.5123 17.2551 38.7812 17.062C39.054 16.865 39.2623 16.5847 39.4062 16.2211C39.554 15.8536 39.6278 15.4142 39.6278 14.9029C39.6278 14.3915 39.5559 13.9483 39.4119 13.5733C39.268 13.1945 39.0597 12.901 38.7869 12.6926C38.5142 12.4843 38.1828 12.3801 37.7926 12.3801C37.3949 12.3801 37.0597 12.4881 36.7869 12.704C36.5142 12.9161 36.3078 13.2116 36.1676 13.5904C36.0275 13.9692 35.9574 14.4067 35.9574 14.9029C35.9574 15.4067 36.0275 15.8423 36.1676 16.2097C36.3116 16.5733 36.518 16.8555 36.7869 17.0563C37.0597 17.2533 37.3949 17.3517 37.7926 17.3517ZM47.9119 19.4654C47.0142 19.4654 46.2415 19.2836 45.5938 18.9199C44.9498 18.5525 44.4536 18.0336 44.1051 17.3631C43.7566 16.6889 43.5824 15.8915 43.5824 14.9711C43.5824 14.0733 43.7566 13.2855 44.1051 12.6074C44.4536 11.9294 44.9441 11.401 45.5767 11.0222C46.2131 10.6434 46.9593 10.454 47.8153 10.454C48.3911 10.454 48.9271 10.5468 49.4233 10.7324C49.9233 10.9142 50.3589 11.1889 50.7301 11.5563C51.1051 11.9237 51.3968 12.3858 51.6051 12.9426C51.8134 13.4957 51.9176 14.1434 51.9176 14.8858V15.5506H44.5483V14.0506H49.6392C49.6392 13.7021 49.5634 13.3934 49.4119 13.1245C49.2604 12.8555 49.0502 12.6453 48.7812 12.4938C48.5161 12.3385 48.2074 12.2608 47.8551 12.2608C47.4877 12.2608 47.1619 12.3461 46.8778 12.5165C46.5975 12.6832 46.3778 12.9086 46.2188 13.1926C46.0597 13.473 45.9782 13.7855 45.9744 14.1301V15.5563C45.9744 15.9881 46.054 16.3612 46.2131 16.6756C46.3759 16.99 46.6051 17.2324 46.9006 17.4029C47.196 17.5733 47.5464 17.6586 47.9517 17.6586C48.2206 17.6586 48.4669 17.6207 48.6903 17.5449C48.9138 17.4692 49.1051 17.3555 49.2642 17.204C49.4233 17.0525 49.5445 16.8669 49.6278 16.6472L51.8665 16.7949C51.7528 17.3328 51.5199 17.8025 51.1676 18.204C50.8191 18.6017 50.3684 18.9123 49.8153 19.1358C49.2661 19.3555 48.6316 19.4654 47.9119 19.4654Z" fill="#666666"/>
<rect x="563.005" y="0.508583" width="26.7854" height="26.7854" rx="13.3927" stroke="#322D2D" stroke-width="1.01717"/>
<path fill-rule="evenodd" clip-rule="evenodd" d="M575.683 13.9006L571.916 10.1331L572.631 9.41799L576.398 13.1855L580.166 9.41817L580.881 10.1333L577.113 13.9006L580.881 17.6677L580.165 18.3828L576.398 14.6157L572.631 18.383L571.916 17.6679L575.683 13.9006Z" fill="#322D2D"/>
<rect x="718.38" y="0.508583" width="26.7854" height="26.7854" rx="13.3927" stroke="#322D2D" stroke-width="1.01717"/>
<path fill-rule="evenodd" clip-rule="evenodd" d="M731.058 13.9006L727.291 10.1331L728.006 9.41799L731.773 13.1855L735.541 9.41817L736.256 10.1333L732.488 13.9006L736.256 17.6677L735.54 18.3828L731.773 14.6157L728.006 18.383L727.291 17.6679L731.058 13.9006Z" fill="#322D2D"/>
<rect x="871.481" y="0.508583" width="26.7854" height="26.7854" rx="13.3927" stroke="#322D2D" stroke-width="1.01717"/>
<path fill-rule="evenodd" clip-rule="evenodd" d="M884.16 13.9006L880.392 10.1331L881.107 9.41799L884.875 13.1855L888.642 9.41817L889.357 10.1333L885.59 13.9006L889.357 17.6677L888.642 18.3828L884.875 14.6157L881.108 18.383L880.392 17.6679L884.16 13.9006Z" fill="#322D2D"/>
<rect x="370.367" width="27.8025" height="27.8025" rx="13.9013" fill="#032E15"/>
<path d="M377.555 13.901L382.031 18.3777L390.985 9.42383" stroke="#F0EEE6" stroke-width="1.01717"/>
</svg>
