<svg width="890" height="20" viewBox="0 0 890 20" fill="none" xmlns="http://www.w3.org/2000/svg">
<path d="M1.01136 15V3.36364H5.67045C6.52652 3.36364 7.24053 3.49053 7.8125 3.74432C8.38447 3.99811 8.81439 4.35038 9.10227 4.80114C9.39015 5.24811 9.53409 5.76326 9.53409 6.34659C9.53409 6.80114 9.44318 7.20076 9.26136 7.54545C9.07955 7.88636 8.82955 8.16667 8.51136 8.38636C8.19697 8.60227 7.83712 8.75568 7.43182 8.84659V8.96023C7.875 8.97917 8.28977 9.10417 8.67614 9.33523C9.06629 9.56629 9.38258 9.89015 9.625 10.3068C9.86742 10.7197 9.98864 11.2121 9.98864 11.7841C9.98864 12.4015 9.83523 12.9527 9.52841 13.4375C9.22538 13.9186 8.77652 14.2992 8.18182 14.5795C7.58712 14.8598 6.85417 15 5.98295 15H1.01136ZM3.47159 12.9886H5.47727C6.16288 12.9886 6.66288 12.858 6.97727 12.5966C7.29167 12.3314 7.44886 11.9792 7.44886 11.5398C7.44886 11.2178 7.37121 10.9337 7.21591 10.6875C7.06061 10.4413 6.83902 10.2481 6.55114 10.108C6.26705 9.9678 5.92803 9.89773 5.53409 9.89773H3.47159V12.9886ZM3.47159 8.23295H5.29545C5.63258 8.23295 5.93182 8.17424 6.19318 8.05682C6.45833 7.93561 6.66667 7.76515 6.81818 7.54545C6.97348 7.32576 7.05114 7.0625 7.05114 6.75568C7.05114 6.33523 6.90152 5.99621 6.60227 5.73864C6.30682 5.48106 5.88636 5.35227 5.34091 5.35227H3.47159V8.23295ZM15.4872 15.1705C14.6046 15.1705 13.8414 14.983 13.1974 14.608C12.5573 14.2292 12.063 13.7027 11.7145 13.0284C11.366 12.3504 11.1918 11.5644 11.1918 10.6705C11.1918 9.76894 11.366 8.98106 11.7145 8.30682C12.063 7.62879 12.5573 7.10227 13.1974 6.72727C13.8414 6.34848 14.6046 6.15909 15.4872 6.15909C16.3698 6.15909 17.1312 6.34848 17.7713 6.72727C18.4152 7.10227 18.9115 7.62879 19.2599 8.30682C19.6084 8.98106 19.7827 9.76894 19.7827 10.6705C19.7827 11.5644 19.6084 12.3504 19.2599 13.0284C18.9115 13.7027 18.4152 14.2292 17.7713 14.608C17.1312 14.983 16.3698 15.1705 15.4872 15.1705ZM15.4986 13.2955C15.9001 13.2955 16.2353 13.1818 16.5043 12.9545C16.7732 12.7235 16.9759 12.4091 17.1122 12.0114C17.2524 11.6136 17.3224 11.161 17.3224 10.6534C17.3224 10.1458 17.2524 9.69318 17.1122 9.29545C16.9759 8.89773 16.7732 8.58333 16.5043 8.35227C16.2353 8.12121 15.9001 8.00568 15.4986 8.00568C15.0933 8.00568 14.7524 8.12121 14.4759 8.35227C14.2031 8.58333 13.9967 8.89773 13.8565 9.29545C13.7202 9.69318 13.652 10.1458 13.652 10.6534C13.652 11.161 13.7202 11.6136 13.8565 12.0114C13.9967 12.4091 14.2031 12.7235 14.4759 12.9545C14.7524 13.1818 15.0933 13.2955 15.4986 13.2955ZM25.9986 6.27273V8.09091H20.7429V6.27273H25.9986ZM21.9361 4.18182H24.3565V12.3182C24.3565 12.5417 24.3906 12.7159 24.4588 12.8409C24.527 12.9621 24.6217 13.0473 24.7429 13.0966C24.8679 13.1458 25.0118 13.1705 25.1747 13.1705C25.2884 13.1705 25.402 13.161 25.5156 13.142C25.6293 13.1193 25.7164 13.1023 25.777 13.0909L26.1577 14.892C26.0365 14.9299 25.866 14.9735 25.6463 15.0227C25.4266 15.0758 25.1596 15.108 24.8452 15.1193C24.2618 15.142 23.7505 15.0644 23.3111 14.8864C22.8755 14.7083 22.5365 14.4318 22.294 14.0568C22.0516 13.6818 21.9323 13.2083 21.9361 12.6364V4.18182ZM32.2173 6.27273V8.09091H26.9616V6.27273H32.2173ZM28.1548 4.18182H30.5753V12.3182C30.5753 12.5417 30.6094 12.7159 30.6776 12.8409C30.7457 12.9621 30.8404 13.0473 30.9616 13.0966C31.0866 13.1458 31.2306 13.1705 31.3935 13.1705C31.5071 13.1705 31.6207 13.161 31.7344 13.142C31.848 13.1193 31.9351 13.1023 31.9957 13.0909L32.3764 14.892C32.2552 14.9299 32.0848 14.9735 31.8651 15.0227C31.6454 15.0758 31.3783 15.108 31.0639 15.1193C30.4806 15.142 29.9692 15.0644 29.5298 14.8864C29.0942 14.7083 28.7552 14.4318 28.5128 14.0568C28.2704 13.6818 28.151 13.2083 28.1548 12.6364V4.18182ZM36.402 3.36364V15H33.9815V3.36364H36.402ZM42.3182 15.1705C41.4205 15.1705 40.6477 14.9886 40 14.625C39.3561 14.2576 38.8598 13.7386 38.5114 13.0682C38.1629 12.3939 37.9886 11.5966 37.9886 10.6761C37.9886 9.77841 38.1629 8.99053 38.5114 8.3125C38.8598 7.63447 39.3504 7.10606 39.983 6.72727C40.6193 6.34848 41.3655 6.15909 42.2216 6.15909C42.7973 6.15909 43.3333 6.25189 43.8295 6.4375C44.3295 6.61932 44.7652 6.89394 45.1364 7.26136C45.5114 7.62879 45.803 8.09091 46.0114 8.64773C46.2197 9.20076 46.3239 9.84848 46.3239 10.5909V11.2557H38.9545V9.75568H44.0455C44.0455 9.4072 43.9697 9.09848 43.8182 8.82955C43.6667 8.56061 43.4564 8.35038 43.1875 8.19886C42.9223 8.04356 42.6136 7.96591 42.2614 7.96591C41.8939 7.96591 41.5682 8.05114 41.2841 8.22159C41.0038 8.38826 40.7841 8.61364 40.625 8.89773C40.4659 9.17803 40.3845 9.49053 40.3807 9.83523V11.2614C40.3807 11.6932 40.4602 12.0663 40.6193 12.3807C40.7822 12.6951 41.0114 12.9375 41.3068 13.108C41.6023 13.2784 41.9527 13.3636 42.358 13.3636C42.6269 13.3636 42.8731 13.3258 43.0966 13.25C43.3201 13.1742 43.5114 13.0606 43.6705 12.9091C43.8295 12.7576 43.9508 12.572 44.0341 12.3523L46.2727 12.5C46.1591 13.0379 45.9261 13.5076 45.5739 13.9091C45.2254 14.3068 44.7746 14.6174 44.2216 14.8409C43.6723 15.0606 43.0379 15.1705 42.3182 15.1705ZM55.777 15H51.652V3.36364H55.8111C56.9815 3.36364 57.9891 3.59659 58.8338 4.0625C59.6785 4.52462 60.3281 5.18939 60.7827 6.05682C61.241 6.92424 61.4702 7.96212 61.4702 9.17045C61.4702 10.3826 61.241 11.4242 60.7827 12.2955C60.3281 13.1667 59.6747 13.8352 58.8224 14.3011C57.974 14.767 56.9588 15 55.777 15ZM54.1122 12.892H55.6747C56.402 12.892 57.0137 12.7633 57.5099 12.5057C58.0099 12.2443 58.3849 11.8409 58.6349 11.2955C58.8887 10.7462 59.0156 10.0379 59.0156 9.17045C59.0156 8.31061 58.8887 7.60795 58.6349 7.0625C58.3849 6.51705 58.0118 6.11553 57.5156 5.85795C57.0194 5.60038 56.4077 5.47159 55.6804 5.47159H54.1122V12.892ZM67.2244 15.1705C66.3267 15.1705 65.554 14.9886 64.9062 14.625C64.2623 14.2576 63.7661 13.7386 63.4176 13.0682C63.0691 12.3939 62.8949 11.5966 62.8949 10.6761C62.8949 9.77841 63.0691 8.99053 63.4176 8.3125C63.7661 7.63447 64.2566 7.10606 64.8892 6.72727C65.5256 6.34848 66.2718 6.15909 67.1278 6.15909C67.7036 6.15909 68.2396 6.25189 68.7358 6.4375C69.2358 6.61932 69.6714 6.89394 70.0426 7.26136C70.4176 7.62879 70.7093 8.09091 70.9176 8.64773C71.1259 9.20076 71.2301 9.84848 71.2301 10.5909V11.2557H63.8608V9.75568H68.9517C68.9517 9.4072 68.8759 9.09848 68.7244 8.82955C68.5729 8.56061 68.3627 8.35038 68.0938 8.19886C67.8286 8.04356 67.5199 7.96591 67.1676 7.96591C66.8002 7.96591 66.4744 8.05114 66.1903 8.22159C65.91 8.38826 65.6903 8.61364 65.5312 8.89773C65.3722 9.17803 65.2907 9.49053 65.2869 9.83523V11.2614C65.2869 11.6932 65.3665 12.0663 65.5256 12.3807C65.6884 12.6951 65.9176 12.9375 66.2131 13.108C66.5085 13.2784 66.8589 13.3636 67.2642 13.3636C67.5331 13.3636 67.7794 13.3258 68.0028 13.25C68.2263 13.1742 68.4176 13.0606 68.5767 12.9091C68.7358 12.7576 68.857 12.572 68.9403 12.3523L71.179 12.5C71.0653 13.0379 70.8324 13.5076 70.4801 13.9091C70.1316 14.3068 69.6809 14.6174 69.1278 14.8409C68.5786 15.0606 67.9441 15.1705 67.2244 15.1705ZM80.071 8.76136L77.8551 8.89773C77.8172 8.70833 77.7358 8.53788 77.6108 8.38636C77.4858 8.23106 77.321 8.10795 77.1165 8.01705C76.9157 7.92235 76.6752 7.875 76.3949 7.875C76.0199 7.875 75.7036 7.95455 75.446 8.11364C75.1884 8.26894 75.0597 8.47727 75.0597 8.73864C75.0597 8.94697 75.143 9.12311 75.3097 9.26705C75.4763 9.41098 75.7623 9.52652 76.1676 9.61364L77.7472 9.93182C78.5956 10.1061 79.2282 10.3864 79.6449 10.7727C80.0616 11.1591 80.2699 11.6667 80.2699 12.2955C80.2699 12.8674 80.1013 13.3693 79.7642 13.8011C79.4309 14.233 78.9725 14.5701 78.3892 14.8125C77.8097 15.0511 77.1411 15.1705 76.3835 15.1705C75.2282 15.1705 74.3078 14.9299 73.6222 14.4489C72.9403 13.964 72.5407 13.3049 72.4233 12.4716L74.804 12.3466C74.8759 12.6989 75.0502 12.9678 75.3267 13.1534C75.6032 13.3352 75.9574 13.4261 76.3892 13.4261C76.8134 13.4261 77.1544 13.3447 77.4119 13.1818C77.6733 13.0152 77.8059 12.8011 77.8097 12.5398C77.8059 12.3201 77.7131 12.1402 77.5312 12C77.3494 11.8561 77.0691 11.7462 76.6903 11.6705L75.179 11.3693C74.3267 11.1989 73.6922 10.9034 73.2756 10.483C72.8627 10.0625 72.6562 9.52652 72.6562 8.875C72.6562 8.31439 72.8078 7.83144 73.1108 7.42614C73.4176 7.02083 73.8475 6.70833 74.4006 6.48864C74.9574 6.26894 75.6089 6.15909 76.3551 6.15909C77.4574 6.15909 78.3248 6.39205 78.9574 6.85795C79.5938 7.32386 79.965 7.95833 80.071 8.76136ZM81.794 15V6.27273H84.2145V15H81.794ZM83.0099 5.14773C82.6501 5.14773 82.3414 5.02841 82.0838 4.78977C81.83 4.54735 81.7031 4.25758 81.7031 3.92045C81.7031 3.58712 81.83 3.30114 82.0838 3.0625C82.3414 2.82008 82.6501 2.69886 83.0099 2.69886C83.3698 2.69886 83.6766 2.82008 83.9304 3.0625C84.188 3.30114 84.3168 3.58712 84.3168 3.92045C84.3168 4.25758 84.188 4.54735 83.9304 4.78977C83.6766 5.02841 83.3698 5.14773 83.0099 5.14773ZM90.0852 18.4545C89.3011 18.4545 88.6288 18.3466 88.0682 18.1307C87.5114 17.9186 87.0682 17.6288 86.7386 17.2614C86.4091 16.8939 86.1951 16.4811 86.0966 16.0227L88.3352 15.7216C88.4034 15.8958 88.5114 16.0587 88.6591 16.2102C88.8068 16.3617 89.0019 16.483 89.2443 16.5739C89.4905 16.6686 89.7898 16.7159 90.142 16.7159C90.6686 16.7159 91.1023 16.5871 91.4432 16.3295C91.7879 16.0758 91.9602 15.6496 91.9602 15.0511V13.4545H91.858C91.7519 13.697 91.5928 13.9261 91.3807 14.142C91.1686 14.358 90.8958 14.5341 90.5625 14.6705C90.2292 14.8068 89.8314 14.875 89.3693 14.875C88.714 14.875 88.1174 14.7235 87.5795 14.4205C87.0455 14.1136 86.6193 13.6458 86.3011 13.017C85.9867 12.3845 85.8295 11.5852 85.8295 10.6193C85.8295 9.63068 85.9905 8.80492 86.3125 8.14205C86.6345 7.47917 87.0625 6.98295 87.5966 6.65341C88.1345 6.32386 88.7235 6.15909 89.3636 6.15909C89.8523 6.15909 90.2614 6.24242 90.5909 6.40909C90.9205 6.57197 91.1856 6.77652 91.3864 7.02273C91.5909 7.26515 91.7481 7.50379 91.858 7.73864H91.9489V6.27273H94.3523V15.0852C94.3523 15.8277 94.1705 16.4489 93.8068 16.9489C93.4432 17.4489 92.9394 17.8239 92.2955 18.0739C91.6553 18.3277 90.9186 18.4545 90.0852 18.4545ZM90.1364 13.0568C90.5265 13.0568 90.8561 12.9602 91.125 12.767C91.3977 12.5701 91.6061 12.2898 91.75 11.9261C91.8977 11.5587 91.9716 11.1193 91.9716 10.608C91.9716 10.0966 91.8996 9.65341 91.7557 9.27841C91.6117 8.89962 91.4034 8.60606 91.1307 8.39773C90.858 8.18939 90.5265 8.08523 90.1364 8.08523C89.7386 8.08523 89.4034 8.19318 89.1307 8.40909C88.858 8.62121 88.6515 8.91667 88.5114 9.29545C88.3712 9.67424 88.3011 10.1117 88.3011 10.608C88.3011 11.1117 88.3712 11.5473 88.5114 11.9148C88.6553 12.2784 88.8617 12.5606 89.1307 12.7614C89.4034 12.9583 89.7386 13.0568 90.1364 13.0568ZM98.6989 9.95455V15H96.2784V6.27273H98.5852V7.8125H98.6875C98.8807 7.30492 99.2045 6.90341 99.6591 6.60795C100.114 6.30871 100.665 6.15909 101.312 6.15909C101.919 6.15909 102.447 6.29167 102.898 6.55682C103.348 6.82197 103.699 7.20076 103.949 7.69318C104.199 8.18182 104.324 8.76515 104.324 9.44318V15H101.903V9.875C101.907 9.34091 101.771 8.92424 101.494 8.625C101.218 8.32197 100.837 8.17045 100.352 8.17045C100.027 8.17045 99.7386 8.24053 99.4886 8.38068C99.2424 8.52083 99.0492 8.72538 98.9091 8.99432C98.7727 9.25947 98.7027 9.57955 98.6989 9.95455ZM116.293 6.71023C116.247 6.25189 116.052 5.89583 115.707 5.64205C115.363 5.38826 114.895 5.26136 114.304 5.26136C113.902 5.26136 113.563 5.31818 113.287 5.43182C113.01 5.54167 112.798 5.69508 112.651 5.89205C112.507 6.08902 112.435 6.3125 112.435 6.5625C112.427 6.77083 112.471 6.95265 112.565 7.10795C112.664 7.26326 112.798 7.39773 112.969 7.51136C113.139 7.62121 113.336 7.7178 113.56 7.80114C113.783 7.88068 114.022 7.94886 114.276 8.00568L115.321 8.25568C115.829 8.36932 116.295 8.52083 116.719 8.71023C117.143 8.89962 117.51 9.13258 117.821 9.40909C118.132 9.68561 118.372 10.0114 118.543 10.3864C118.717 10.7614 118.806 11.1913 118.81 11.6761C118.806 12.3883 118.624 13.0057 118.264 13.5284C117.908 14.0473 117.393 14.4508 116.719 14.7386C116.048 15.0227 115.24 15.1648 114.293 15.1648C113.353 15.1648 112.535 15.0208 111.838 14.733C111.145 14.4451 110.603 14.0189 110.213 13.4545C109.827 12.8864 109.624 12.1837 109.605 11.3466H111.986C112.012 11.7367 112.124 12.0625 112.321 12.3239C112.522 12.5814 112.789 12.7765 113.122 12.9091C113.459 13.0379 113.84 13.1023 114.264 13.1023C114.681 13.1023 115.043 13.0417 115.349 12.9205C115.66 12.7992 115.901 12.6307 116.071 12.4148C116.241 12.1989 116.327 11.9508 116.327 11.6705C116.327 11.4091 116.249 11.1894 116.094 11.0114C115.942 10.8333 115.719 10.6818 115.423 10.5568C115.132 10.4318 114.774 10.3182 114.349 10.2159L113.082 9.89773C112.101 9.65909 111.327 9.28598 110.759 8.77841C110.19 8.27083 109.908 7.58712 109.912 6.72727C109.908 6.02273 110.096 5.4072 110.474 4.88068C110.857 4.35417 111.382 3.94318 112.048 3.64773C112.715 3.35227 113.473 3.20455 114.321 3.20455C115.185 3.20455 115.938 3.35227 116.582 3.64773C117.23 3.94318 117.734 4.35417 118.094 4.88068C118.454 5.4072 118.639 6.01705 118.651 6.71023H116.293ZM124.362 15.1705C123.468 15.1705 122.699 14.9811 122.055 14.6023C121.415 14.2197 120.923 13.6894 120.578 13.0114C120.237 12.3333 120.067 11.553 120.067 10.6705C120.067 9.77652 120.239 8.99242 120.584 8.31818C120.932 7.64015 121.427 7.11174 122.067 6.73295C122.707 6.35038 123.468 6.15909 124.351 6.15909C125.112 6.15909 125.779 6.29735 126.351 6.57386C126.923 6.85038 127.375 7.23864 127.709 7.73864C128.042 8.23864 128.226 8.82576 128.26 9.5H125.976C125.911 9.06439 125.741 8.71401 125.464 8.44886C125.192 8.17992 124.834 8.04545 124.391 8.04545C124.016 8.04545 123.688 8.14773 123.408 8.35227C123.131 8.55303 122.915 8.84659 122.76 9.23295C122.605 9.61932 122.527 10.0871 122.527 10.6364C122.527 11.1932 122.603 11.6667 122.754 12.0568C122.91 12.447 123.127 12.7443 123.408 12.9489C123.688 13.1534 124.016 13.2557 124.391 13.2557C124.667 13.2557 124.915 13.1989 125.135 13.0852C125.358 12.9716 125.542 12.8068 125.686 12.5909C125.834 12.3712 125.93 12.108 125.976 11.8011H128.26C128.222 12.4678 128.04 13.0549 127.714 13.5625C127.393 14.0663 126.947 14.4602 126.379 14.7443C125.811 15.0284 125.139 15.1705 124.362 15.1705ZM133.753 15.1705C132.87 15.1705 132.107 14.983 131.463 14.608C130.823 14.2292 130.329 13.7027 129.98 13.0284C129.632 12.3504 129.457 11.5644 129.457 10.6705C129.457 9.76894 129.632 8.98106 129.98 8.30682C130.329 7.62879 130.823 7.10227 131.463 6.72727C132.107 6.34848 132.87 6.15909 133.753 6.15909C134.635 6.15909 135.397 6.34848 136.037 6.72727C136.681 7.10227 137.177 7.62879 137.526 8.30682C137.874 8.98106 138.048 9.76894 138.048 10.6705C138.048 11.5644 137.874 12.3504 137.526 13.0284C137.177 13.7027 136.681 14.2292 136.037 14.608C135.397 14.983 134.635 15.1705 133.753 15.1705ZM133.764 13.2955C134.166 13.2955 134.501 13.1818 134.77 12.9545C135.039 12.7235 135.241 12.4091 135.378 12.0114C135.518 11.6136 135.588 11.161 135.588 10.6534C135.588 10.1458 135.518 9.69318 135.378 9.29545C135.241 8.89773 135.039 8.58333 134.77 8.35227C134.501 8.12121 134.166 8.00568 133.764 8.00568C133.359 8.00568 133.018 8.12121 132.741 8.35227C132.469 8.58333 132.262 8.89773 132.122 9.29545C131.986 9.69318 131.918 10.1458 131.918 10.6534C131.918 11.161 131.986 11.6136 132.122 12.0114C132.262 12.4091 132.469 12.7235 132.741 12.9545C133.018 13.1818 133.359 13.2955 133.764 13.2955ZM139.622 15V6.27273H141.969V7.79545H142.06C142.219 7.25379 142.486 6.8447 142.861 6.56818C143.236 6.28788 143.668 6.14773 144.156 6.14773C144.277 6.14773 144.408 6.1553 144.548 6.17045C144.688 6.18561 144.812 6.20644 144.918 6.23295V8.38068C144.804 8.34659 144.647 8.31629 144.446 8.28977C144.245 8.26326 144.062 8.25 143.895 8.25C143.539 8.25 143.221 8.32765 142.94 8.48295C142.664 8.63447 142.444 8.84659 142.281 9.11932C142.122 9.39205 142.043 9.70644 142.043 10.0625V15H139.622ZM149.74 15.1705C148.842 15.1705 148.07 14.9886 147.422 14.625C146.778 14.2576 146.282 13.7386 145.933 13.0682C145.585 12.3939 145.411 11.5966 145.411 10.6761C145.411 9.77841 145.585 8.99053 145.933 8.3125C146.282 7.63447 146.772 7.10606 147.405 6.72727C148.041 6.34848 148.787 6.15909 149.643 6.15909C150.219 6.15909 150.755 6.25189 151.251 6.4375C151.751 6.61932 152.187 6.89394 152.558 7.26136C152.933 7.62879 153.225 8.09091 153.433 8.64773C153.642 9.20076 153.746 9.84848 153.746 10.5909V11.2557H146.376V9.75568H151.467C151.467 9.4072 151.392 9.09848 151.24 8.82955C151.089 8.56061 150.878 8.35038 150.609 8.19886C150.344 8.04356 150.036 7.96591 149.683 7.96591C149.316 7.96591 148.99 8.05114 148.706 8.22159C148.426 8.38826 148.206 8.61364 148.047 8.89773C147.888 9.17803 147.806 9.49053 147.803 9.83523V11.2614C147.803 11.6932 147.882 12.0663 148.041 12.3807C148.204 12.6951 148.433 12.9375 148.729 13.108C149.024 13.2784 149.375 13.3636 149.78 13.3636C150.049 13.3636 150.295 13.3258 150.518 13.25C150.742 13.1742 150.933 13.0606 151.092 12.9091C151.251 12.7576 151.373 12.572 151.456 12.3523L153.695 12.5C153.581 13.0379 153.348 13.5076 152.996 13.9091C152.647 14.3068 152.196 14.6174 151.643 14.8409C151.094 15.0606 150.46 15.1705 149.74 15.1705Z" fill="#666666"/>
<path d="M384.131 3.20455C384.616 3.20833 385.086 3.30682 385.54 3.5C385.999 3.68939 386.412 3.99621 386.779 4.42045C387.147 4.84091 387.438 5.40151 387.654 6.10227C387.87 6.79924 387.978 7.6572 387.978 8.67614C387.978 9.62689 387.895 10.4981 387.728 11.2898C387.561 12.0814 387.311 12.767 386.978 13.3466C386.648 13.9223 386.232 14.3693 385.728 14.6875C385.228 15.0019 384.643 15.1591 383.972 15.1591C383.347 15.1591 382.792 15.0284 382.308 14.767C381.826 14.5057 381.436 14.1439 381.137 13.6818C380.838 13.2159 380.652 12.678 380.58 12.0682H381.626C381.728 12.6894 381.978 13.2008 382.376 13.6023C382.777 14.0038 383.309 14.2045 383.972 14.2045C384.923 14.2045 385.662 13.7614 386.188 12.875C386.715 11.9886 386.978 10.7273 386.978 9.09091H386.904C386.722 9.43182 386.484 9.72917 386.188 9.98295C385.897 10.2367 385.563 10.4356 385.188 10.5795C384.813 10.7197 384.417 10.7898 384.001 10.7898C383.353 10.7898 382.76 10.6269 382.222 10.3011C381.684 9.97159 381.254 9.52273 380.933 8.95455C380.611 8.38258 380.45 7.73106 380.45 7C380.45 6.31061 380.601 5.67803 380.904 5.10227C381.211 4.52273 381.639 4.06061 382.188 3.71591C382.741 3.36742 383.389 3.19697 384.131 3.20455ZM384.131 4.15909C383.628 4.15909 383.175 4.28788 382.773 4.54545C382.376 4.79924 382.059 5.14205 381.825 5.57386C381.594 6.00189 381.478 6.47727 381.478 7C381.478 7.52652 381.594 8.00568 381.825 8.4375C382.059 8.86553 382.376 9.20644 382.773 9.46023C383.175 9.71023 383.628 9.83523 384.131 9.83523C384.518 9.83523 384.878 9.75758 385.211 9.60227C385.544 9.44318 385.832 9.22727 386.075 8.95455C386.321 8.68182 386.506 8.37311 386.631 8.02841C386.76 7.67992 386.811 7.31439 386.785 6.93182C386.739 6.40151 386.597 5.92803 386.359 5.51136C386.124 5.09091 385.813 4.76136 385.427 4.52273C385.044 4.2803 384.612 4.15909 384.131 4.15909Z" fill="#666666"/>
<path d="M576.273 15.1591C575.625 15.1591 575.046 15.0284 574.534 14.767C574.027 14.5019 573.622 14.1383 573.319 13.6761C573.019 13.214 572.86 12.6856 572.841 12.0909H573.87C573.904 12.7083 574.146 13.2159 574.597 13.6136C575.048 14.0076 575.606 14.2045 576.273 14.2045C576.792 14.2045 577.254 14.0814 577.659 13.8352C578.065 13.5852 578.381 13.2443 578.608 12.8125C578.839 12.3769 578.955 11.8864 578.955 11.3409C578.951 10.7727 578.828 10.2727 578.586 9.84091C578.343 9.4053 578.014 9.06439 577.597 8.81818C577.184 8.57197 576.72 8.44886 576.205 8.44886C575.815 8.44508 575.432 8.50947 575.057 8.64205C574.682 8.77462 574.37 8.94508 574.12 9.15341L573.057 9.01705L573.756 3.36364H579.506V4.31818H574.648L574.182 8.21023H574.239C574.497 7.99432 574.809 7.81818 575.176 7.68182C575.548 7.54545 575.94 7.47727 576.353 7.47727C577.038 7.47727 577.654 7.64205 578.199 7.97159C578.748 8.30114 579.182 8.75568 579.5 9.33523C579.822 9.91098 579.983 10.5739 579.983 11.3239C579.983 12.0587 579.822 12.7159 579.5 13.2955C579.182 13.8712 578.743 14.3258 578.182 14.6591C577.625 14.9924 576.989 15.1591 576.273 15.1591Z" fill="#666666"/>
<path d="M731.8 15.1591C731.319 15.1553 730.849 15.0587 730.391 14.8693C729.933 14.6761 729.52 14.3674 729.152 13.9432C728.785 13.5152 728.493 12.9508 728.277 12.25C728.061 11.5492 727.953 10.6875 727.953 9.66477C727.953 8.7178 728.037 7.85038 728.203 7.0625C728.37 6.27462 728.62 5.5928 728.953 5.01705C729.287 4.44129 729.703 3.99621 730.203 3.68182C730.703 3.36364 731.289 3.20455 731.959 3.20455C732.588 3.20455 733.143 3.33523 733.624 3.59659C734.105 3.85417 734.495 4.21401 734.794 4.67614C735.094 5.13826 735.281 5.67045 735.357 6.27273H734.311C734.205 5.65909 733.953 5.15341 733.556 4.75568C733.158 4.35795 732.626 4.15909 731.959 4.15909C731.005 4.15909 730.266 4.60227 729.743 5.48864C729.221 6.37121 728.957 7.625 728.953 9.25H729.027C729.213 8.9053 729.452 8.60795 729.743 8.35795C730.039 8.10417 730.374 7.9072 730.749 7.76705C731.124 7.62311 731.518 7.55114 731.931 7.55114C732.578 7.55114 733.171 7.71591 733.709 8.04545C734.247 8.37121 734.677 8.82008 734.999 9.39205C735.321 9.96023 735.482 10.6098 735.482 11.3409C735.482 12.0341 735.328 12.6723 735.022 13.2557C734.719 13.839 734.291 14.303 733.738 14.6477C733.188 14.9924 732.542 15.1629 731.8 15.1591ZM731.8 14.2045C732.308 14.2045 732.76 14.0758 733.158 13.8182C733.56 13.5606 733.876 13.2159 734.107 12.7841C734.338 12.3485 734.453 11.8674 734.453 11.3409C734.453 10.8144 734.338 10.3371 734.107 9.90909C733.876 9.48106 733.56 9.14015 733.158 8.88636C732.76 8.63258 732.308 8.50568 731.8 8.50568C731.414 8.50568 731.054 8.58523 730.721 8.74432C730.387 8.89962 730.097 9.11364 729.851 9.38636C729.609 9.6553 729.423 9.96402 729.294 10.3125C729.169 10.661 729.122 11.0265 729.152 11.4091C729.194 11.9432 729.332 12.4223 729.567 12.8466C729.806 13.267 730.116 13.5985 730.499 13.8409C730.885 14.0833 731.319 14.2045 731.8 14.2045Z" fill="#666666"/>
<path d="M880.741 15V14.2216L884.542 9.94886C885.038 9.38826 885.438 8.90909 885.741 8.51136C886.044 8.11364 886.263 7.74621 886.4 7.40909C886.54 7.07197 886.61 6.72159 886.61 6.35795C886.61 5.91477 886.506 5.52841 886.298 5.19886C886.093 4.86553 885.811 4.60606 885.451 4.42045C885.091 4.23485 884.686 4.14205 884.235 4.14205C883.758 4.14205 883.339 4.24432 882.979 4.44886C882.623 4.65341 882.347 4.93371 882.15 5.28977C881.953 5.64583 881.854 6.05492 881.854 6.51705H880.837C880.837 5.87311 880.985 5.30303 881.281 4.80682C881.58 4.30682 881.987 3.91477 882.502 3.63068C883.021 3.34659 883.608 3.20455 884.263 3.20455C884.911 3.20455 885.487 3.3447 885.991 3.625C886.495 3.90151 886.89 4.27841 887.178 4.75568C887.466 5.23295 887.61 5.76705 887.61 6.35795C887.61 6.78598 887.534 7.20076 887.383 7.60227C887.235 8.00379 886.979 8.45076 886.616 8.94318C886.252 9.43561 885.748 10.0379 885.104 10.75L882.218 13.9716V14.0455H887.974V15H880.741Z" fill="#666666"/>
</svg>
