<svg width="899" height="29" viewBox="0 0 899 29" fill="none" xmlns="http://www.w3.org/2000/svg">
<path d="M7.32386 11.0051C7.27841 10.5468 7.08333 10.1908 6.73864 9.93697C6.39394 9.68318 5.92614 9.55628 5.33523 9.55628C4.93371 9.55628 4.5947 9.6131 4.31818 9.72674C4.04167 9.83659 3.82955 9.99 3.68182 10.187C3.53788 10.3839 3.46591 10.6074 3.46591 10.8574C3.45833 11.0658 3.50189 11.2476 3.59659 11.4029C3.69508 11.5582 3.82955 11.6926 4 11.8063C4.17045 11.9161 4.36742 12.0127 4.59091 12.0961C4.81439 12.1756 5.05303 12.2438 5.30682 12.3006L6.35227 12.5506C6.85985 12.6642 7.32576 12.8158 7.75 13.0051C8.17424 13.1945 8.54167 13.4275 8.85227 13.704C9.16288 13.9805 9.40341 14.3063 9.57386 14.6813C9.74811 15.0563 9.83712 15.4862 9.84091 15.9711C9.83712 16.6832 9.6553 17.3006 9.29545 17.8233C8.93939 18.3423 8.42424 18.7457 7.75 19.0336C7.07955 19.3176 6.27083 19.4597 5.32386 19.4597C4.38447 19.4597 3.56629 19.3158 2.86932 19.0279C2.17614 18.74 1.63447 18.3139 1.24432 17.7495C0.857955 17.1813 0.655303 16.4786 0.636364 15.6415H3.01705C3.04356 16.0317 3.1553 16.3574 3.35227 16.6188C3.55303 16.8764 3.82008 17.0714 4.15341 17.204C4.49053 17.3328 4.87121 17.3972 5.29545 17.3972C5.71212 17.3972 6.07386 17.3366 6.38068 17.2154C6.69129 17.0942 6.93182 16.9256 7.10227 16.7097C7.27273 16.4938 7.35795 16.2457 7.35795 15.9654C7.35795 15.704 7.2803 15.4843 7.125 15.3063C6.97348 15.1283 6.75 14.9767 6.45455 14.8517C6.16288 14.7267 5.80492 14.6131 5.38068 14.5108L4.11364 14.1926C3.13258 13.954 2.35795 13.5809 1.78977 13.0733C1.22159 12.5658 0.939394 11.882 0.943182 11.0222C0.939394 10.3176 1.12689 9.70212 1.50568 9.1756C1.88826 8.64909 2.41288 8.2381 3.07955 7.94265C3.74621 7.64719 4.50379 7.49947 5.35227 7.49947C6.21591 7.49947 6.9697 7.64719 7.61364 7.94265C8.26136 8.2381 8.76515 8.64909 9.125 9.1756C9.48485 9.70212 9.67045 10.312 9.68182 11.0051H7.32386ZM15.3935 19.4654C14.4995 19.4654 13.7306 19.276 13.0866 18.8972C12.4465 18.5146 11.9541 17.9843 11.6094 17.3063C11.2685 16.6283 11.098 15.848 11.098 14.9654C11.098 14.0714 11.2704 13.2873 11.6151 12.6131C11.9635 11.9351 12.4579 11.4067 13.098 11.0279C13.7382 10.6453 14.4995 10.454 15.3821 10.454C16.1435 10.454 16.8101 10.5923 17.3821 10.8688C17.9541 11.1453 18.4067 11.5336 18.7401 12.0336C19.0734 12.5336 19.2571 13.1207 19.2912 13.7949H17.0071C16.9427 13.3593 16.7723 13.0089 16.4957 12.7438C16.223 12.4748 15.8651 12.3404 15.4219 12.3404C15.0469 12.3404 14.7192 12.4426 14.4389 12.6472C14.1624 12.848 13.9465 13.1415 13.7912 13.5279C13.6359 13.9142 13.5582 14.382 13.5582 14.9313C13.5582 15.4881 13.634 15.9616 13.7855 16.3517C13.9408 16.7419 14.1586 17.0392 14.4389 17.2438C14.7192 17.4483 15.0469 17.5506 15.4219 17.5506C15.6984 17.5506 15.9465 17.4938 16.1662 17.3801C16.3897 17.2665 16.5734 17.1017 16.7173 16.8858C16.8651 16.6661 16.9616 16.4029 17.0071 16.0961H19.2912C19.2533 16.7627 19.0715 17.3498 18.7457 17.8574C18.4238 18.3612 17.9787 18.7551 17.4105 19.0392C16.8423 19.3233 16.17 19.4654 15.3935 19.4654ZM24.8182 19.4654C23.9205 19.4654 23.1477 19.2836 22.5 18.9199C21.8561 18.5525 21.3598 18.0336 21.0114 17.3631C20.6629 16.6889 20.4886 15.8915 20.4886 14.9711C20.4886 14.0733 20.6629 13.2855 21.0114 12.6074C21.3598 11.9294 21.8504 11.401 22.483 11.0222C23.1193 10.6434 23.8655 10.454 24.7216 10.454C25.2973 10.454 25.8333 10.5468 26.3295 10.7324C26.8295 10.9142 27.2652 11.1889 27.6364 11.5563C28.0114 11.9237 28.303 12.3858 28.5114 12.9426C28.7197 13.4957 28.8239 14.1434 28.8239 14.8858V15.5506H21.4545V14.0506H26.5455C26.5455 13.7021 26.4697 13.3934 26.3182 13.1245C26.1667 12.8555 25.9564 12.6453 25.6875 12.4938C25.4223 12.3385 25.1136 12.2608 24.7614 12.2608C24.3939 12.2608 24.0682 12.3461 23.7841 12.5165C23.5038 12.6832 23.2841 12.9086 23.125 13.1926C22.9659 13.473 22.8845 13.7855 22.8807 14.1301V15.5563C22.8807 15.9881 22.9602 16.3612 23.1193 16.6756C23.2822 16.99 23.5114 17.2324 23.8068 17.4029C24.1023 17.5733 24.4527 17.6586 24.858 17.6586C25.1269 17.6586 25.3731 17.6207 25.5966 17.5449C25.8201 17.4692 26.0114 17.3555 26.1705 17.204C26.3295 17.0525 26.4508 16.8669 26.5341 16.6472L28.7727 16.7949C28.6591 17.3328 28.4261 17.8025 28.0739 18.204C27.7254 18.6017 27.2746 18.9123 26.7216 19.1358C26.1723 19.3555 25.5379 19.4654 24.8182 19.4654ZM32.8239 14.2495V19.2949H30.4034V10.5676H32.7102V12.1074H32.8125C33.0057 11.5998 33.3295 11.1983 33.7841 10.9029C34.2386 10.6036 34.7898 10.454 35.4375 10.454C36.0436 10.454 36.572 10.5866 37.0227 10.8517C37.4735 11.1169 37.8239 11.4957 38.0739 11.9881C38.3239 12.4767 38.4489 13.0601 38.4489 13.7381V19.2949H36.0284V14.1699C36.0322 13.6358 35.8958 13.2192 35.6193 12.9199C35.3428 12.6169 34.9621 12.4654 34.4773 12.4654C34.1515 12.4654 33.8636 12.5355 33.6136 12.6756C33.3674 12.8158 33.1742 13.0203 33.0341 13.2892C32.8977 13.5544 32.8277 13.8745 32.8239 14.2495ZM44.9986 10.5676V12.3858H39.7429V10.5676H44.9986ZM40.9361 8.47674H43.3565V16.6131C43.3565 16.8366 43.3906 17.0108 43.4588 17.1358C43.527 17.257 43.6217 17.3423 43.7429 17.3915C43.8679 17.4408 44.0118 17.4654 44.1747 17.4654C44.2884 17.4654 44.402 17.4559 44.5156 17.437C44.6293 17.4142 44.7164 17.3972 44.777 17.3858L45.1577 19.187C45.0365 19.2248 44.866 19.2684 44.6463 19.3176C44.4266 19.3707 44.1596 19.4029 43.8452 19.4142C43.2618 19.437 42.7505 19.3593 42.3111 19.1813C41.8755 19.0033 41.5365 18.7267 41.294 18.3517C41.0516 17.9767 40.9323 17.5033 40.9361 16.9313V8.47674ZM50.3239 19.2949V7.65856H54.9148C55.7973 7.65856 56.5492 7.82712 57.1705 8.16424C57.7917 8.49757 58.2652 8.96159 58.5909 9.55628C58.9205 10.1472 59.0852 10.829 59.0852 11.6017C59.0852 12.3745 58.9186 13.0563 58.5852 13.6472C58.2519 14.2381 57.7689 14.6983 57.1364 15.0279C56.5076 15.3574 55.7462 15.5222 54.8523 15.5222H51.9261V13.5506H54.4545C54.928 13.5506 55.3182 13.4692 55.625 13.3063C55.9356 13.1396 56.1667 12.9105 56.3182 12.6188C56.4735 12.3233 56.5511 11.9843 56.5511 11.6017C56.5511 11.2154 56.4735 10.8783 56.3182 10.5904C56.1667 10.2987 55.9356 10.0733 55.625 9.91424C55.3144 9.75136 54.9205 9.66992 54.4432 9.66992H52.7841V19.2949H50.3239ZM60.6378 19.2949V10.5676H62.9844V12.0904H63.0753C63.2344 11.5487 63.5014 11.1396 63.8764 10.8631C64.2514 10.5828 64.6832 10.4426 65.1719 10.4426C65.2931 10.4426 65.4238 10.4502 65.5639 10.4654C65.7041 10.4805 65.8272 10.5014 65.9332 10.5279V12.6756C65.8196 12.6415 65.6624 12.6112 65.4616 12.5847C65.2609 12.5582 65.0772 12.5449 64.9105 12.5449C64.5545 12.5449 64.2363 12.6226 63.956 12.7779C63.6795 12.9294 63.4598 13.1415 63.2969 13.4142C63.1378 13.687 63.0582 14.0014 63.0582 14.3574V19.2949H60.6378ZM70.7216 19.4654C69.839 19.4654 69.0758 19.2779 68.4318 18.9029C67.7917 18.5241 67.2973 17.9976 66.9489 17.3233C66.6004 16.6453 66.4261 15.8593 66.4261 14.9654C66.4261 14.0639 66.6004 13.276 66.9489 12.6017C67.2973 11.9237 67.7917 11.3972 68.4318 11.0222C69.0758 10.6434 69.839 10.454 70.7216 10.454C71.6042 10.454 72.3655 10.6434 73.0057 11.0222C73.6496 11.3972 74.1458 11.9237 74.4943 12.6017C74.8428 13.276 75.017 14.0639 75.017 14.9654C75.017 15.8593 74.8428 16.6453 74.4943 17.3233C74.1458 17.9976 73.6496 18.5241 73.0057 18.9029C72.3655 19.2779 71.6042 19.4654 70.7216 19.4654ZM70.733 17.5904C71.1345 17.5904 71.4697 17.4767 71.7386 17.2495C72.0076 17.0184 72.2102 16.704 72.3466 16.3063C72.4867 15.9086 72.5568 15.4559 72.5568 14.9483C72.5568 14.4408 72.4867 13.9881 72.3466 13.5904C72.2102 13.1926 72.0076 12.8783 71.7386 12.6472C71.4697 12.4161 71.1345 12.3006 70.733 12.3006C70.3277 12.3006 69.9867 12.4161 69.7102 12.6472C69.4375 12.8783 69.2311 13.1926 69.0909 13.5904C68.9545 13.9881 68.8864 14.4408 68.8864 14.9483C68.8864 15.4559 68.9545 15.9086 69.0909 16.3063C69.2311 16.704 69.4375 17.0184 69.7102 17.2495C69.9867 17.4767 70.3277 17.5904 70.733 17.5904ZM81.2841 10.5676V12.3858H75.8977V10.5676H81.2841ZM77.1307 19.2949V9.93697C77.1307 9.30439 77.2538 8.77977 77.5 8.3631C77.75 7.94644 78.0909 7.63394 78.5227 7.4256C78.9545 7.21727 79.4451 7.1131 79.9943 7.1131C80.3655 7.1131 80.7045 7.14151 81.0114 7.19833C81.322 7.25515 81.553 7.30629 81.7045 7.35174L81.2727 9.16992C81.178 9.13962 81.0606 9.11121 80.9205 9.08469C80.7841 9.05818 80.6439 9.04492 80.5 9.04492C80.1439 9.04492 79.8958 9.12826 79.7557 9.29492C79.6155 9.4578 79.5455 9.68697 79.5455 9.98242V19.2949H77.1307ZM82.7628 19.2949V10.5676H85.1832V19.2949H82.7628ZM83.9787 9.44265C83.6188 9.44265 83.3101 9.32333 83.0526 9.08469C82.7988 8.84227 82.6719 8.5525 82.6719 8.21538C82.6719 7.88204 82.7988 7.59606 83.0526 7.35742C83.3101 7.115 83.6188 6.99378 83.9787 6.99378C84.3385 6.99378 84.6454 7.115 84.8991 7.35742C85.1567 7.59606 85.2855 7.88204 85.2855 8.21538C85.2855 8.5525 85.1567 8.84227 84.8991 9.08469C84.6454 9.32333 84.3385 9.44265 83.9787 9.44265ZM89.5426 7.65856V19.2949H87.1222V7.65856H89.5426ZM95.4588 19.4654C94.5611 19.4654 93.7884 19.2836 93.1406 18.9199C92.4967 18.5525 92.0005 18.0336 91.652 17.3631C91.3035 16.6889 91.1293 15.8915 91.1293 14.9711C91.1293 14.0733 91.3035 13.2855 91.652 12.6074C92.0005 11.9294 92.491 11.401 93.1236 11.0222C93.7599 10.6434 94.5062 10.454 95.3622 10.454C95.938 10.454 96.474 10.5468 96.9702 10.7324C97.4702 10.9142 97.9058 11.1889 98.277 11.5563C98.652 11.9237 98.9437 12.3858 99.152 12.9426C99.3603 13.4957 99.4645 14.1434 99.4645 14.8858V15.5506H92.0952V14.0506H97.1861C97.1861 13.7021 97.1103 13.3934 96.9588 13.1245C96.8073 12.8555 96.5971 12.6453 96.3281 12.4938C96.063 12.3385 95.7543 12.2608 95.402 12.2608C95.0346 12.2608 94.7088 12.3461 94.4247 12.5165C94.1444 12.6832 93.9247 12.9086 93.7656 13.1926C93.6065 13.473 93.5251 13.7855 93.5213 14.1301V15.5563C93.5213 15.9881 93.6009 16.3612 93.7599 16.6756C93.9228 16.99 94.152 17.2324 94.4474 17.4029C94.7429 17.5733 95.0933 17.6586 95.4986 17.6586C95.7675 17.6586 96.0137 17.6207 96.2372 17.5449C96.4607 17.4692 96.652 17.3555 96.8111 17.204C96.9702 17.0525 97.0914 16.8669 97.1747 16.6472L99.4134 16.7949C99.2997 17.3328 99.0668 17.8025 98.7145 18.204C98.366 18.6017 97.9152 18.9123 97.3622 19.1358C96.813 19.3555 96.1785 19.4654 95.4588 19.4654Z" fill="#666666"/>
<rect x="563.478" y="0.911894" width="26.7912" height="26.7912" rx="13.3956" stroke="#322D2D" stroke-width="1.01129"/>
<path d="M570.16 14.3072L574.637 18.784L583.591 9.83008" stroke="#322D2D" stroke-width="1.01717"/>
<rect x="718.38" y="0.508583" width="26.7854" height="26.7854" rx="13.3927" stroke="#322D2D" stroke-width="1.01717"/>
<path fill-rule="evenodd" clip-rule="evenodd" d="M731.058 13.9006L727.291 10.1331L728.006 9.41799L731.773 13.1855L735.541 9.41817L736.256 10.1333L732.488 13.9006L736.256 17.6677L735.54 18.3828L731.773 14.6157L728.006 18.383L727.291 17.6679L731.058 13.9006Z" fill="#322D2D"/>
<rect x="871.481" y="0.508583" width="26.7854" height="26.7854" rx="13.3927" stroke="#322D2D" stroke-width="1.01717"/>
<path fill-rule="evenodd" clip-rule="evenodd" d="M884.16 13.9006L880.392 10.1331L881.107 9.41799L884.875 13.1855L888.642 9.41817L889.357 10.1333L885.59 13.9006L889.357 17.6677L888.642 18.3828L884.875 14.6157L881.108 18.383L880.392 17.6679L884.16 13.9006Z" fill="#322D2D"/>
<rect x="370.367" width="27.8025" height="27.8025" rx="13.9013" fill="#032E15"/>
<path d="M377.555 13.901L382.031 18.3777L390.985 9.42383" stroke="#F0EEE6" stroke-width="1.01717"/>
</svg>
