<svg width="899" height="28" viewBox="0 0 899 28" fill="none" xmlns="http://www.w3.org/2000/svg">
<path d="M1.01136 19.2949V7.65856H5.67045C6.52652 7.65856 7.24053 7.78545 7.8125 8.03924C8.38447 8.29303 8.81439 8.6453 9.10227 9.09606C9.39015 9.54303 9.53409 10.0582 9.53409 10.6415C9.53409 11.0961 9.44318 11.4957 9.26136 11.8404C9.07955 12.1813 8.82955 12.4616 8.51136 12.6813C8.19697 12.8972 7.83712 13.0506 7.43182 13.1415V13.2551C7.875 13.2741 8.28977 13.3991 8.67614 13.6301C9.06629 13.8612 9.38258 14.1851 9.625 14.6017C9.86742 15.0146 9.98864 15.507 9.98864 16.079C9.98864 16.6964 9.83523 17.2476 9.52841 17.7324C9.22538 18.2135 8.77652 18.5942 8.18182 18.8745C7.58712 19.1548 6.85417 19.2949 5.98295 19.2949H1.01136ZM3.47159 17.2836H5.47727C6.16288 17.2836 6.66288 17.1529 6.97727 16.8915C7.29167 16.6264 7.44886 16.2741 7.44886 15.8347C7.44886 15.5127 7.37121 15.2286 7.21591 14.9824C7.06061 14.7362 6.83902 14.543 6.55114 14.4029C6.26705 14.2627 5.92803 14.1926 5.53409 14.1926H3.47159V17.2836ZM3.47159 12.5279H5.29545C5.63258 12.5279 5.93182 12.4692 6.19318 12.3517C6.45833 12.2305 6.66667 12.0601 6.81818 11.8404C6.97348 11.6207 7.05114 11.3574 7.05114 11.0506C7.05114 10.6301 6.90152 10.2911 6.60227 10.0336C6.30682 9.77598 5.88636 9.64719 5.34091 9.64719H3.47159V12.5279ZM13.9645 7.65856V19.2949H11.544V7.65856H13.9645ZM19.8807 19.4654C18.983 19.4654 18.2102 19.2836 17.5625 18.9199C16.9186 18.5525 16.4223 18.0336 16.0739 17.3631C15.7254 16.6889 15.5511 15.8915 15.5511 14.9711C15.5511 14.0733 15.7254 13.2855 16.0739 12.6074C16.4223 11.9294 16.9129 11.401 17.5455 11.0222C18.1818 10.6434 18.928 10.454 19.7841 10.454C20.3598 10.454 20.8958 10.5468 21.392 10.7324C21.892 10.9142 22.3277 11.1889 22.6989 11.5563C23.0739 11.9237 23.3655 12.3858 23.5739 12.9426C23.7822 13.4957 23.8864 14.1434 23.8864 14.8858V15.5506H16.517V14.0506H21.608C21.608 13.7021 21.5322 13.3934 21.3807 13.1245C21.2292 12.8555 21.0189 12.6453 20.75 12.4938C20.4848 12.3385 20.1761 12.2608 19.8239 12.2608C19.4564 12.2608 19.1307 12.3461 18.8466 12.5165C18.5663 12.6832 18.3466 12.9086 18.1875 13.1926C18.0284 13.473 17.947 13.7855 17.9432 14.1301V15.5563C17.9432 15.9881 18.0227 16.3612 18.1818 16.6756C18.3447 16.99 18.5739 17.2324 18.8693 17.4029C19.1648 17.5733 19.5152 17.6586 19.9205 17.6586C20.1894 17.6586 20.4356 17.6207 20.6591 17.5449C20.8826 17.4692 21.0739 17.3555 21.233 17.204C21.392 17.0525 21.5133 16.8669 21.5966 16.6472L23.8352 16.7949C23.7216 17.3328 23.4886 17.8025 23.1364 18.204C22.7879 18.6017 22.3371 18.9123 21.7841 19.1358C21.2348 19.3555 20.6004 19.4654 19.8807 19.4654ZM27.8864 14.2495V19.2949H25.4659V10.5676H27.7727V12.1074H27.875C28.0682 11.5998 28.392 11.1983 28.8466 10.9029C29.3011 10.6036 29.8523 10.454 30.5 10.454C31.1061 10.454 31.6345 10.5866 32.0852 10.8517C32.536 11.1169 32.8864 11.4957 33.1364 11.9881C33.3864 12.4767 33.5114 13.0601 33.5114 13.7381V19.2949H31.0909V14.1699C31.0947 13.6358 30.9583 13.2192 30.6818 12.9199C30.4053 12.6169 30.0246 12.4654 29.5398 12.4654C29.214 12.4654 28.9261 12.5355 28.6761 12.6756C28.4299 12.8158 28.2367 13.0203 28.0966 13.2892C27.9602 13.5544 27.8902 13.8745 27.8864 14.2495ZM38.6349 19.437C37.9721 19.437 37.3717 19.2665 36.8338 18.9256C36.2997 18.5809 35.8755 18.0752 35.5611 17.4086C35.2505 16.7381 35.0952 15.9161 35.0952 14.9426C35.0952 13.9426 35.2562 13.1112 35.5781 12.4483C35.9001 11.7817 36.3281 11.2836 36.8622 10.954C37.4001 10.6207 37.9891 10.454 38.6293 10.454C39.1179 10.454 39.5251 10.5373 39.8509 10.704C40.1804 10.8669 40.4455 11.0714 40.6463 11.3176C40.8509 11.5601 41.0062 11.7987 41.1122 12.0336H41.1861V7.65856H43.6009V19.2949H41.2145V17.8972H41.1122C40.9986 18.1396 40.8376 18.3801 40.6293 18.6188C40.4247 18.8536 40.1577 19.0487 39.8281 19.204C39.5024 19.3593 39.1046 19.437 38.6349 19.437ZM39.402 17.5108C39.7921 17.5108 40.1217 17.4048 40.3906 17.1926C40.6634 16.9767 40.8717 16.6756 41.0156 16.2892C41.1634 15.9029 41.2372 15.4502 41.2372 14.9313C41.2372 14.4123 41.1652 13.9616 41.0213 13.579C40.8774 13.1964 40.669 12.901 40.3963 12.6926C40.1236 12.4843 39.7921 12.3801 39.402 12.3801C39.0043 12.3801 38.669 12.4881 38.3963 12.704C38.1236 12.9199 37.9171 13.2192 37.777 13.6017C37.6368 13.9843 37.5668 14.4275 37.5668 14.9313C37.5668 15.4389 37.6368 15.8877 37.777 16.2779C37.9209 16.6642 38.1274 16.9673 38.3963 17.187C38.669 17.4029 39.0043 17.5108 39.402 17.5108ZM51.7827 19.4597C51.2259 19.4597 50.7296 19.3631 50.294 19.1699C49.8584 18.973 49.5137 18.6832 49.2599 18.3006C49.0099 17.9142 48.8849 17.4332 48.8849 16.8574C48.8849 16.3726 48.974 15.9654 49.152 15.6358C49.33 15.3063 49.5724 15.0411 49.8793 14.8404C50.1861 14.6396 50.5346 14.4881 50.9247 14.3858C51.3187 14.2836 51.7315 14.2116 52.1634 14.1699C52.6709 14.1169 53.08 14.0676 53.3906 14.0222C53.7012 13.973 53.9266 13.901 54.0668 13.8063C54.2069 13.7116 54.277 13.5714 54.277 13.3858V13.3517C54.277 12.9919 54.1634 12.7135 53.9361 12.5165C53.7126 12.3195 53.3944 12.2211 52.9815 12.2211C52.5459 12.2211 52.1993 12.3176 51.9418 12.5108C51.6842 12.7002 51.5137 12.9389 51.4304 13.2267L49.1918 13.0449C49.3054 12.5146 49.5289 12.0563 49.8622 11.6699C50.1955 11.2798 50.6255 10.9805 51.152 10.7722C51.6823 10.5601 52.2959 10.454 52.9929 10.454C53.4777 10.454 53.9418 10.5108 54.3849 10.6245C54.8319 10.7381 55.2277 10.9142 55.5724 11.1529C55.9209 11.3915 56.1955 11.6983 56.3963 12.0733C56.5971 12.4445 56.6974 12.8896 56.6974 13.4086V19.2949H54.402V18.0847H54.3338C54.1937 18.3574 54.0062 18.598 53.7713 18.8063C53.5365 19.0108 53.2543 19.1718 52.9247 19.2892C52.5952 19.4029 52.2145 19.4597 51.7827 19.4597ZM52.4759 17.7892C52.8319 17.7892 53.1463 17.7192 53.419 17.579C53.6918 17.4351 53.9058 17.2419 54.0611 16.9995C54.2164 16.757 54.294 16.4824 54.294 16.1756V15.2495C54.2183 15.2987 54.1141 15.3442 53.9815 15.3858C53.8527 15.4237 53.7069 15.4597 53.544 15.4938C53.3812 15.5241 53.2183 15.5525 53.0554 15.579C52.8925 15.6017 52.7448 15.6226 52.6122 15.6415C52.3281 15.6832 52.08 15.7495 51.8679 15.8404C51.6558 15.9313 51.491 16.0544 51.3736 16.2097C51.2562 16.3612 51.1974 16.5506 51.1974 16.7779C51.1974 17.1074 51.3168 17.3593 51.5554 17.5336C51.7978 17.704 52.1046 17.7892 52.4759 17.7892ZM60.9957 14.2495V19.2949H58.5753V10.5676H60.8821V12.1074H60.9844C61.1776 11.5998 61.5014 11.1983 61.956 10.9029C62.4105 10.6036 62.9616 10.454 63.6094 10.454C64.2154 10.454 64.7438 10.5866 65.1946 10.8517C65.6454 11.1169 65.9957 11.4957 66.2457 11.9881C66.4957 12.4767 66.6207 13.0601 66.6207 13.7381V19.2949H64.2003V14.1699C64.2041 13.6358 64.0677 13.2192 63.7912 12.9199C63.5147 12.6169 63.134 12.4654 62.6491 12.4654C62.3234 12.4654 62.0355 12.5355 61.7855 12.6756C61.5393 12.8158 61.3461 13.0203 61.206 13.2892C61.0696 13.5544 60.9995 13.8745 60.9957 14.2495ZM71.7443 19.437C71.0814 19.437 70.4811 19.2665 69.9432 18.9256C69.4091 18.5809 68.9848 18.0752 68.6705 17.4086C68.3598 16.7381 68.2045 15.9161 68.2045 14.9426C68.2045 13.9426 68.3655 13.1112 68.6875 12.4483C69.0095 11.7817 69.4375 11.2836 69.9716 10.954C70.5095 10.6207 71.0985 10.454 71.7386 10.454C72.2273 10.454 72.6345 10.5373 72.9602 10.704C73.2898 10.8669 73.5549 11.0714 73.7557 11.3176C73.9602 11.5601 74.1155 11.7987 74.2216 12.0336H74.2955V7.65856H76.7102V19.2949H74.3239V17.8972H74.2216C74.108 18.1396 73.947 18.3801 73.7386 18.6188C73.5341 18.8536 73.267 19.0487 72.9375 19.204C72.6117 19.3593 72.214 19.437 71.7443 19.437ZM72.5114 17.5108C72.9015 17.5108 73.2311 17.4048 73.5 17.1926C73.7727 16.9767 73.9811 16.6756 74.125 16.2892C74.2727 15.9029 74.3466 15.4502 74.3466 14.9313C74.3466 14.4123 74.2746 13.9616 74.1307 13.579C73.9867 13.1964 73.7784 12.901 73.5057 12.6926C73.233 12.4843 72.9015 12.3801 72.5114 12.3801C72.1136 12.3801 71.7784 12.4881 71.5057 12.704C71.233 12.9199 71.0265 13.2192 70.8864 13.6017C70.7462 13.9843 70.6761 14.4275 70.6761 14.9313C70.6761 15.4389 70.7462 15.8877 70.8864 16.2779C71.0303 16.6642 71.2367 16.9673 71.5057 17.187C71.7784 17.4029 72.1136 17.5108 72.5114 17.5108ZM82.4489 19.2949V7.65856H84.9091V12.4597H89.9034V7.65856H92.358V19.2949H89.9034V14.4881H84.9091V19.2949H82.4489ZM96.8295 19.4597C96.2727 19.4597 95.7765 19.3631 95.3409 19.1699C94.9053 18.973 94.5606 18.6832 94.3068 18.3006C94.0568 17.9142 93.9318 17.4332 93.9318 16.8574C93.9318 16.3726 94.0208 15.9654 94.1989 15.6358C94.3769 15.3063 94.6193 15.0411 94.9261 14.8404C95.233 14.6396 95.5814 14.4881 95.9716 14.3858C96.3655 14.2836 96.7784 14.2116 97.2102 14.1699C97.7178 14.1169 98.1269 14.0676 98.4375 14.0222C98.7481 13.973 98.9735 13.901 99.1136 13.8063C99.2538 13.7116 99.3239 13.5714 99.3239 13.3858V13.3517C99.3239 12.9919 99.2102 12.7135 98.983 12.5165C98.7595 12.3195 98.4413 12.2211 98.0284 12.2211C97.5928 12.2211 97.2462 12.3176 96.9886 12.5108C96.7311 12.7002 96.5606 12.9389 96.4773 13.2267L94.2386 13.0449C94.3523 12.5146 94.5758 12.0563 94.9091 11.6699C95.2424 11.2798 95.6723 10.9805 96.1989 10.7722C96.7292 10.5601 97.3428 10.454 98.0398 10.454C98.5246 10.454 98.9886 10.5108 99.4318 10.6245C99.8788 10.7381 100.275 10.9142 100.619 11.1529C100.968 11.3915 101.242 11.6983 101.443 12.0733C101.644 12.4445 101.744 12.8896 101.744 13.4086V19.2949H99.4489V18.0847H99.3807C99.2405 18.3574 99.053 18.598 98.8182 18.8063C98.5833 19.0108 98.3011 19.1718 97.9716 19.2892C97.642 19.4029 97.2614 19.4597 96.8295 19.4597ZM97.5227 17.7892C97.8788 17.7892 98.1932 17.7192 98.4659 17.579C98.7386 17.4351 98.9527 17.2419 99.108 16.9995C99.2633 16.757 99.3409 16.4824 99.3409 16.1756V15.2495C99.2652 15.2987 99.161 15.3442 99.0284 15.3858C98.8996 15.4237 98.7538 15.4597 98.5909 15.4938C98.428 15.5241 98.2652 15.5525 98.1023 15.579C97.9394 15.6017 97.7917 15.6226 97.6591 15.6415C97.375 15.6832 97.1269 15.7495 96.9148 15.8404C96.7027 15.9313 96.5379 16.0544 96.4205 16.2097C96.303 16.3612 96.2443 16.5506 96.2443 16.7779C96.2443 17.1074 96.3636 17.3593 96.6023 17.5336C96.8447 17.704 97.1515 17.7892 97.5227 17.7892ZM103.622 19.2949V10.5676H105.969V12.0904H106.06C106.219 11.5487 106.486 11.1396 106.861 10.8631C107.236 10.5828 107.668 10.4426 108.156 10.4426C108.277 10.4426 108.408 10.4502 108.548 10.4654C108.688 10.4805 108.812 10.5014 108.918 10.5279V12.6756C108.804 12.6415 108.647 12.6112 108.446 12.5847C108.245 12.5582 108.062 12.5449 107.895 12.5449C107.539 12.5449 107.221 12.6226 106.94 12.7779C106.664 12.9294 106.444 13.1415 106.281 13.4142C106.122 13.687 106.043 14.0014 106.043 14.3574V19.2949H103.622ZM110.169 19.2949V10.5676H112.476V12.1074H112.578C112.76 11.5961 113.063 11.1926 113.487 10.8972C113.911 10.6017 114.419 10.454 115.01 10.454C115.608 10.454 116.118 10.6036 116.538 10.9029C116.959 11.1983 117.239 11.5998 117.379 12.1074H117.47C117.648 11.6074 117.97 11.2078 118.436 10.9086C118.906 10.6055 119.461 10.454 120.101 10.454C120.915 10.454 121.576 10.7135 122.084 11.2324C122.595 11.7476 122.851 12.4786 122.851 13.4256V19.2949H120.436V13.9029C120.436 13.418 120.307 13.0544 120.05 12.812C119.792 12.5695 119.47 12.4483 119.084 12.4483C118.644 12.4483 118.302 12.5885 118.055 12.8688C117.809 13.1453 117.686 13.5108 117.686 13.9654V19.2949H115.339V13.8517C115.339 13.4237 115.216 13.0828 114.97 12.829C114.728 12.5752 114.408 12.4483 114.01 12.4483C113.741 12.4483 113.499 12.5165 113.283 12.6529C113.071 12.7855 112.902 12.973 112.777 13.2154C112.652 13.454 112.589 13.7343 112.589 14.0563V19.2949H110.169ZM128.706 19.4654C127.823 19.4654 127.06 19.2779 126.416 18.9029C125.776 18.5241 125.282 17.9976 124.933 17.3233C124.585 16.6453 124.411 15.8593 124.411 14.9654C124.411 14.0639 124.585 13.276 124.933 12.6017C125.282 11.9237 125.776 11.3972 126.416 11.0222C127.06 10.6434 127.823 10.454 128.706 10.454C129.589 10.454 130.35 10.6434 130.99 11.0222C131.634 11.3972 132.13 11.9237 132.479 12.6017C132.827 13.276 133.001 14.0639 133.001 14.9654C133.001 15.8593 132.827 16.6453 132.479 17.3233C132.13 17.9976 131.634 18.5241 130.99 18.9029C130.35 19.2779 129.589 19.4654 128.706 19.4654ZM128.717 17.5904C129.119 17.5904 129.454 17.4767 129.723 17.2495C129.992 17.0184 130.195 16.704 130.331 16.3063C130.471 15.9086 130.541 15.4559 130.541 14.9483C130.541 14.4408 130.471 13.9881 130.331 13.5904C130.195 13.1926 129.992 12.8783 129.723 12.6472C129.454 12.4161 129.119 12.3006 128.717 12.3006C128.312 12.3006 127.971 12.4161 127.695 12.6472C127.422 12.8783 127.215 13.1926 127.075 13.5904C126.939 13.9881 126.871 14.4408 126.871 14.9483C126.871 15.4559 126.939 15.9086 127.075 16.3063C127.215 16.704 127.422 17.0184 127.695 17.2495C127.971 17.4767 128.312 17.5904 128.717 17.5904ZM136.996 14.2495V19.2949H134.575V10.5676H136.882V12.1074H136.984C137.178 11.5998 137.501 11.1983 137.956 10.9029C138.411 10.6036 138.962 10.454 139.609 10.454C140.215 10.454 140.744 10.5866 141.195 10.8517C141.645 11.1169 141.996 11.4957 142.246 11.9881C142.496 12.4767 142.621 13.0601 142.621 13.7381V19.2949H140.2V14.1699C140.204 13.6358 140.068 13.2192 139.791 12.9199C139.515 12.6169 139.134 12.4654 138.649 12.4654C138.323 12.4654 138.036 12.5355 137.786 12.6756C137.539 12.8158 137.346 13.0203 137.206 13.2892C137.07 13.5544 137 13.8745 136.996 14.2495ZM145.71 22.5676C145.403 22.5676 145.116 22.543 144.847 22.4938C144.581 22.4483 144.362 22.3896 144.188 22.3176L144.733 20.5108C145.017 20.598 145.273 20.6453 145.5 20.6529C145.731 20.6605 145.93 20.6074 146.097 20.4938C146.267 20.3801 146.405 20.187 146.511 19.9142L146.653 19.5449L143.523 10.5676H146.068L147.875 16.9767H147.966L149.79 10.5676H152.352L148.96 20.2381C148.797 20.7078 148.576 21.1169 148.295 21.4654C148.019 21.8176 147.669 22.0885 147.244 22.2779C146.82 22.4711 146.309 22.5676 145.71 22.5676Z" fill="#666666"/>
<rect x="370.367" width="27.8025" height="27.8025" rx="13.9013" fill="#032E15"/>
<path d="M377.555 13.901L382.031 18.3777L390.985 9.42383" stroke="#F0EEE6" stroke-width="1.01717"/>
<rect x="563.005" y="0.508583" width="26.7854" height="26.7854" rx="13.3927" stroke="#322D2D" stroke-width="1.01717"/>
<path fill-rule="evenodd" clip-rule="evenodd" d="M575.683 13.9006L571.916 10.1331L572.631 9.41799L576.398 13.1855L580.166 9.41817L580.881 10.1333L577.113 13.9006L580.881 17.6677L580.165 18.3828L576.398 14.6157L572.631 18.383L571.916 17.6679L575.683 13.9006Z" fill="#322D2D"/>
<rect x="718.38" y="0.508583" width="26.7854" height="26.7854" rx="13.3927" stroke="#322D2D" stroke-width="1.01717"/>
<path fill-rule="evenodd" clip-rule="evenodd" d="M731.058 13.9006L727.291 10.1331L728.006 9.41799L731.773 13.1855L735.541 9.41817L736.256 10.1333L732.488 13.9006L736.256 17.6677L735.54 18.3828L731.773 14.6157L728.006 18.383L727.291 17.6679L731.058 13.9006Z" fill="#322D2D"/>
<rect x="871.481" y="0.508583" width="26.7854" height="26.7854" rx="13.3927" stroke="#322D2D" stroke-width="1.01717"/>
<path fill-rule="evenodd" clip-rule="evenodd" d="M884.16 13.9006L880.392 10.1331L881.107 9.41799L884.875 13.1855L888.642 9.41817L889.357 10.1333L885.59 13.9006L889.357 17.6677L888.642 18.3828L884.875 14.6157L881.108 18.383L880.392 17.6679L884.16 13.9006Z" fill="#322D2D"/>
</svg>
