<svg width="899" height="28" viewBox="0 0 899 28" fill="none" xmlns="http://www.w3.org/2000/svg">
<path d="M1.01136 19.2949V7.65856H5.60227C6.48485 7.65856 7.23674 7.82712 7.85795 8.16424C8.47917 8.49757 8.95265 8.96159 9.27841 9.55628C9.60795 10.1472 9.77273 10.829 9.77273 11.6017C9.77273 12.3745 9.60606 13.0563 9.27273 13.6472C8.93939 14.2381 8.45644 14.6983 7.82386 15.0279C7.19508 15.3574 6.43371 15.5222 5.53977 15.5222H2.61364V13.5506H5.14205C5.61553 13.5506 6.00568 13.4692 6.3125 13.3063C6.62311 13.1396 6.85417 12.9105 7.00568 12.6188C7.16098 12.3233 7.23864 11.9843 7.23864 11.6017C7.23864 11.2154 7.16098 10.8783 7.00568 10.5904C6.85417 10.2987 6.62311 10.0733 6.3125 9.91424C6.00189 9.75136 5.60795 9.66992 5.13068 9.66992H3.47159V19.2949H1.01136ZM11.3253 19.2949V10.5676H13.6719V12.0904H13.7628C13.9219 11.5487 14.1889 11.1396 14.5639 10.8631C14.9389 10.5828 15.3707 10.4426 15.8594 10.4426C15.9806 10.4426 16.1113 10.4502 16.2514 10.4654C16.3916 10.4805 16.5147 10.5014 16.6207 10.5279V12.6756C16.5071 12.6415 16.3499 12.6112 16.1491 12.5847C15.9484 12.5582 15.7647 12.5449 15.598 12.5449C15.242 12.5449 14.9238 12.6226 14.6435 12.7779C14.367 12.9294 14.1473 13.1415 13.9844 13.4142C13.8253 13.687 13.7457 14.0014 13.7457 14.3574V19.2949H11.3253ZM17.8722 19.2949V10.5676H20.2926V19.2949H17.8722ZM19.0881 9.44265C18.7282 9.44265 18.4195 9.32333 18.1619 9.08469C17.9081 8.84227 17.7812 8.5525 17.7812 8.21538C17.7812 7.88204 17.9081 7.59606 18.1619 7.35742C18.4195 7.115 18.7282 6.99378 19.0881 6.99378C19.4479 6.99378 19.7547 7.115 20.0085 7.35742C20.2661 7.59606 20.3949 7.88204 20.3949 8.21538C20.3949 8.5525 20.2661 8.84227 20.0085 9.08469C19.7547 9.32333 19.4479 9.44265 19.0881 9.44265ZM26.1747 19.4654C25.2808 19.4654 24.5118 19.276 23.8679 18.8972C23.2277 18.5146 22.7353 17.9843 22.3906 17.3063C22.0497 16.6283 21.8793 15.848 21.8793 14.9654C21.8793 14.0714 22.0516 13.2873 22.3963 12.6131C22.7448 11.9351 23.2391 11.4067 23.8793 11.0279C24.5194 10.6453 25.2808 10.454 26.1634 10.454C26.9247 10.454 27.5914 10.5923 28.1634 10.8688C28.7353 11.1453 29.188 11.5336 29.5213 12.0336C29.8546 12.5336 30.0384 13.1207 30.0724 13.7949H27.7884C27.724 13.3593 27.5535 13.0089 27.277 12.7438C27.0043 12.4748 26.6463 12.3404 26.2031 12.3404C25.8281 12.3404 25.5005 12.4426 25.2202 12.6472C24.9437 12.848 24.7277 13.1415 24.5724 13.5279C24.4171 13.9142 24.3395 14.382 24.3395 14.9313C24.3395 15.4881 24.4152 15.9616 24.5668 16.3517C24.7221 16.7419 24.9399 17.0392 25.2202 17.2438C25.5005 17.4483 25.8281 17.5506 26.2031 17.5506C26.4796 17.5506 26.7277 17.4938 26.9474 17.3801C27.1709 17.2665 27.3546 17.1017 27.4986 16.8858C27.6463 16.6661 27.7429 16.4029 27.7884 16.0961H30.0724C30.0346 16.7627 29.8527 17.3498 29.527 17.8574C29.205 18.3612 28.7599 18.7551 28.1918 19.0392C27.6236 19.3233 26.9512 19.4654 26.1747 19.4654ZM35.5994 19.4654C34.7017 19.4654 33.929 19.2836 33.2812 18.9199C32.6373 18.5525 32.1411 18.0336 31.7926 17.3631C31.4441 16.6889 31.2699 15.8915 31.2699 14.9711C31.2699 14.0733 31.4441 13.2855 31.7926 12.6074C32.1411 11.9294 32.6316 11.401 33.2642 11.0222C33.9006 10.6434 34.6468 10.454 35.5028 10.454C36.0786 10.454 36.6146 10.5468 37.1108 10.7324C37.6108 10.9142 38.0464 11.1889 38.4176 11.5563C38.7926 11.9237 39.0843 12.3858 39.2926 12.9426C39.5009 13.4957 39.6051 14.1434 39.6051 14.8858V15.5506H32.2358V14.0506H37.3267C37.3267 13.7021 37.2509 13.3934 37.0994 13.1245C36.9479 12.8555 36.7377 12.6453 36.4688 12.4938C36.2036 12.3385 35.8949 12.2608 35.5426 12.2608C35.1752 12.2608 34.8494 12.3461 34.5653 12.5165C34.285 12.6832 34.0653 12.9086 33.9062 13.1926C33.7472 13.473 33.6657 13.7855 33.6619 14.1301V15.5563C33.6619 15.9881 33.7415 16.3612 33.9006 16.6756C34.0634 16.99 34.2926 17.2324 34.5881 17.4029C34.8835 17.5733 35.2339 17.6586 35.6392 17.6586C35.9081 17.6586 36.1544 17.6207 36.3778 17.5449C36.6013 17.4692 36.7926 17.3555 36.9517 17.204C37.1108 17.0525 37.232 16.8669 37.3153 16.6472L39.554 16.7949C39.4403 17.3328 39.2074 17.8025 38.8551 18.204C38.5066 18.6017 38.0559 18.9123 37.5028 19.1358C36.9536 19.3555 36.3191 19.4654 35.5994 19.4654ZM53.0241 10.5676L49.973 19.2949H47.2457L44.1946 10.5676H46.7514L48.5639 16.812H48.6548L50.4616 10.5676H53.0241ZM61.5241 13.0563L59.3082 13.1926C59.2704 13.0033 59.1889 12.8328 59.0639 12.6813C58.9389 12.526 58.7741 12.4029 58.5696 12.312C58.3688 12.2173 58.1283 12.1699 57.848 12.1699C57.473 12.1699 57.1567 12.2495 56.8991 12.4086C56.6416 12.5639 56.5128 12.7722 56.5128 13.0336C56.5128 13.2419 56.5961 13.418 56.7628 13.562C56.9295 13.7059 57.2154 13.8214 57.6207 13.9086L59.2003 14.2267C60.0488 14.401 60.6813 14.6813 61.098 15.0676C61.5147 15.454 61.723 15.9616 61.723 16.5904C61.723 17.1623 61.5545 17.6642 61.2173 18.0961C60.884 18.5279 60.4257 18.865 59.8423 19.1074C59.2628 19.3461 58.5942 19.4654 57.8366 19.4654C56.6813 19.4654 55.7609 19.2248 55.0753 18.7438C54.3935 18.2589 53.9938 17.5998 53.8764 16.7665L56.2571 16.6415C56.3291 16.9938 56.5033 17.2627 56.7798 17.4483C57.0563 17.6301 57.4105 17.7211 57.8423 17.7211C58.2666 17.7211 58.6075 17.6396 58.8651 17.4767C59.1264 17.3101 59.259 17.0961 59.2628 16.8347C59.259 16.615 59.1662 16.4351 58.9844 16.2949C58.8026 16.151 58.5223 16.0411 58.1435 15.9654L56.6321 15.6642C55.7798 15.4938 55.1454 15.1983 54.7287 14.7779C54.3158 14.3574 54.1094 13.8214 54.1094 13.1699C54.1094 12.6093 54.2609 12.1264 54.5639 11.7211C54.8707 11.3158 55.3007 11.0033 55.8537 10.7836C56.4105 10.5639 57.062 10.454 57.8082 10.454C58.9105 10.454 59.7779 10.687 60.4105 11.1529C61.0469 11.6188 61.4181 12.2533 61.5241 13.0563ZM64.6619 19.4426C64.2869 19.4426 63.965 19.3101 63.696 19.0449C63.4309 18.776 63.2983 18.454 63.2983 18.079C63.2983 17.7078 63.4309 17.3896 63.696 17.1245C63.965 16.8593 64.2869 16.7267 64.6619 16.7267C65.0256 16.7267 65.3438 16.8593 65.6165 17.1245C65.8892 17.3896 66.0256 17.7078 66.0256 18.079C66.0256 18.329 65.9612 18.5582 65.8324 18.7665C65.7074 18.9711 65.5426 19.1358 65.3381 19.2608C65.1335 19.382 64.9081 19.4426 64.6619 19.4426ZM75.6065 15.2495H77.6974L78.7486 16.6017L79.7827 17.8063L81.7315 20.2495H79.4361L78.0952 18.6017L77.4077 17.6245L75.6065 15.2495ZM81.9077 13.4767C81.9077 14.7457 81.6671 15.8252 81.1861 16.7154C80.7088 17.6055 80.0573 18.2855 79.2315 18.7551C78.4096 19.2211 77.4853 19.454 76.4588 19.454C75.4247 19.454 74.4967 19.2192 73.6747 18.7495C72.8527 18.2798 72.2031 17.5998 71.7259 16.7097C71.2486 15.8195 71.0099 14.7419 71.0099 13.4767C71.0099 12.2078 71.2486 11.1283 71.7259 10.2381C72.2031 9.34795 72.8527 8.66992 73.6747 8.20401C74.4967 7.73432 75.4247 7.49947 76.4588 7.49947C77.4853 7.49947 78.4096 7.73432 79.2315 8.20401C80.0573 8.66992 80.7088 9.34795 81.1861 10.2381C81.6671 11.1283 81.9077 12.2078 81.9077 13.4767ZM79.4134 13.4767C79.4134 12.6548 79.2902 11.9616 79.044 11.3972C78.8016 10.8328 78.4588 10.4048 78.0156 10.1131C77.5724 9.82144 77.0535 9.6756 76.4588 9.6756C75.8641 9.6756 75.3452 9.82144 74.902 10.1131C74.4588 10.4048 74.1141 10.8328 73.8679 11.3972C73.6255 11.9616 73.5043 12.6548 73.5043 13.4767C73.5043 14.2987 73.6255 14.9919 73.8679 15.5563C74.1141 16.1207 74.4588 16.5487 74.902 16.8404C75.3452 17.132 75.8641 17.2779 76.4588 17.2779C77.0535 17.2779 77.5724 17.132 78.0156 16.8404C78.4588 16.5487 78.8016 16.1207 79.044 15.5563C79.2902 14.9919 79.4134 14.2987 79.4134 13.4767ZM89.2812 15.579V10.5676H91.7017V19.2949H89.3778V17.7097H89.2869C89.09 18.2211 88.7623 18.632 88.304 18.9426C87.8494 19.2533 87.2945 19.4086 86.6392 19.4086C86.0559 19.4086 85.5426 19.276 85.0994 19.0108C84.6563 18.7457 84.3097 18.3688 84.0597 17.8801C83.8134 17.3915 83.6884 16.8063 83.6847 16.1245V10.5676H86.1051V15.6926C86.1089 16.2078 86.2472 16.615 86.5199 16.9142C86.7926 17.2135 87.1581 17.3631 87.6165 17.3631C87.9081 17.3631 88.1809 17.2968 88.4347 17.1642C88.6884 17.0279 88.893 16.8271 89.0483 16.562C89.2074 16.2968 89.285 15.9692 89.2812 15.579ZM96.1264 19.4597C95.5696 19.4597 95.0734 19.3631 94.6378 19.1699C94.2022 18.973 93.8575 18.6832 93.6037 18.3006C93.3537 17.9142 93.2287 17.4332 93.2287 16.8574C93.2287 16.3726 93.3177 15.9654 93.4957 15.6358C93.6738 15.3063 93.9162 15.0411 94.223 14.8404C94.5298 14.6396 94.8783 14.4881 95.2685 14.3858C95.6624 14.2836 96.0753 14.2116 96.5071 14.1699C97.0147 14.1169 97.4238 14.0676 97.7344 14.0222C98.045 13.973 98.2704 13.901 98.4105 13.8063C98.5507 13.7116 98.6207 13.5714 98.6207 13.3858V13.3517C98.6207 12.9919 98.5071 12.7135 98.2798 12.5165C98.0563 12.3195 97.7382 12.2211 97.3253 12.2211C96.8897 12.2211 96.5431 12.3176 96.2855 12.5108C96.0279 12.7002 95.8575 12.9389 95.7741 13.2267L93.5355 13.0449C93.6491 12.5146 93.8726 12.0563 94.206 11.6699C94.5393 11.2798 94.9692 10.9805 95.4957 10.7722C96.026 10.5601 96.6397 10.454 97.3366 10.454C97.8215 10.454 98.2855 10.5108 98.7287 10.6245C99.1757 10.7381 99.5715 10.9142 99.9162 11.1529C100.265 11.3915 100.539 11.6983 100.74 12.0733C100.941 12.4445 101.041 12.8896 101.041 13.4086V19.2949H98.7457V18.0847H98.6776C98.5374 18.3574 98.3499 18.598 98.1151 18.8063C97.8802 19.0108 97.598 19.1718 97.2685 19.2892C96.9389 19.4029 96.5582 19.4597 96.1264 19.4597ZM96.8196 17.7892C97.1757 17.7892 97.4901 17.7192 97.7628 17.579C98.0355 17.4351 98.2495 17.2419 98.4048 16.9995C98.5601 16.757 98.6378 16.4824 98.6378 16.1756V15.2495C98.562 15.2987 98.4579 15.3442 98.3253 15.3858C98.1965 15.4237 98.0507 15.4597 97.8878 15.4938C97.7249 15.5241 97.562 15.5525 97.3991 15.579C97.2363 15.6017 97.0885 15.6226 96.956 15.6415C96.6719 15.6832 96.4238 15.7495 96.2116 15.8404C95.9995 15.9313 95.8348 16.0544 95.7173 16.2097C95.5999 16.3612 95.5412 16.5506 95.5412 16.7779C95.5412 17.1074 95.6605 17.3593 95.8991 17.5336C96.1416 17.704 96.4484 17.7892 96.8196 17.7892ZM105.339 7.65856V19.2949H102.919V7.65856H105.339ZM107.278 19.2949V10.5676H109.699V19.2949H107.278ZM108.494 9.44265C108.134 9.44265 107.826 9.32333 107.568 9.08469C107.314 8.84227 107.188 8.5525 107.188 8.21538C107.188 7.88204 107.314 7.59606 107.568 7.35742C107.826 7.115 108.134 6.99378 108.494 6.99378C108.854 6.99378 109.161 7.115 109.415 7.35742C109.672 7.59606 109.801 7.88204 109.801 8.21538C109.801 8.5525 109.672 8.84227 109.415 9.08469C109.161 9.32333 108.854 9.44265 108.494 9.44265ZM116.28 10.5676V12.3858H111.024V10.5676H116.28ZM112.217 8.47674H114.638V16.6131C114.638 16.8366 114.672 17.0108 114.74 17.1358C114.808 17.257 114.903 17.3423 115.024 17.3915C115.149 17.4408 115.293 17.4654 115.456 17.4654C115.57 17.4654 115.683 17.4559 115.797 17.437C115.911 17.4142 115.998 17.3972 116.058 17.3858L116.439 19.187C116.318 19.2248 116.147 19.2684 115.928 19.3176C115.708 19.3707 115.441 19.4029 115.126 19.4142C114.543 19.437 114.032 19.3593 113.592 19.1813C113.157 19.0033 112.818 18.7267 112.575 18.3517C112.333 17.9767 112.214 17.5033 112.217 16.9313V8.47674ZM119.351 22.5676C119.044 22.5676 118.756 22.543 118.487 22.4938C118.222 22.4483 118.002 22.3896 117.828 22.3176L118.374 20.5108C118.658 20.598 118.913 20.6453 119.141 20.6529C119.372 20.6605 119.571 20.6074 119.737 20.4938C119.908 20.3801 120.046 20.187 120.152 19.9142L120.294 19.5449L117.163 10.5676H119.709L121.516 16.9767H121.607L123.43 10.5676H125.993L122.601 20.2381C122.438 20.7078 122.216 21.1169 121.936 21.4654C121.66 21.8176 121.309 22.0885 120.885 22.2779C120.461 22.4711 119.949 22.5676 119.351 22.5676Z" fill="#666666"/>
<rect x="871.478" y="0.505644" width="26.7912" height="26.7912" rx="13.3956" stroke="#322D2D" stroke-width="1.01129"/>
<path d="M878.16 13.901L882.637 18.3777L891.591 9.42383" stroke="#322D2D" stroke-width="1.01717"/>
<rect x="563.478" y="0.505644" width="26.7912" height="26.7912" rx="13.3956" stroke="#322D2D" stroke-width="1.01129"/>
<path d="M570.16 13.901L574.637 18.3777L583.591 9.42383" stroke="#322D2D" stroke-width="1.01717"/>
<rect x="718.376" y="0.508583" width="26.7854" height="26.7854" rx="13.3927" stroke="#322D2D" stroke-width="1.01717"/>
<path fill-rule="evenodd" clip-rule="evenodd" d="M731.054 13.9006L727.287 10.1331L728.002 9.41799L731.769 13.1855L735.537 9.41817L736.252 10.1333L732.485 13.9006L736.252 17.6677L735.537 18.3828L731.769 14.6157L728.002 18.383L727.287 17.6679L731.054 13.9006Z" fill="#322D2D"/>
<rect x="370.367" width="27.8025" height="27.8025" rx="13.9013" fill="#032E15"/>
<path d="M377.555 13.901L382.031 18.3777L390.985 9.42383" stroke="#F0EEE6" stroke-width="1.01717"/>
</svg>
