<svg width="899" height="28" viewBox="0 0 899 28" fill="none" xmlns="http://www.w3.org/2000/svg">
<path d="M7.32386 11.0051C7.27841 10.5468 7.08333 10.1908 6.73864 9.93697C6.39394 9.68318 5.92614 9.55628 5.33523 9.55628C4.93371 9.55628 4.5947 9.6131 4.31818 9.72674C4.04167 9.83659 3.82955 9.99 3.68182 10.187C3.53788 10.3839 3.46591 10.6074 3.46591 10.8574C3.45833 11.0658 3.50189 11.2476 3.59659 11.4029C3.69508 11.5582 3.82955 11.6926 4 11.8063C4.17045 11.9161 4.36742 12.0127 4.59091 12.0961C4.81439 12.1756 5.05303 12.2438 5.30682 12.3006L6.35227 12.5506C6.85985 12.6642 7.32576 12.8158 7.75 13.0051C8.17424 13.1945 8.54167 13.4275 8.85227 13.704C9.16288 13.9805 9.40341 14.3063 9.57386 14.6813C9.74811 15.0563 9.83712 15.4862 9.84091 15.9711C9.83712 16.6832 9.6553 17.3006 9.29545 17.8233C8.93939 18.3423 8.42424 18.7457 7.75 19.0336C7.07955 19.3176 6.27083 19.4597 5.32386 19.4597C4.38447 19.4597 3.56629 19.3158 2.86932 19.0279C2.17614 18.74 1.63447 18.3139 1.24432 17.7495C0.857955 17.1813 0.655303 16.4786 0.636364 15.6415H3.01705C3.04356 16.0317 3.1553 16.3574 3.35227 16.6188C3.55303 16.8764 3.82008 17.0714 4.15341 17.204C4.49053 17.3328 4.87121 17.3972 5.29545 17.3972C5.71212 17.3972 6.07386 17.3366 6.38068 17.2154C6.69129 17.0942 6.93182 16.9256 7.10227 16.7097C7.27273 16.4938 7.35795 16.2457 7.35795 15.9654C7.35795 15.704 7.2803 15.4843 7.125 15.3063C6.97348 15.1283 6.75 14.9767 6.45455 14.8517C6.16288 14.7267 5.80492 14.6131 5.38068 14.5108L4.11364 14.1926C3.13258 13.954 2.35795 13.5809 1.78977 13.0733C1.22159 12.5658 0.939394 11.882 0.943182 11.0222C0.939394 10.3176 1.12689 9.70212 1.50568 9.1756C1.88826 8.64909 2.41288 8.2381 3.07955 7.94265C3.74621 7.64719 4.50379 7.49947 5.35227 7.49947C6.21591 7.49947 6.9697 7.64719 7.61364 7.94265C8.26136 8.2381 8.76515 8.64909 9.125 9.1756C9.48485 9.70212 9.67045 10.312 9.68182 11.0051H7.32386ZM13.6435 16.7836L13.6491 13.8801H14.0014L16.7969 10.5676H19.5753L15.8196 14.954H15.2457L13.6435 16.7836ZM11.4503 19.2949V7.65856H13.8707V19.2949H11.4503ZM16.9048 19.2949L14.3366 15.4938L15.9503 13.7836L19.7401 19.2949H16.9048ZM20.7628 19.2949V10.5676H23.1832V19.2949H20.7628ZM21.9787 9.44265C21.6188 9.44265 21.3101 9.32333 21.0526 9.08469C20.7988 8.84227 20.6719 8.5525 20.6719 8.21538C20.6719 7.88204 20.7988 7.59606 21.0526 7.35742C21.3101 7.115 21.6188 6.99378 21.9787 6.99378C22.3385 6.99378 22.6454 7.115 22.8991 7.35742C23.1567 7.59606 23.2855 7.88204 23.2855 8.21538C23.2855 8.5525 23.1567 8.84227 22.8991 9.08469C22.6454 9.32333 22.3385 9.44265 21.9787 9.44265ZM27.5426 14.2495V19.2949H25.1222V10.5676H27.429V12.1074H27.5312C27.7244 11.5998 28.0483 11.1983 28.5028 10.9029C28.9574 10.6036 29.5085 10.454 30.1562 10.454C30.7623 10.454 31.2907 10.5866 31.7415 10.8517C32.1922 11.1169 32.5426 11.4957 32.7926 11.9881C33.0426 12.4767 33.1676 13.0601 33.1676 13.7381V19.2949H30.7472V14.1699C30.7509 13.6358 30.6146 13.2192 30.3381 12.9199C30.0616 12.6169 29.6809 12.4654 29.196 12.4654C28.8703 12.4654 28.5824 12.5355 28.3324 12.6756C28.0862 12.8158 27.893 13.0203 27.7528 13.2892C27.6165 13.5544 27.5464 13.8745 27.5426 14.2495ZM49.0909 11.7324H46.6023C46.5568 11.4105 46.464 11.1245 46.3239 10.8745C46.1837 10.6207 46.0038 10.4048 45.7841 10.2267C45.5644 10.0487 45.3106 9.91235 45.0227 9.81765C44.7386 9.72295 44.4299 9.6756 44.0966 9.6756C43.4943 9.6756 42.9697 9.82522 42.5227 10.1245C42.0758 10.4199 41.7292 10.8517 41.483 11.4199C41.2367 11.9843 41.1136 12.6699 41.1136 13.4767C41.1136 14.3063 41.2367 15.0033 41.483 15.5676C41.733 16.132 42.0814 16.5582 42.5284 16.8461C42.9754 17.1339 43.4924 17.2779 44.0795 17.2779C44.4091 17.2779 44.714 17.2343 44.9943 17.1472C45.2784 17.0601 45.5303 16.9332 45.75 16.7665C45.9697 16.5961 46.1515 16.3896 46.2955 16.1472C46.4432 15.9048 46.5455 15.6283 46.6023 15.3176L49.0909 15.329C49.0265 15.8631 48.8655 16.3783 48.608 16.8745C48.3542 17.3669 48.0114 17.8082 47.5795 18.1983C47.1515 18.5847 46.6402 18.8915 46.0455 19.1188C45.4545 19.3423 44.786 19.454 44.0398 19.454C43.0019 19.454 42.0739 19.2192 41.2557 18.7495C40.4413 18.2798 39.7973 17.5998 39.3239 16.7097C38.8542 15.8195 38.6193 14.7419 38.6193 13.4767C38.6193 12.2078 38.858 11.1283 39.3352 10.2381C39.8125 9.34795 40.4602 8.66992 41.2784 8.20401C42.0966 7.73432 43.017 7.49947 44.0398 7.49947C44.714 7.49947 45.339 7.59416 45.9148 7.78356C46.4943 7.97295 47.0076 8.24947 47.4545 8.6131C47.9015 8.97295 48.2652 9.41424 48.5455 9.93697C48.8295 10.4597 49.0114 11.0582 49.0909 11.7324ZM54.7528 19.4654C53.8703 19.4654 53.107 19.2779 52.4631 18.9029C51.8229 18.5241 51.3286 17.9976 50.9801 17.3233C50.6316 16.6453 50.4574 15.8593 50.4574 14.9654C50.4574 14.0639 50.6316 13.276 50.9801 12.6017C51.3286 11.9237 51.8229 11.3972 52.4631 11.0222C53.107 10.6434 53.8703 10.454 54.7528 10.454C55.6354 10.454 56.3968 10.6434 57.0369 11.0222C57.6809 11.3972 58.1771 11.9237 58.5256 12.6017C58.8741 13.276 59.0483 14.0639 59.0483 14.9654C59.0483 15.8593 58.8741 16.6453 58.5256 17.3233C58.1771 17.9976 57.6809 18.5241 57.0369 18.9029C56.3968 19.2779 55.6354 19.4654 54.7528 19.4654ZM54.7642 17.5904C55.1657 17.5904 55.5009 17.4767 55.7699 17.2495C56.0388 17.0184 56.2415 16.704 56.3778 16.3063C56.518 15.9086 56.5881 15.4559 56.5881 14.9483C56.5881 14.4408 56.518 13.9881 56.3778 13.5904C56.2415 13.1926 56.0388 12.8783 55.7699 12.6472C55.5009 12.4161 55.1657 12.3006 54.7642 12.3006C54.3589 12.3006 54.018 12.4161 53.7415 12.6472C53.4688 12.8783 53.2623 13.1926 53.1222 13.5904C52.9858 13.9881 52.9176 14.4408 52.9176 14.9483C52.9176 15.4559 52.9858 15.9086 53.1222 16.3063C53.2623 16.704 53.4688 17.0184 53.7415 17.2495C54.018 17.4767 54.3589 17.5904 54.7642 17.5904ZM60.6222 19.2949V10.5676H62.929V12.1074H63.0312C63.2131 11.5961 63.5161 11.1926 63.9403 10.8972C64.3646 10.6017 64.8722 10.454 65.4631 10.454C66.0616 10.454 66.571 10.6036 66.9915 10.9029C67.4119 11.1983 67.6922 11.5998 67.8324 12.1074H67.9233C68.1013 11.6074 68.4233 11.2078 68.8892 10.9086C69.3589 10.6055 69.9138 10.454 70.554 10.454C71.3684 10.454 72.0294 10.7135 72.5369 11.2324C73.0483 11.7476 73.304 12.4786 73.304 13.4256V19.2949H70.8892V13.9029C70.8892 13.418 70.7604 13.0544 70.5028 12.812C70.2453 12.5695 69.9233 12.4483 69.5369 12.4483C69.0975 12.4483 68.7547 12.5885 68.5085 12.8688C68.2623 13.1453 68.1392 13.5108 68.1392 13.9654V19.2949H65.7926V13.8517C65.7926 13.4237 65.6695 13.0828 65.4233 12.829C65.1809 12.5752 64.8608 12.4483 64.4631 12.4483C64.1941 12.4483 63.9517 12.5165 63.7358 12.6529C63.5237 12.7855 63.3551 12.973 63.2301 13.2154C63.1051 13.454 63.0426 13.7343 63.0426 14.0563V19.2949H60.6222ZM75.2159 22.5676V10.5676H77.6023V12.0336H77.7102C77.8163 11.7987 77.9697 11.5601 78.1705 11.3176C78.375 11.0714 78.6402 10.8669 78.9659 10.704C79.2955 10.5373 79.7045 10.454 80.1932 10.454C80.8295 10.454 81.4167 10.6207 81.9545 10.954C82.4924 11.2836 82.9223 11.7817 83.2443 12.4483C83.5663 13.1112 83.7273 13.9426 83.7273 14.9426C83.7273 15.9161 83.5701 16.7381 83.2557 17.4086C82.9451 18.0752 82.5208 18.5809 81.983 18.9256C81.4489 19.2665 80.8504 19.437 80.1875 19.437C79.7178 19.437 79.3182 19.3593 78.9886 19.204C78.6629 19.0487 78.3958 18.8536 78.1875 18.6188C77.9792 18.3801 77.8201 18.1396 77.7102 17.8972H77.6364V22.5676H75.2159ZM77.5852 14.9313C77.5852 15.4502 77.6572 15.9029 77.8011 16.2892C77.9451 16.6756 78.1534 16.9767 78.4261 17.1926C78.6989 17.4048 79.0303 17.5108 79.4205 17.5108C79.8144 17.5108 80.1477 17.4029 80.4205 17.187C80.6932 16.9673 80.8996 16.6642 81.0398 16.2779C81.1837 15.8877 81.2557 15.4389 81.2557 14.9313C81.2557 14.4275 81.1856 13.9843 81.0455 13.6017C80.9053 13.2192 80.6989 12.9199 80.4261 12.704C80.1534 12.4881 79.8182 12.3801 79.4205 12.3801C79.0265 12.3801 78.6932 12.4843 78.4205 12.6926C78.1515 12.901 77.9451 13.1964 77.8011 13.579C77.6572 13.9616 77.5852 14.4123 77.5852 14.9313ZM87.8295 19.4597C87.2727 19.4597 86.7765 19.3631 86.3409 19.1699C85.9053 18.973 85.5606 18.6832 85.3068 18.3006C85.0568 17.9142 84.9318 17.4332 84.9318 16.8574C84.9318 16.3726 85.0208 15.9654 85.1989 15.6358C85.3769 15.3063 85.6193 15.0411 85.9261 14.8404C86.233 14.6396 86.5814 14.4881 86.9716 14.3858C87.3655 14.2836 87.7784 14.2116 88.2102 14.1699C88.7178 14.1169 89.1269 14.0676 89.4375 14.0222C89.7481 13.973 89.9735 13.901 90.1136 13.8063C90.2538 13.7116 90.3239 13.5714 90.3239 13.3858V13.3517C90.3239 12.9919 90.2102 12.7135 89.983 12.5165C89.7595 12.3195 89.4413 12.2211 89.0284 12.2211C88.5928 12.2211 88.2462 12.3176 87.9886 12.5108C87.7311 12.7002 87.5606 12.9389 87.4773 13.2267L85.2386 13.0449C85.3523 12.5146 85.5758 12.0563 85.9091 11.6699C86.2424 11.2798 86.6723 10.9805 87.1989 10.7722C87.7292 10.5601 88.3428 10.454 89.0398 10.454C89.5246 10.454 89.9886 10.5108 90.4318 10.6245C90.8788 10.7381 91.2746 10.9142 91.6193 11.1529C91.9678 11.3915 92.2424 11.6983 92.4432 12.0733C92.6439 12.4445 92.7443 12.8896 92.7443 13.4086V19.2949H90.4489V18.0847H90.3807C90.2405 18.3574 90.053 18.598 89.8182 18.8063C89.5833 19.0108 89.3011 19.1718 88.9716 19.2892C88.642 19.4029 88.2614 19.4597 87.8295 19.4597ZM88.5227 17.7892C88.8788 17.7892 89.1932 17.7192 89.4659 17.579C89.7386 17.4351 89.9527 17.2419 90.108 16.9995C90.2633 16.757 90.3409 16.4824 90.3409 16.1756V15.2495C90.2652 15.2987 90.161 15.3442 90.0284 15.3858C89.8996 15.4237 89.7538 15.4597 89.5909 15.4938C89.428 15.5241 89.2652 15.5525 89.1023 15.579C88.9394 15.6017 88.7917 15.6226 88.6591 15.6415C88.375 15.6832 88.1269 15.7495 87.9148 15.8404C87.7027 15.9313 87.5379 16.0544 87.4205 16.2097C87.303 16.3612 87.2443 16.5506 87.2443 16.7779C87.2443 17.1074 87.3636 17.3593 87.6023 17.5336C87.8447 17.704 88.1515 17.7892 88.5227 17.7892ZM99.2642 10.5676V12.3858H94.0085V10.5676H99.2642ZM95.2017 8.47674H97.6222V16.6131C97.6222 16.8366 97.6563 17.0108 97.7244 17.1358C97.7926 17.257 97.8873 17.3423 98.0085 17.3915C98.1335 17.4408 98.2775 17.4654 98.4403 17.4654C98.554 17.4654 98.6676 17.4559 98.7812 17.437C98.8949 17.4142 98.982 17.3972 99.0426 17.3858L99.4233 19.187C99.3021 19.2248 99.1316 19.2684 98.9119 19.3176C98.6922 19.3707 98.4252 19.4029 98.1108 19.4142C97.5275 19.437 97.0161 19.3593 96.5767 19.1813C96.1411 19.0033 95.8021 18.7267 95.5597 18.3517C95.3172 17.9767 95.1979 17.5033 95.2017 16.9313V8.47674ZM100.841 19.2949V10.5676H103.261V19.2949H100.841ZM102.057 9.44265C101.697 9.44265 101.388 9.32333 101.131 9.08469C100.877 8.84227 100.75 8.5525 100.75 8.21538C100.75 7.88204 100.877 7.59606 101.131 7.35742C101.388 7.115 101.697 6.99378 102.057 6.99378C102.417 6.99378 102.723 7.115 102.977 7.35742C103.235 7.59606 103.364 7.88204 103.364 8.21538C103.364 8.5525 103.235 8.84227 102.977 9.08469C102.723 9.32333 102.417 9.44265 102.057 9.44265ZM105.246 19.2949V7.65856H107.666V12.0336H107.74C107.846 11.7987 108 11.5601 108.2 11.3176C108.405 11.0714 108.67 10.8669 108.996 10.704C109.325 10.5373 109.734 10.454 110.223 10.454C110.859 10.454 111.446 10.6207 111.984 10.954C112.522 11.2836 112.952 11.7817 113.274 12.4483C113.596 13.1112 113.757 13.9426 113.757 14.9426C113.757 15.9161 113.6 16.7381 113.286 17.4086C112.975 18.0752 112.551 18.5809 112.013 18.9256C111.479 19.2665 110.88 19.437 110.217 19.437C109.748 19.437 109.348 19.3593 109.018 19.204C108.693 19.0487 108.426 18.8536 108.217 18.6188C108.009 18.3801 107.85 18.1396 107.74 17.8972H107.632V19.2949H105.246ZM107.615 14.9313C107.615 15.4502 107.687 15.9029 107.831 16.2892C107.975 16.6756 108.183 16.9767 108.456 17.1926C108.729 17.4048 109.06 17.5108 109.45 17.5108C109.844 17.5108 110.178 17.4029 110.45 17.187C110.723 16.9673 110.929 16.6642 111.07 16.2779C111.214 15.8877 111.286 15.4389 111.286 14.9313C111.286 14.4275 111.215 13.9843 111.075 13.6017C110.935 13.2192 110.729 12.9199 110.456 12.704C110.183 12.4881 109.848 12.3801 109.45 12.3801C109.056 12.3801 108.723 12.4843 108.45 12.6926C108.181 12.901 107.975 13.1964 107.831 13.579C107.687 13.9616 107.615 14.4123 107.615 14.9313ZM115.372 19.2949V10.5676H117.793V19.2949H115.372ZM116.588 9.44265C116.228 9.44265 115.92 9.32333 115.662 9.08469C115.408 8.84227 115.281 8.5525 115.281 8.21538C115.281 7.88204 115.408 7.59606 115.662 7.35742C115.92 7.115 116.228 6.99378 116.588 6.99378C116.948 6.99378 117.255 7.115 117.509 7.35742C117.766 7.59606 117.895 7.88204 117.895 8.21538C117.895 8.5525 117.766 8.84227 117.509 9.08469C117.255 9.32333 116.948 9.44265 116.588 9.44265ZM122.152 7.65856V19.2949H119.732V7.65856H122.152ZM124.091 19.2949V10.5676H126.511V19.2949H124.091ZM125.307 9.44265C124.947 9.44265 124.638 9.32333 124.381 9.08469C124.127 8.84227 124 8.5525 124 8.21538C124 7.88204 124.127 7.59606 124.381 7.35742C124.638 7.115 124.947 6.99378 125.307 6.99378C125.667 6.99378 125.973 7.115 126.227 7.35742C126.485 7.59606 126.614 7.88204 126.614 8.21538C126.614 8.5525 126.485 8.84227 126.227 9.08469C125.973 9.32333 125.667 9.44265 125.307 9.44265ZM133.092 10.5676V12.3858H127.837V10.5676H133.092ZM129.03 8.47674H131.45V16.6131C131.45 16.8366 131.484 17.0108 131.553 17.1358C131.621 17.257 131.715 17.3423 131.837 17.3915C131.962 17.4408 132.106 17.4654 132.268 17.4654C132.382 17.4654 132.496 17.4559 132.609 17.437C132.723 17.4142 132.81 17.3972 132.871 17.3858L133.251 19.187C133.13 19.2248 132.96 19.2684 132.74 19.3176C132.52 19.3707 132.253 19.4029 131.939 19.4142C131.356 19.437 130.844 19.3593 130.405 19.1813C129.969 19.0033 129.63 18.7267 129.388 18.3517C129.145 17.9767 129.026 17.5033 129.03 16.9313V8.47674ZM136.163 22.5676C135.857 22.5676 135.569 22.543 135.3 22.4938C135.035 22.4483 134.815 22.3896 134.641 22.3176L135.186 20.5108C135.47 20.598 135.726 20.6453 135.953 20.6529C136.184 20.6605 136.383 20.6074 136.55 20.4938C136.72 20.3801 136.858 20.187 136.964 19.9142L137.107 19.5449L133.976 10.5676H136.521L138.328 16.9767H138.419L140.243 10.5676H142.805L139.413 20.2381C139.25 20.7078 139.029 21.1169 138.749 21.4654C138.472 21.8176 138.122 22.0885 137.697 22.2779C137.273 22.4711 136.762 22.5676 136.163 22.5676Z" fill="#666666"/>
<rect x="563.005" y="0.508583" width="26.7854" height="26.7854" rx="13.3927" stroke="#322D2D" stroke-width="1.01717"/>
<path fill-rule="evenodd" clip-rule="evenodd" d="M575.683 13.9006L571.916 10.1331L572.631 9.41799L576.398 13.1855L580.166 9.41817L580.881 10.1333L577.113 13.9006L580.881 17.6677L580.165 18.3828L576.398 14.6157L572.631 18.383L571.916 17.6679L575.683 13.9006Z" fill="#322D2D"/>
<rect x="718.38" y="0.508583" width="26.7854" height="26.7854" rx="13.3927" stroke="#322D2D" stroke-width="1.01717"/>
<path fill-rule="evenodd" clip-rule="evenodd" d="M731.058 13.9006L727.291 10.1331L728.006 9.41799L731.773 13.1855L735.541 9.41817L736.256 10.1333L732.488 13.9006L736.256 17.6677L735.54 18.3828L731.773 14.6157L728.006 18.383L727.291 17.6679L731.058 13.9006Z" fill="#322D2D"/>
<rect x="871.481" y="0.508583" width="26.7854" height="26.7854" rx="13.3927" stroke="#322D2D" stroke-width="1.01717"/>
<path fill-rule="evenodd" clip-rule="evenodd" d="M884.16 13.9006L880.392 10.1331L881.107 9.41799L884.875 13.1855L888.642 9.41817L889.357 10.1333L885.59 13.9006L889.357 17.6677L888.642 18.3828L884.875 14.6157L881.108 18.383L880.392 17.6679L884.16 13.9006Z" fill="#322D2D"/>
<rect x="370.367" width="27.8025" height="27.8025" rx="13.9013" fill="#032E15"/>
<path d="M377.555 13.901L382.031 18.3777L390.985 9.42383" stroke="#F0EEE6" stroke-width="1.01717"/>
</svg>
