<svg width="899" height="28" viewBox="0 0 899 28" fill="none" xmlns="http://www.w3.org/2000/svg">
<path d="M1.01136 19.2949V7.65856H3.47159V17.2665H8.46023V19.2949H1.01136ZM13.9872 19.4654C13.1046 19.4654 12.3414 19.2779 11.6974 18.9029C11.0573 18.5241 10.563 17.9976 10.2145 17.3233C9.866 16.6453 9.69176 15.8593 9.69176 14.9654C9.69176 14.0639 9.866 13.276 10.2145 12.6017C10.563 11.9237 11.0573 11.3972 11.6974 11.0222C12.3414 10.6434 13.1046 10.454 13.9872 10.454C14.8698 10.454 15.6312 10.6434 16.2713 11.0222C16.9152 11.3972 17.4115 11.9237 17.7599 12.6017C18.1084 13.276 18.2827 14.0639 18.2827 14.9654C18.2827 15.8593 18.1084 16.6453 17.7599 17.3233C17.4115 17.9976 16.9152 18.5241 16.2713 18.9029C15.6312 19.2779 14.8698 19.4654 13.9872 19.4654ZM13.9986 17.5904C14.4001 17.5904 14.7353 17.4767 15.0043 17.2495C15.2732 17.0184 15.4759 16.704 15.6122 16.3063C15.7524 15.9086 15.8224 15.4559 15.8224 14.9483C15.8224 14.4408 15.7524 13.9881 15.6122 13.5904C15.4759 13.1926 15.2732 12.8783 15.0043 12.6472C14.7353 12.4161 14.4001 12.3006 13.9986 12.3006C13.5933 12.3006 13.2524 12.4161 12.9759 12.6472C12.7031 12.8783 12.4967 13.1926 12.3565 13.5904C12.2202 13.9881 12.152 14.4408 12.152 14.9483C12.152 15.4559 12.2202 15.9086 12.3565 16.3063C12.4967 16.704 12.7031 17.0184 12.9759 17.2495C13.2524 17.4767 13.5933 17.5904 13.9986 17.5904ZM22.277 14.2495V19.2949H19.8565V10.5676H22.1634V12.1074H22.2656C22.4588 11.5998 22.7827 11.1983 23.2372 10.9029C23.6918 10.6036 24.2429 10.454 24.8906 10.454C25.4967 10.454 26.0251 10.5866 26.4759 10.8517C26.9266 11.1169 27.277 11.4957 27.527 11.9881C27.777 12.4767 27.902 13.0601 27.902 13.7381V19.2949H25.4815V14.1699C25.4853 13.6358 25.349 13.2192 25.0724 12.9199C24.7959 12.6169 24.4152 12.4654 23.9304 12.4654C23.6046 12.4654 23.3168 12.5355 23.0668 12.6756C22.8205 12.8158 22.6274 13.0203 22.4872 13.2892C22.3509 13.5544 22.2808 13.8745 22.277 14.2495ZM33.7415 22.7495C32.9574 22.7495 32.285 22.6415 31.7244 22.4256C31.1676 22.2135 30.7244 21.9237 30.3949 21.5563C30.0653 21.1889 29.8513 20.776 29.7528 20.3176L31.9915 20.0165C32.0597 20.1908 32.1676 20.3536 32.3153 20.5051C32.4631 20.6567 32.6581 20.7779 32.9006 20.8688C33.1468 20.9635 33.446 21.0108 33.7983 21.0108C34.3248 21.0108 34.7585 20.882 35.0994 20.6245C35.4441 20.3707 35.6165 19.9445 35.6165 19.3461V17.7495H35.5142C35.4081 17.9919 35.2491 18.2211 35.0369 18.437C34.8248 18.6529 34.5521 18.829 34.2188 18.9654C33.8854 19.1017 33.4877 19.1699 33.0256 19.1699C32.3703 19.1699 31.7737 19.0184 31.2358 18.7154C30.7017 18.4086 30.2756 17.9408 29.9574 17.312C29.643 16.6794 29.4858 15.8801 29.4858 14.9142C29.4858 13.9256 29.6468 13.0998 29.9688 12.437C30.2907 11.7741 30.7188 11.2779 31.2528 10.9483C31.7907 10.6188 32.3797 10.454 33.0199 10.454C33.5085 10.454 33.9176 10.5373 34.2472 10.704C34.5767 10.8669 34.8419 11.0714 35.0426 11.3176C35.2472 11.5601 35.4044 11.7987 35.5142 12.0336H35.6051V10.5676H38.0085V19.3801C38.0085 20.1226 37.8267 20.7438 37.4631 21.2438C37.0994 21.7438 36.5956 22.1188 35.9517 22.3688C35.3116 22.6226 34.5748 22.7495 33.7415 22.7495ZM33.7926 17.3517C34.1828 17.3517 34.5123 17.2551 34.7812 17.062C35.054 16.865 35.2623 16.5847 35.4062 16.2211C35.554 15.8536 35.6278 15.4142 35.6278 14.9029C35.6278 14.3915 35.5559 13.9483 35.4119 13.5733C35.268 13.1945 35.0597 12.901 34.7869 12.6926C34.5142 12.4843 34.1828 12.3801 33.7926 12.3801C33.3949 12.3801 33.0597 12.4881 32.7869 12.704C32.5142 12.9161 32.3078 13.2116 32.1676 13.5904C32.0275 13.9692 31.9574 14.4067 31.9574 14.9029C31.9574 15.4067 32.0275 15.8423 32.1676 16.2097C32.3116 16.5733 32.518 16.8555 32.7869 17.0563C33.0597 17.2533 33.3949 17.3517 33.7926 17.3517ZM43.9119 19.4654C43.0142 19.4654 42.2415 19.2836 41.5938 18.9199C40.9498 18.5525 40.4536 18.0336 40.1051 17.3631C39.7566 16.6889 39.5824 15.8915 39.5824 14.9711C39.5824 14.0733 39.7566 13.2855 40.1051 12.6074C40.4536 11.9294 40.9441 11.401 41.5767 11.0222C42.2131 10.6434 42.9593 10.454 43.8153 10.454C44.3911 10.454 44.9271 10.5468 45.4233 10.7324C45.9233 10.9142 46.3589 11.1889 46.7301 11.5563C47.1051 11.9237 47.3968 12.3858 47.6051 12.9426C47.8134 13.4957 47.9176 14.1434 47.9176 14.8858V15.5506H40.5483V14.0506H45.6392C45.6392 13.7021 45.5634 13.3934 45.4119 13.1245C45.2604 12.8555 45.0502 12.6453 44.7812 12.4938C44.5161 12.3385 44.2074 12.2608 43.8551 12.2608C43.4877 12.2608 43.1619 12.3461 42.8778 12.5165C42.5975 12.6832 42.3778 12.9086 42.2188 13.1926C42.0597 13.473 41.9782 13.7855 41.9744 14.1301V15.5563C41.9744 15.9881 42.054 16.3612 42.2131 16.6756C42.3759 16.99 42.6051 17.2324 42.9006 17.4029C43.196 17.5733 43.5464 17.6586 43.9517 17.6586C44.2206 17.6586 44.4669 17.6207 44.6903 17.5449C44.9138 17.4692 45.1051 17.3555 45.2642 17.204C45.4233 17.0525 45.5445 16.8669 45.6278 16.6472L47.8665 16.7949C47.7528 17.3328 47.5199 17.8025 47.1676 18.204C46.8191 18.6017 46.3684 18.9123 45.8153 19.1358C45.2661 19.3555 44.6316 19.4654 43.9119 19.4654ZM57.3991 10.5676L54.348 19.2949H51.6207L48.5696 10.5676H51.1264L52.9389 16.812H53.0298L54.8366 10.5676H57.3991ZM58.6378 19.2949V10.5676H61.0582V19.2949H58.6378ZM59.8537 9.44265C59.4938 9.44265 59.1851 9.32333 58.9276 9.08469C58.6738 8.84227 58.5469 8.5525 58.5469 8.21538C58.5469 7.88204 58.6738 7.59606 58.9276 7.35742C59.1851 7.115 59.4938 6.99378 59.8537 6.99378C60.2135 6.99378 60.5204 7.115 60.7741 7.35742C61.0317 7.59606 61.1605 7.88204 61.1605 8.21538C61.1605 8.5525 61.0317 8.84227 60.7741 9.08469C60.5204 9.32333 60.2135 9.44265 59.8537 9.44265ZM67.6392 10.5676V12.3858H62.3835V10.5676H67.6392ZM63.5767 8.47674H65.9972V16.6131C65.9972 16.8366 66.0313 17.0108 66.0994 17.1358C66.1676 17.257 66.2623 17.3423 66.3835 17.3915C66.5085 17.4408 66.6525 17.4654 66.8153 17.4654C66.929 17.4654 67.0426 17.4559 67.1562 17.437C67.2699 17.4142 67.357 17.3972 67.4176 17.3858L67.7983 19.187C67.6771 19.2248 67.5066 19.2684 67.2869 19.3176C67.0672 19.3707 66.8002 19.4029 66.4858 19.4142C65.9025 19.437 65.3911 19.3593 64.9517 19.1813C64.5161 19.0033 64.1771 18.7267 63.9347 18.3517C63.6922 17.9767 63.5729 17.5033 63.5767 16.9313V8.47674ZM70.7102 22.5676C70.4034 22.5676 70.1155 22.543 69.8466 22.4938C69.5814 22.4483 69.3617 22.3896 69.1875 22.3176L69.733 20.5108C70.017 20.598 70.2727 20.6453 70.5 20.6529C70.7311 20.6605 70.9299 20.6074 71.0966 20.4938C71.267 20.3801 71.4053 20.187 71.5114 19.9142L71.6534 19.5449L68.5227 10.5676H71.0682L72.875 16.9767H72.9659L74.7898 10.5676H77.3523L73.9602 20.2381C73.7973 20.7078 73.5758 21.1169 73.2955 21.4654C73.0189 21.8176 72.6686 22.0885 72.2443 22.2779C71.8201 22.4711 71.3087 22.5676 70.7102 22.5676Z" fill="#666666"/>
<rect x="370.367" width="27.8025" height="27.8025" rx="13.9013" fill="#032E15"/>
<path d="M377.555 13.901L382.031 18.3777L390.985 9.42383" stroke="#F0EEE6" stroke-width="1.01717"/>
<rect x="871.478" y="0.505644" width="26.7912" height="26.7912" rx="13.3956" stroke="#322D2D" stroke-width="1.01129"/>
<path d="M878.16 13.901L882.637 18.3777L891.591 9.42383" stroke="#322D2D" stroke-width="1.01717"/>
<rect x="563.005" y="0.508583" width="26.7854" height="26.7854" rx="13.3927" stroke="#322D2D" stroke-width="1.01717"/>
<path fill-rule="evenodd" clip-rule="evenodd" d="M575.683 13.9006L571.916 10.1331L572.631 9.41799L576.398 13.1855L580.166 9.41817L580.881 10.1333L577.113 13.9006L580.881 17.6677L580.165 18.3828L576.398 14.6157L572.631 18.383L571.916 17.6679L575.683 13.9006Z" fill="#322D2D"/>
<rect x="718.376" y="0.508583" width="26.7854" height="26.7854" rx="13.3927" stroke="#322D2D" stroke-width="1.01717"/>
<path fill-rule="evenodd" clip-rule="evenodd" d="M731.054 13.9006L727.287 10.1331L728.002 9.41799L731.769 13.1855L735.537 9.41817L736.252 10.1333L732.485 13.9006L736.252 17.6677L735.537 18.3828L731.769 14.6157L728.002 18.383L727.287 17.6679L731.054 13.9006Z" fill="#322D2D"/>
</svg>
